<svg xmlns="http://www.w3.org/2000/svg" viewBox="0 0 156.47 27.08"><defs><style>.cls-1{fill:#fcee21;}</style></defs><title>rating-3</title><g id="Layer_2" data-name="Layer 2"><g id="Stars"><g id="_3Star" data-name="3Star"><polygon points="142.24 0 146.64 8.91 156.47 10.34 149.35 17.28 151.03 27.08 142.24 22.45 133.44 27.08 135.12 17.28 128 10.34 137.84 8.91 142.24 0"/><polygon class="cls-1" points="14.24 0 18.64 8.91 28.47 10.34 21.36 17.28 23.04 27.08 14.24 22.45 5.44 27.08 7.12 17.28 0 10.34 9.84 8.91 14.24 0"/><polygon class="cls-1" points="46.24 0 50.64 8.91 60.47 10.34 53.35 17.28 55.03 27.08 46.24 22.45 37.44 27.08 39.12 17.28 32 10.34 41.84 8.91 46.24 0"/><polygon class="cls-1" points="78.24 0 82.64 8.91 92.47 10.34 85.36 17.28 87.03 27.08 78.24 22.45 69.44 27.08 71.12 17.28 64 10.34 73.84 8.91 78.24 0"/><polygon points="110.24 0 114.64 8.91 124.47 10.34 117.36 17.28 119.03 27.08 110.24 22.45 101.44 27.08 103.12 17.28 96 10.34 105.84 8.91 110.24 0"/></g></g></g></svg>