<svg xmlns="http://www.w3.org/2000/svg" viewBox="0 0 130 94.45"><title>c</title><g id="Layer_2" data-name="Layer 2"><g id="prog"><g id="C"><path d="M0,44.08c8.41,0,9.6-4.62,9.6-8.77a70.77,70.77,0,0,0-.95-10,69.1,69.1,0,0,1-.95-9.84C7.7,4.62,14.81,0,24.88,0h2.49V6.52H25.24c-7,0-9.36,3.79-9.36,10.19a51.89,51.89,0,0,0,.83,8.41,55.25,55.25,0,0,1,.83,9c.12,7.58-3.2,11.38-8.53,12.8v.24c5.33,1.3,8.65,5.33,8.53,12.92a54,54,0,0,1-.83,9,53.33,53.33,0,0,0-.83,8.53c0,6.64,2.73,10.31,9.36,10.31h2.13v6.52H24.88C15,94.45,7.7,90.18,7.7,78.21a67.48,67.48,0,0,1,.95-9.72,65.87,65.87,0,0,0,.95-9.6c0-3.67-1.19-8.77-9.6-8.77Z"/><path d="M93.74,78.57c-3.79,1.9-11.38,3.79-21.09,3.79-22.52,0-39.46-14.22-39.46-40.41C33.18,16.95,50.13,0,74.89,0c10,0,16.24,2.13,19,3.56L91.37,12A37.56,37.56,0,0,0,75.25,8.65c-18.72,0-31.17,12-31.17,32.94,0,19.55,11.26,32.11,30.69,32.11,6.28,0,12.68-1.3,16.83-3.32Z"/><path d="M130,50.13c-8.41,0-9.6,5.1-9.6,8.77a65.76,65.76,0,0,0,.95,9.6,67.48,67.48,0,0,1,.95,9.72c0,12-7.47,16.23-17.18,16.23h-2.49V87.93h2c6.64-.12,9.48-3.67,9.48-10.31a71.57,71.57,0,0,0-.83-8.53,53.84,53.84,0,0,1-.95-9c0-7.58,3.32-11.61,8.53-12.92v-.24c-5.21-1.42-8.53-5.21-8.53-12.8a55.2,55.2,0,0,1,.95-9,69.64,69.64,0,0,0,.83-8.41c0-6.4-2.49-10.07-9.36-10.19h-2.13V0H105c10.07,0,17.3,4.62,17.3,15.52a69.1,69.1,0,0,1-.95,9.84,70.66,70.66,0,0,0-.95,10c0,4.15,1.19,8.77,9.6,8.77Z"/></g></g></g></svg>