<svg xmlns="http://www.w3.org/2000/svg" viewBox="0 0 138.57 96.02"><title>csharp</title><g id="Layer_2" data-name="Layer 2"><g id="prog"><g id="C_" data-name="C#"><path d="M70.6,91.6C66.18,93.81,57.34,96,46,96,19.76,96,0,79.44,0,48.91,0,19.75,19.76,0,48.63,0,60.24,0,67.56,2.49,70.74,4.15L67.83,14A43.68,43.68,0,0,0,49,10.09c-21.83,0-36.34,14-36.34,38.41,0,22.8,13.12,37.44,35.78,37.44,7.32,0,14.78-1.52,19.62-3.87Z"/><path d="M88,94.55l3.59-27H80.57v-8H92.89l2.63-20H83.57v-8H96.76l3.59-27h8l-3.45,27h14.37l3.59-27H131l-3.45,27h11v8H126.32l-2.49,20h11.73v8h-13l-3.59,27h-8.29l3.59-27H99.93l-3.59,27Zm27.49-35,2.63-20H103.8l-2.62,20Z"/></g></g></g></svg>