<svg xmlns="http://www.w3.org/2000/svg" viewBox="0 0 256 231.08"><defs><style>.cls-1{fill:#848484;}.cls-2{fill:#141414;}.cls-3{fill:#060606;}.cls-4{fill:#121212;}.cls-5{fill:#333;}.cls-6{fill:#353535;}.cls-7{fill:#d6d6d6;}.cls-8{fill:#bdbdbd;}.cls-9{fill:#ababab;}.cls-10{fill:#bcbcbc;}.cls-11{fill:#adadad;}.cls-12{fill:#bebebe;}.cls-13{fill:#b5b5b5;}.cls-14{fill:#c7c7c7;}.cls-15{fill:#9d9d9d;}.cls-16{fill:#fefefe;}.cls-17{fill:#f0f0f0;}.cls-18{fill:#f1f1f1;}.cls-19{fill:#d2d2d2;}.cls-20{fill:#484848;}.cls-21{fill:#4e4e4e;}.cls-22{fill:#fdfdfd;}.cls-23{fill:#3e3e3e;}.cls-24{fill:#e3e3e3;}.cls-25{fill:#efefef;}.cls-26{fill:#f7f7f7;}.cls-27{fill:#e0e0e0;}.cls-28{fill:#c8c8c8;}.cls-29{fill:#ededed;}.cls-30{fill:#dedede;}.cls-31{fill:#cdcdcd;}</style></defs><title>eclipse</title><g id="Layer_2" data-name="Layer 2"><g id="prog"><g id="eclipse"><path class="cls-1" d="M0,100.85c1.57-1.37,1.26-3.38,1.59-5.1a117.85,117.85,0,0,1,97.1-94A105.08,105.08,0,0,1,120.58.08C60.82,16.06,20.71,51.38,20.81,116c.11,63.41,39.58,98.5,99.09,115.06a99.88,99.88,0,0,1-30-3.48C42.51,214.1,12.22,184.16,1.59,135.42c-.34-1.56-.06-3.4-1.59-4.57Z"/><path class="cls-2" d="M256,123.85c-.91,5.35-1.74,10.7-2.74,16-1.37,7.34-4.17,14.2-7.27,21-1.14,1-2.24,2.09-4,1.44-2.28-1-2-2.61-1.26-4.52,1.26-3.41,3.11-6.53,4.56-9.83,1.2-3.43,2.55-6.83,2.42-10.57.67-5.22,1.54-10.42,2.07-15.66-.33-9-.09-18.06-1.82-27a9.87,9.87,0,0,0-.92-1.43c.38-3.16-.79-6-2-8.81-.61-3.81-3.12-6.86-4.2-10.48-.6-2-1.84-4.15,1-5.51,1.7-.56,2.76.75,4,1.4,5.67,11.69,7.81,24.34,10,37Z"/><path class="cls-3" d="M242.13,160.91l3.87-.07c-3.68,9.42-9.35,17.7-15.9,25.2-24.64,28.21-56.21,42.31-93.3,40.48-47.11-2.32-81.63-25.46-102.15-68.46A37.82,37.82,0,0,1,33,152.85c2.59-.62,4.49,1.3,6.79,1.8,12.93,27.56,32.88,48,61.74,58.44,38.73,14,74.92,8.5,108-16.08,11.81-8.76,20.72-20.08,27.93-32.82C238.49,162.44,239.06,159.84,242.13,160.91Z"/><path class="cls-3" d="M246,69.87l-3.95,0c-2.75,1-3.44-1.29-4.43-2.89-4.48-7.22-9.11-14.29-14.9-20.58A108.9,108.9,0,0,0,162.85,12.7c-22.56-4.6-44.4-2-65.48,6.91C74.67,29.19,57.45,45,45.1,66.32c-1,1.81-1.25,4.82-4.58,4.41-1.46-.08-2.86-.27-3.51-1.86q31.62-61,100.25-64c34.42-1.51,63.58,10.66,87.88,34.72A100.15,100.15,0,0,1,246,69.87Z"/><path class="cls-4" d="M37,68.86l3.84-.07c2.62.78,1.44,2.53.92,4-1.4,3.85-3.39,7.43-5.05,11.16-1,2.14-.77,4.42-.73,6.69-.91,1.51-2.28,2.81-2.23,4.79a61.82,61.82,0,0,1-1.55,13.55c0,.55,0,1.1,0,1.65a58.33,58.33,0,0,1,0,10.86c.27,4.62,1.67,9.11,1.54,13.78-.11,1.54,1,2.47,1.74,3.57-1.07,3.33,1.72,5.72,2,8.71,0,2.1,1.54,3.63,2,5.58.38,1.72.9,3.35-1.6,3.79-2.16-.71-3.5-2.41-4.91-4-9.27-26.56-8.11-52.92,1.5-79.12A42.41,42.41,0,0,1,37,68.86Z"/><path class="cls-5" d="M34.94,83.7c1.08-5.32,3.84-10,5.91-14.9,21.41-38.89,54.52-60,98.66-60.56C185.57,7.68,220,29.12,242,69.82l5.76,14.33c-1.93,2.62-5,1.1-7.41,2.07-1.57-.74-3,.69-4.58.25-1.95-1.56-3.52,1.15-5.39.48A71.59,71.59,0,0,0,219,86.35q-83.07,0-166.14,0c-1.84-.09-3.69,0-5.54,0a17.63,17.63,0,0,0-4.41-.2c-1.45-.68-2.92.6-4.37-.06C37,85.85,35.54,85.38,34.94,83.7Z"/><path class="cls-5" d="M37.91,156.88l-2.83-9.18c2.13-3.23,5.73-2.38,8.53-2.4,6.54-.07,13.05.16,19.57-.74a20.79,20.79,0,0,1,6.93.34c2.64,1.87,3.78,4.9,5.44,7.47,4.06,6.31,9.09,11.8,13.8,17.57,7.59,4.37,14.38,10.09,22.78,13.13,25.78,9.33,50.2,7.07,73.14-8.3,2.47-1.65,5-3.18,7.4-5,7.65-7.44,12.53-17.17,20.2-24.65,9.39-1.14,18.73-.25,28.05.95,2,.67,4.57-.75,6.07,1.69-.66,4.72-3.11,8.79-4.85,13.12-18.17,35.06-47,55.41-85.86,61.16-46.55,6.88-93.1-17.18-115.08-59C40.1,161,39,158.94,37.91,156.88Z"/><path class="cls-6" d="M30.25,109.17l1.59-14.36c1.59-.07,2.25-2,3.93-2,2.4,1.3,5,.94,7.55.84a32.45,32.45,0,0,1,7.37.16,97.76,97.76,0,0,1,11.44-.51q82.22,0,164.44,0a80.89,80.89,0,0,1,9.48.29c2.05-.2,4.14.44,6.18-.24,2.74-1.39,5.28,1.13,8,.4,1.07,9.41,4.47,18.64,2.06,28.31a2.05,2.05,0,0,1-1.54-1c-1.69-2.72-.92-6.69-3.38-8.68s-5.76-.51-8.68-.54c-23.17-.26-46.35.4-69.52.2-10.32-.09-20.71.82-31-.11-34.4-3.13-68.84-.85-103.25-1.61C33.28,110.31,31.56,110.53,30.25,109.17Z"/><path class="cls-5" d="M252.27,122.11l-2.06,15.7-.7-.05c-1.87-1.6-4-1-6.07-.67-1,.19-2,.76-3.09.47a9.56,9.56,0,0,0-3.43-.59,135.1,135.1,0,0,1-16.24.31c-1.61,0-3.33.12-4.64-1.2-2.45-5.46.49-10.28,1.84-15.28,2.88-2.26,6.21-1.16,9.38-1.22,1.84,0,3.69,0,5.53.14,1.5,0,3,.15,4.48.19,2.36,0,4.68-.81,7.08-.52,2.74.1,5.61-.21,7.57,2.36Z"/><path class="cls-7" d="M250.21,93.81c-1.56,3.75-4.69,1.79-7.23,2-3.85-3.07-6.71-6.73-7-11.9h4c4.64,1.49,7.68,4.72,9.8,9Z"/><path class="cls-8" d="M249.81,92.85a38.49,38.49,0,0,1-9.8-9,23.38,23.38,0,0,1,7.8.26Z"/><path class="cls-9" d="M247,147.79l-6-.1-.47-.53a1.69,1.69,0,0,1,.22-1.33c1.88-.93,2.66-2.71,3.72-4.39s1.91-4.86,5.31-3.52l.43-.11C249.17,141.15,248.75,144.69,247,147.79Z"/><path class="cls-5" d="M31.78,135.89a73.89,73.89,0,0,1-1.71-14.17,5.13,5.13,0,0,1,5.43-1.81,22.33,22.33,0,0,0,3.49,0c1.43-.17,2.91.09,4.3-.5,2.67-1.31,5.14,1,7.78.4,1.83-.21,3.67-.4,5.51-.47,2.54.22,5.24-.56,7.48,1.33,1.57,5,4.76,9.9,1.71,15.45-5.27,2.22-10.69,1.06-16.06.66a19.89,19.89,0,0,0-5.75,0,18.59,18.59,0,0,0-4.44.45c-1.4-.65-2.74-.12-4.08.22C34.12,137.2,33.19,136,31.78,135.89Z"/><path class="cls-10" d="M251.91,121.75l-7.91-.06c-1.57-1.76-1.38-3.9-1.37-6,0-2.48-.83-4.15-3.76-3.66-1.56.1-2.92,1.77-4.63.54-2.54-1.38-5.31.39-7.88-.58-33.07.88-66.14.33-99.21.32-23.88,0-47.77.72-71.65-.44-.62,0-1.2.5-1.81.76-3,1.08-5.85-1.44-8.87-.51a7.68,7.68,0,0,1-2.59,0c-1.13-.08-2.25-.28-3.39-.29-.87,0-1.73,0-2.59-.13-2.21.16-4.58.79-5.91-1.86a3.16,3.16,0,0,1-.08-.68q50.66-.08,101.32-.15,55.65,0,111.3.19c9.75,0,9.75.22,9.3,10.06C252.13,120.1,252,120.92,251.91,121.75Z"/><path class="cls-11" d="M241,146.94l0,.75-29,.38a17.33,17.33,0,0,1-9.4,2.29L80,150.33c-3.18,0-6.4.07-9-2.23l-35.88-.4a27,27,0,0,1-2.31-8.81c2-2.4,3.16.21,4.56.84,3.36,1.52,5.18,6.21,10,4.79,1.86,1.22,3.26-1.2,5-.67a8.67,8.67,0,0,0,6.33.52q76-.09,152,0c6.33,0,12.66,0,19-.41,2.73,1.19,5.71.34,8.51,1C239.47,145.07,240.64,145.43,241,146.94Z"/><path class="cls-12" d="M30.32,109.85l6.85.25c.82,4,1.36,7.94-1.16,11.59l-5.95,0C30,117.76,29.43,113.79,30.32,109.85Z"/><path class="cls-13" d="M35,95.78c-1.23.21-2.41.28-3.2-1l1.35-5A18.78,18.78,0,0,1,39,83.91h4c1.25,3.58-.81,8.33-4.17,10.19C37.61,94.8,36.16,94.9,35,95.78Z"/><path class="cls-14" d="M47,146.73c-4,.64-6.2-2.35-8.9-4.38-1.7-1.27-3.57-2.31-5.37-3.46l-1-3c.84-1.24,2.07-1,3.29-.87,4.3,2,7.39,5.55,11.09,8.32C47.21,144.13,48.07,145.26,47,146.73Z"/><path class="cls-15" d="M39,83.91c-.74,3.16-3.19,4.64-5.83,5.93l1.76-6.14Z"/><path class="cls-16" d="M237,95.79c-1,.07-2,.2-3,.2H53c-1,0-2-.13-3-.2-3.1-4.13-2.31-8.87,2-11.89,2.16-.07,4.31-.2,6.47-.21q82.79,0,165.57,0c2.32,0,4.65.13,7,.2,2.52,1.16,4.89,2.5,6.43,4.93S239.88,93.64,237,95.79Z"/><path class="cls-17" d="M52,83.9,50,95.79H43c-2.63-3.54-1-8.31,4-11.89Z"/><path class="cls-18" d="M237,95.79c.17-5.05-3-8.44-6-11.88h5c3.07,3.53,5.77,7.28,7,11.9Z"/><path class="cls-19" d="M47,83.9c-1.94,3.76-3.86,7.52-4,11.89H35c3.65-3.29,6.65-7,8-11.86Z"/><path class="cls-20" d="M71,148.1l141,0c-4.93,8.44-10.05,16.72-18,22.8q-53-1.27-106,0C80.6,164.55,74.47,157.3,71,148.1Z"/><path class="cls-21" d="M88,170.86c2.13-2.57,5.05-3,8.12-3H185.9c3.07,0,6,.43,8.12,3-12.12,11.64-26.81,18-43.28,19.76-21.51,2.25-41.41-2.49-58.7-16.11C90.62,173.39,89.33,172.09,88,170.86Z"/><path class="cls-16" d="M230,146.82q-52.1.12-104.2.22c-22.6,0-45.2-.13-67.8-.2-4.21-2.33-7.75-5.74-12.42-7.41-1.4-.5-3.87-1.71-2.54-4.42l22-.34c1.82-1.87,4.12-2.32,6.62-2.32q69.39,0,138.79,0c2.5,0,4.79.45,6.62,2.32l21,.34c2.61,2.07,2.24,3.33-.38,5.58S232.44,144.63,230,146.82Z"/><path class="cls-22" d="M53.06,110.13H226.95c4.19,4.39,4.49,7.68,1,11.55l-9,.33c-1.82,1.87-4.12,2.33-6.61,2.33q-71.4,0-142.79,0c-2.5,0-4.8-.45-6.61-2.33l-7-.33C52.14,119.18,50.74,113.65,53.06,110.13Z"/><path class="cls-23" d="M63,122q48.85-.08,97.7-.15c19.44,0,38.88.1,58.32.15l-2,12.67c-23.92.05-47.85.15-71.77.15q-40.12,0-80.25-.15Z"/><path class="cls-24" d="M239.92,110.15c5.07.52,6.32,2,5.45,6.85a43.92,43.92,0,0,1-1.37,4.68h-7C234.52,118.38,235.51,114.49,239.92,110.15Z"/><path class="cls-25" d="M230,146.82a10.93,10.93,0,0,1,4.7-6.67c1.89-1.24,3.2-2.78,3.29-5.14h3c4.1,2.32,4.36,2.94,1.35,6-1.72,1.77-2.56,4.11-4.39,5.73Z"/><path class="cls-26" d="M228,121.68l-1-11.55h8c2,3.09,1.13,8-1.93,11.54Z"/><path class="cls-17" d="M233,121.68c-.14-4,0-7.9,1.93-11.54l5,0c.1,4.12-2,7.67-2.93,11.53Z"/><path class="cls-27" d="M238,146.79a8.76,8.76,0,0,1,2.67-6.12A3.83,3.83,0,0,0,241,135h3c3.56,1,4,2.88,1.63,5.69-1.64,2-2.52,4.52-4.68,6.1l.07.14Z"/><path class="cls-28" d="M241,146.8a15.91,15.91,0,0,1,3-5.56A4.59,4.59,0,0,0,244,135c2.14.55,6-2.29,5.77,2.92C245.83,139.87,245.85,145.77,241,146.8Z"/><path class="cls-26" d="M53.06,110.13c2.08,3.57,1.62,7.78,2.91,11.55H51c-2.54-2.21-5.09-4.31-6.56-7.58-.67-1.49-1.18-2.54-.29-3.95Z"/><path class="cls-17" d="M43,135a9.8,9.8,0,0,0,5.7,3.73,12.3,12.3,0,0,1,9.27,8.1l-6-.08c-4.6-1.92-8.28-5.12-11.83-8.49-.88-.83-2.31-1.64-1.13-3.26Z"/><path class="cls-29" d="M44.17,110.15c1.77,4.15,6.52,6.52,6.84,11.53h-8c-2.81-3.61-3.18-8.12-.94-11.52Z"/><path class="cls-30" d="M39,135c3.26,5.08,9.39,7,13,11.75l-5,0c-3.44-4.47-8.76-7-12-11.71Z"/><path class="cls-30" d="M42.11,110.15c-.3,3.89,1.59,7.6.94,11.52H39c-3.07-3.88-1.85-7.71.16-11.52Z"/><path class="cls-31" d="M39.18,110.16,39,121.68H36c0-3.9-.36-7.84,1.15-11.59Z"/></g></g></g></svg>