<svg xmlns="http://www.w3.org/2000/svg" viewBox="0 0 319.65 319.64"><title>git</title><g id="Layer_2" data-name="Layer 2"><g id="prog"><g id="git"><path d="M171.91,119.32c.6.71,1.16,1.47,1.82,2.12Q188.5,136.25,203.32,151a2.21,2.21,0,0,1,.62,2.7A24.45,24.45,0,1,0,220.56,138a2.13,2.13,0,0,1-2.44-.57q-16.54-16.65-33.18-33.2a2.56,2.56,0,0,1-.79-2.84c2.22-9.06.3-17.18-6.38-23.76S163,69.12,153.93,71.48a1.93,1.93,0,0,1-2.14-.6Q134.42,53.44,117,36.05c-.82-.81-.82-1.22,0-2,9.19-9.13,18.32-18.33,27.51-27.46,8.81-8.75,21.29-8.76,30.08,0Q229,61,283.35,115.36q15,15,30,30.06c8.41,8.45,8.33,21.14-.13,29.61L175.34,312.94c-8.93,8.93-21.4,8.93-30.3,0L19.94,187.89q-6.64-6.64-13.29-13.27c-8.78-8.79-8.92-21.28-.13-30.09q47-47.17,94.18-94.26c.92-.92,1.35-.77,2.18.06q17,17.1,34.11,34.13a1.88,1.88,0,0,1,.55,2.28A24.35,24.35,0,0,0,150,117a2,2,0,0,1,1.34,2.08q-.06,42.41,0,84.82A2,2,0,0,1,150,206a24.37,24.37,0,0,0-13.5,26.45,24.48,24.48,0,0,0,47.28,3.46,24.39,24.39,0,0,0-11-29.08,2.25,2.25,0,0,1-1.35-2.28q0-41.83,0-83.67v-1.26Z"/></g></g></g></svg>