<svg xmlns="http://www.w3.org/2000/svg" viewBox="0 0 520.77 507.71"><defs><style>.cls-1{fill:#1b1b1b;}</style></defs><title>ilustrator</title><g id="Layer_2" data-name="Layer 2"><g id="prog"><g id="illustrator"><path d="M377.78,178.3c1.43,1.92,1.16,4.16,1.16,6.33q0,84.46-.06,168.93l-1.12,1c-10.89,0-21.78,0-32.66-.06-2.14,0-4.55.28-5.13-2.74q0-35.88,0-71.76a6.71,6.71,0,0,1-2.07-5.17c.11-27.67-.12-55.34.14-83A29.64,29.64,0,0,1,340,182c.19-3.45,2.61-3.66,5.23-3.67Q361.49,178.35,377.78,178.3Z"/><path d="M358.51,109.25c3.6.44,7.25.66,10.64,2.08,12.39,5.19,16.7,22.77,8.4,34.18-.77,1.06-1.63,2-2.45,3.06-1.84,4.07-5.14,6-9.44,6.72-3.89.64-7.79,1.32-11.67.54-1.85-.37-4.76-.19-4.3-3.61-9.92-6.33-13.74-14.39-11.83-24.93C339.74,116.93,345.48,111.91,358.51,109.25Z"/><path class="cls-1" d="M125.66,354.47l34.87.13A168,168,0,0,1,125.66,354.47Z"/><path d="M306.54,347.66q-5.2-18.06-10.35-36.13a5.32,5.32,0,0,0,.73-4.6c-4.28-14.84-8.63-29.65-13.18-44.41-.56-1.8-1.18-3.66-3.28-4.33-4.52-13.59-8.51-27.33-12.12-41.19l-8.6-28.06a6.27,6.27,0,0,0,1.11-4.64,7.25,7.25,0,0,1-1.44-3c-1.75-9.53-5-18.66-7.76-27.9a4.43,4.43,0,0,1-1.23-2.68c-2.32-11.18-6-22-9.37-32.87-.84-2.69-2.36-4.55-5.45-4.53-9.43.07-18.88-.51-28.31.33a123.53,123.53,0,0,0-14.86-.35c-4.32.16-5.75,1.49-5.87,5.81a85.22,85.22,0,0,1-3.72,21.43c-1.53,5.3-3.28,10.54-4.54,15.93.06,1.36-.62,2.51-1,3.75-4.34,14.25-8.19,28.63-12.45,42.9-2.15,6.39-4.35,12.77-5.34,19.48-1.36,2,1.59,3.84.34,5.88a82.67,82.67,0,0,1-4.32,15c-2.72,11.44-6,22.73-9.64,33.9q-6.49,25.12-14.2,49.89c-1.92,7-3.85,13.92-5.74,20.9-.56,2.06-1.47,4.15-.3,6.31,11.62.69,23.25.43,34.87.13,3.15-2.92,2.49-7.34,4.26-10.8,2.19-1.27,3-3.37,3.69-5.67,3.78-13.31,7.09-26.75,10.7-40.11,1.76-6.5,3.39-7.87,10.09-7.91q24.91-.15,49.82,0c6.63,0,8.49,1.54,10.24,7.85l7.09,25.69c.76,2.74,1.73,5.25,4,7.12,2.24,7.84,4.18,15.78,7.15,23.4,11.36.82,22.73.22,34.09.34C308.1,354.58,308.38,354.06,306.54,347.66Zm-71-95.59q-21.39,0-42.78,0c-2.93,0-4-1.22-3.18-4.08,2.09-7.42,4.14-14.85,6.2-22.28,4.5-18.24,9-36.46,13.49-54.72,1.51-6.19,2.75-12.44,4.2-19.08.62.72,1,1,1.13,1.34q7.54,29.87,15,59.75a18.41,18.41,0,0,1,.28,2.16h0c3,11,5.88,21.91,8.87,32.85C239.58,251,238.34,252.07,235.53,252.07Z"/><path d="M520.77,507.71H0V0H520.77ZM21.49,485.9H499V21.44h-5.47l-466.18,0c-5.86,0-5.87,0-5.87,6q0,226.52,0,453C21.49,482.19,21.49,483.9,21.49,485.9Z"/></g></g></g></svg>