<svg xmlns="http://www.w3.org/2000/svg" viewBox="0 0 305.13 262.7"><defs><style>.cls-1{fill:#717171;}.cls-2{fill:#d7d7d7;}.cls-3{fill:#9c9c9c;}.cls-4{fill:#878787;}.cls-5{fill:#8c8c8c;}.cls-6{fill:#9e9e9e;}.cls-7{fill:#8f8f8f;}.cls-8{fill:#929292;}.cls-9{fill:#989898;}.cls-10{fill:#bdbdbd;}.cls-11{fill:#969696;}.cls-12{fill:#959595;}.cls-13{fill:#8e8e8e;}.cls-14{fill:#848484;}.cls-15{fill:#a3a3a3;}.cls-16{fill:#b4b4b4;}.cls-17{fill:#999;}.cls-18{fill:#a7a7a7;}.cls-19{fill:#b3b3b3;}.cls-20{fill:#7e7e7e;}.cls-21{fill:#979797;}.cls-22{fill:#939393;}.cls-23{fill:#bcbcbc;}.cls-24{fill:#d4d4d4;}.cls-25{fill:#b8b8b8;}.cls-26{fill:#cfcfcf;}.cls-27{fill:#737373;}.cls-28{fill:#787878;}.cls-29{fill:#797979;}.cls-30{fill:#7f7f7f;}.cls-31{fill:#7b7b7b;}.cls-32{fill:#727272;}.cls-33{fill:#7d7d7d;}.cls-34{fill:#6d6d6d;}.cls-35{fill:#747474;}.cls-36{fill:#838383;}.cls-37{fill:#858585;}.cls-38{fill:#9f9f9f;}.cls-39{fill:#8b8b8b;}.cls-40{fill:#c9c9c9;}.cls-41{fill:gray;}.cls-42{fill:#949494;}.cls-43{fill:#a1a1a1;}.cls-44{fill:#a9a9a9;}.cls-45{fill:#b5b5b5;}.cls-46{fill:silver;}.cls-47{fill:#c7c7c7;}.cls-48{fill:#acacac;}.cls-49{fill:#b6b6b6;}.cls-50{fill:#ececec;}.cls-51{fill:#6c6c6c;}.cls-52{fill:#656565;}.cls-53{fill:#898989;}.cls-54{fill:#676767;}.cls-55{fill:#b2b2b2;}.cls-56{fill:#8a8a8a;}.cls-57{fill:#9d9d9d;}.cls-58{fill:#a5a5a5;}.cls-59{fill:#a6a6a6;}.cls-60{fill:#a0a0a0;}.cls-61{fill:#a4a4a4;}.cls-62{fill:#8d8d8d;}.cls-63{fill:#757575;}.cls-64{fill:#b7b7b7;}.cls-65{fill:#767676;}.cls-66{fill:#696969;}.cls-67{fill:#dbdbdb;}.cls-68{fill:#dedede;}.cls-69{fill:#afafaf;}.cls-70{fill:#7a7a7a;}.cls-71{fill:#818181;}.cls-72{fill:#828282;}.cls-73{fill:#606060;}.cls-74{fill:#aaa;}.cls-75{fill:#909090;}.cls-76{fill:#888;}.cls-77{fill:#adadad;}</style></defs><title>monodevelop</title><g id="Layer_2" data-name="Layer 2"><g id="prog"><g id="monodevelop"><path class="cls-1" d="M305.1,140.26c.19,14.94-1.7,30.06-7.91,44.34-14.14,32.55-37.9,54.82-71.88,65.48-22.61,7.09-45,5.25-66.93-3.57a121.18,121.18,0,0,1-29.72-17.33,2.52,2.52,0,0,0-2.93-.33Q95.61,241.45,65.47,254c-6.73,2.81-13.47,5.59-20.19,8.42-1,.41-1.61.51-2.16-.67C33,239.84,22.43,218.09,14.24,195.33,8.24,178.66,3.46,161.67,1.49,144c-1.94-17.31-2.63-34.71,2-51.69,9.43-34.52,31-59.05,63.12-74.32a96.11,96.11,0,0,1,42.9-9.19C127.43,9,144,14.2,159.6,22.73a128.55,128.55,0,0,1,17.07,11.18,2.46,2.46,0,0,0,2.8.36q35.3-14.72,70.62-29.38c3.74-1.56,7.5-3.08,11.22-4.67,1-.44,1.52-.24,2,.81,7.58,18.61,16.23,36.77,23.49,55.52,7.06,18.22,13.07,36.75,16.16,56.11q.87,5.44,1.43,10.92A133.58,133.58,0,0,1,305.1,140.26Z"/><path class="cls-2" d="M176.41,44.4H177c5-1.47,9.63-3.76,14.41-5.72,9.2-3.76,18.36-7.64,27.55-11.45,7.45-3.09,14.91-6.17,22.35-9.3,5.11-2.15,10.3-4.12,15.36-6.41a1.18,1.18,0,0,1,1.79.75c2.86,6.9,6,13.67,8.87,20.57a2.74,2.74,0,0,1,.27,1.15c-.19,1.41-1.16,1.86-2.43,2a18.41,18.41,0,0,1-6,.22c-1.15.09-1.2-.94-1.49-1.6Q255.8,30.5,254,26.35c-1-2.3-1.64-2.54-4-1.56q-29.52,12.16-59,24.41c-2.45,1-4.84,2.16-7.34,3-5.76,2-11.14,1.7-16.16-2.33a104.81,104.81,0,0,0-39-20.13A75.29,75.29,0,0,0,105,27.16a85.77,85.77,0,0,0-40.39,12.7A108,108,0,0,0,48.28,52.29c-.78.71-2,1.08-2.08,2.44-1.4.82-2.35,2.18-3.65,3.08-.65.45.06,1.27-.68,1.53a10.15,10.15,0,0,0-1.64,1.43c-.3.33-.6.76-1.17.49a1.1,1.1,0,0,0-1-.3c-2.39,1-4.93.2-7.35.69a1.79,1.79,0,0,1-2-1.12c-.45-.54,0-1,.26-1.32A116,116,0,0,1,43.23,43.74,106.18,106.18,0,0,1,63.4,29.39a99.53,99.53,0,0,1,19.14-8,87.1,87.1,0,0,1,22.13-3.73A90.33,90.33,0,0,1,133,21.09a112.34,112.34,0,0,1,20.56,8.24,134,134,0,0,1,20.88,13.78C175.08,43.6,175.77,44,176.41,44.4Z"/><path class="cls-3" d="M218.19,243.47a87.72,87.72,0,0,1-43.15-.3c-4.75-1.74-9.63-3.11-14.27-5.14a1.85,1.85,0,0,1-1-.57c-.9-1.78-.68-2.2,1.31-2.21,5.28,0,10.57-.12,15.85.05,2.62.09,5.22.73,7.85.86,1.7.08,3.31-1,5.07-.51.43.08.86.15,1.29.2a36.55,36.55,0,0,0,7.62,1.25,48.93,48.93,0,0,0,8.58-.25,82.59,82.59,0,0,1,14.11-.11c2.48.18,5,0,7.44.13.68,0,1.56-.22,1.81.83s-.61,1.21-1.3,1.58c-3,1.63-6.44,2.31-9.65,3.48A10.54,10.54,0,0,0,218.19,243.47Z"/><path class="cls-4" d="M286.24,186.44A112.45,112.45,0,0,1,269,211.64a5.55,5.55,0,0,0-1.54,2.61,2.1,2.1,0,0,1-.52,1,89.49,89.49,0,0,1-19,15.32c-.63-.17-.81-.51-.52-1.13a3.9,3.9,0,0,1,1.42-1.5c3.12-2.2,6.2-4.46,9.1-7a8.73,8.73,0,0,0,.74-.63c.39-.42,1-.78.74-1.47s-.92-.49-1.44-.49a39.87,39.87,0,0,0-6.44.21c-.69.12-1.42.25-1.81-.6s.2-1.1.6-1.28a1.91,1.91,0,0,0,1.26-1.54c1.31-.78,2.35-1.95,3.81-2.52.66-.26.61-1,.83-1.56,1.27-.62,2-1.87,3.31-2.52.47-.24.33-1,.67-1.39a14.61,14.61,0,0,0,3-2.61c.7-.29.63-1,.75-1.54a29.14,29.14,0,0,0,4.25-4.94,25.94,25.94,0,0,1,1.73-2c1.59-2.55,3.11-5.16,4.89-7.59a9.39,9.39,0,0,1,1.24-2.36c.3-.5.65-.83,1.27-.53a22.12,22.12,0,0,0,7,.14A1.85,1.85,0,0,1,286.24,186.44Z"/><path class="cls-5" d="M29.8,209.46c-2.95-7.89-6.28-15.63-8.91-23.63-.29-.87-.54-1.75-.81-2.63.27-.75.91-.79,1.56-.8a28.81,28.81,0,0,0,6.46-.94,2.57,2.57,0,0,1,.53,0c.82.24.91,1,1.11,1.64,1.31,4.25,3.12,8.33,4.23,12.65.06.24.25.32.33.5a34.5,34.5,0,0,1,2.56,6.53c.14.94,1,1.4,1.41,2.17-.42,1.53.88,2.37,1.43,3.51-.43,1.7,1.08,2.61,1.63,3.9a1.94,1.94,0,0,0,.34,1.71,11.26,11.26,0,0,1,1.86,4.18c-.15.69.8,1.18.34,1.93a1.75,1.75,0,0,1-2.09,0c-2.51-1.45-5.19-1.25-7.89-.86-1.09-.5-1-1.68-1.49-2.55-.92-1.76-1.58-3.63-2.34-5.46A4.15,4.15,0,0,1,29.8,209.46Z"/><path class="cls-6" d="M65.47,244.85l-16.31,7a1.21,1.21,0,0,1-1.82-.7q-1.79-4-3.6-7.92a3,3,0,0,0-.57-2.5c-1-1.8-1.75-3.68-2.54-5.54s-.14-2.79,2-2.81c2.32,0,4.68-.29,6.59,1.52.33.31.83.15,1.24.23.89.67,1.09,1.77,1.58,2.68,1.17,2.17,1.51,2.29,3.79,1.47,1.18-.43,2.27-1.22,3.63-1.1a1.45,1.45,0,0,0,1.75.51,15,15,0,0,1,3.29-.3c4.09,0,8.11-.91,12.2-.8.38,0,.75,0,1.13,0,1.61.12,1.78.43,1.12,2a3.23,3.23,0,0,1-1.52,1c-3.5,1.57-7.12,2.87-10.59,4.54A7.9,7.9,0,0,0,65.47,244.85Z"/><path class="cls-7" d="M152.35,234.45a85.48,85.48,0,0,1-13.86-8.33,77,77,0,0,1-9.48-7.57c-1.88-.16-3.36,1-5,1.59-2.28.87-4.51,1.84-6.77,2.76-.41.17-.76.39-1.2.16-.19-1.44-1.17-1.74-2.42-1.76a81.84,81.84,0,0,0-12,.52c-.79.11-1.8.46-1.94-.91a1.13,1.13,0,0,1,.72-1.28,20.1,20.1,0,0,1,2.06-.92c1.71-.65,3.57-1,5-2.31a63.38,63.38,0,0,0,7.2-2.8,18.14,18.14,0,0,1,3.75-1.27c.32,0,.88-.07,1-.58.16-.77.81-.75,1.35-.91,2-.57,3.93-1.45,6.09-1.56a17.92,17.92,0,0,1,8.34,1.57,38.35,38.35,0,0,0,3.12,2.44,5.36,5.36,0,0,1,2.06,1.43c.07.25,0,.61.29.72,2.41,1.07,4.15,3.24,6.74,4,1,.37.76,1.3.92,2-.16.87-.79.69-1.39.62a82.25,82.25,0,0,0-8.42-.15c-.46,0-1.09-.14-1.26.45s.36.75.7,1a90.2,90.2,0,0,0,8.13,5.47c1.64,1.1,3.35,2.07,5.05,3,.79.45,1.82.79,1.73,2A.53.53,0,0,1,152.35,234.45Z"/><path class="cls-8" d="M250.27,217.89a58.62,58.62,0,0,1,9.37-.3c.69,0,1.53-.06,1.84.72s-.56,1.17-1,1.62a95.58,95.58,0,0,1-10.77,8.52,3.55,3.55,0,0,0-1.65,2.11,69.37,69.37,0,0,1-15.57,8.12c-.81-.26-.79-.73-.3-1.27a5.34,5.34,0,0,1,1.63-1c2.54-1.31,5.15-2.49,7.59-4,.36-.22.92-.39.84-.87-.11-.64-.76-.49-1.21-.49-4,0-8-.75-11.88.52-.61.2-1.45.33-1.66-.71.23-.88.51-1.71,1.65-1.69,2.41-.71,4.61-2,7-2.78a.85.85,0,0,0,.59-.7c.05-.8.63-1,1.27-1.15,2.16-.69,4-2,6.06-2.94.67-.31.38-1.3,1.13-1.52a13.09,13.09,0,0,0,3.43-2.1C249.13,217.55,249.68,217.25,250.27,217.89Z"/><path class="cls-9" d="M227.9,230.86c5-1.49,10.16-.58,15.24-.63.56,0,1.33-.15,1.51.6s-.57,1-1,1.26c-3,1.86-6.12,3.4-9.25,4.95a3.26,3.26,0,0,0-1.91,1.64,71.29,71.29,0,0,1-14.25,4.79,6.67,6.67,0,0,1,3-1.55,64.54,64.54,0,0,0,7.41-2.79c.42-.2,1.08-.39,1-.93-.11-.72-.86-.52-1.35-.51-6.47,0-12.95-.79-19.39-.27-5.24.42-10.45-.17-15.67,0a2.93,2.93,0,0,1-2.24-.75c.1-1,.93-.76,1.5-.78,2.1-.07,4.2,0,6.31,0a83,83,0,0,0,19.4-2.53,58.84,58.84,0,0,0,8-2.52C226.67,230.65,227.35,230.1,227.9,230.86Z"/><path class="cls-10" d="M176.41,44.4a8.19,8.19,0,0,1-3.4-1.8,116.75,116.75,0,0,0-36.93-20.16,89.66,89.66,0,0,0-23.68-4.32C92.59,17.17,74.63,22.77,58,33.21A106.94,106.94,0,0,0,30.11,58.83c-.36.47-.64,1-1,1.49,0,1.63-.77,2.64-2.07,2.66-.56-.38-.12-.95-.27-1.41a71.76,71.76,0,0,1,8.33-10.52C49.26,35.69,66.21,24.88,86.57,19.81c20.86-5.19,41-2.78,60.55,6a124.31,124.31,0,0,1,28,17.43C175.54,43.59,176,44,176.41,44.4Z"/><path class="cls-11" d="M28.19,181.89c-1.87,1.34-4.06,1.18-6.18,1.3-.64,0-1.29,0-1.93,0l-1.63-4.85c-1.56-2-1.68-4.51-2.41-6.8-.59-1.87-1.37-3.71-1.23-5.74a2.86,2.86,0,0,1,2.09-.61,42.16,42.16,0,0,0,6.35-.7c.85-.29,1,.36,1.17.91,1.19,4.58,2.55,9.12,3.81,13.68A3.31,3.31,0,0,1,28.19,181.89Z"/><path class="cls-12" d="M50.23,235.08a11.82,11.82,0,0,0-7.52-2c-1.63.19-2,.55-1.37,2,.77,1.9,1.64,3.75,2.49,5.62.37.82.64,1.62-.08,2.4a78,78,0,0,1-3.89-8.43,2.44,2.44,0,0,0-.19-1.65c-1.75-3.47-3.15-7.1-4.84-10.61-.36-.85-.73-1.69-1-2.55-.18-.5-.27-.8.23-1.08a8.92,8.92,0,0,1,7,0c.8.3,1.58.66,2.37,1,1.14,0,1.26,1.14,1.95,1.64,0,1.83,1.24,3.06,2,4.52a2.44,2.44,0,0,0,.58,2.18c1,1.54,1.7,3.24,2.53,4.86C50.06,233.68,51.5,234.56,50.23,235.08Z"/><path class="cls-10" d="M267.13,33.74c-2.92-6.74-5.88-13.46-8.74-20.22-.61-1.44-1.31-1.67-2.72-1.09q-37.46,15.6-75,31.14a8.14,8.14,0,0,1-3.75.85c4.86-2.36,9.92-4.27,14.9-6.35q31.71-13.23,63.46-26.36a10,10,0,0,0,1-.44c1.32-.73,2-.26,2.57,1.06,4.53,10.52,9.13,21,13.67,31.52,2.57,6,5,12,7.2,18.06a.94.94,0,0,1-.61,1.15c-.86.21-.9-.55-1.19-1-.52-.83-.42-1.88-1-2.7A33.07,33.07,0,0,1,274.77,54c-2.28-5.66-4.62-11.29-7.07-16.88A6.9,6.9,0,0,1,267.13,33.74Z"/><path class="cls-13" d="M286.24,186.44a41.31,41.31,0,0,1-6.44.33,4.92,4.92,0,0,1-2.62-.65c-.66-.27-.72-.72-.41-1.3,1.67-3.09,2.78-6.43,4.44-9.53a18.52,18.52,0,0,1,.72-2.57A.85.85,0,0,1,283,172c2.3.95,4.64.17,7,.19.63,0,1.29-.24,1.79.38A12.6,12.6,0,0,1,289.5,179Z"/><path class="cls-14" d="M289.5,179l1.94-6.16a2.23,2.23,0,0,1-.22-2.13,87.69,87.69,0,0,0,2.66-12.13c.13-.83.73-1.6.33-2.49a103.24,103.24,0,0,0,1-12.77,3.24,3.24,0,0,1,.69-2.4c.39-.38.26-1,.27-1.56,0-1.67,0-3.35,0-5,0-.49-.24-1.12.48-1.38.66,3.43.39,6.9.26,10.33a122.72,122.72,0,0,1-2.13,20.91,97.78,97.78,0,0,1-3.47,12.47C291,177.62,290.6,178.59,289.5,179Z"/><path class="cls-14" d="M15.21,166a88.64,88.64,0,0,0,2.68,10.14c.2.73.37,1.46.55,2.19a2.7,2.7,0,0,1-1.62-1.91,200.51,200.51,0,0,1-6.46-28.59,1,1,0,0,1,1.11-.4c.75.34.79,1.14,1.11,1.75,0,.46-.33.84-.17,1.38,1.22,4.22,1.78,8.59,2.91,12.83C15.55,164.25,15.92,165.19,15.21,166Z"/><path class="cls-15" d="M8.72,118a89.82,89.82,0,0,1,4-28.11,14.91,14.91,0,0,1,1.23-3.34.73.73,0,0,1,1.1-.12c.75.43.32,1,.19,1.57a9.63,9.63,0,0,1-.91,2.57,96.2,96.2,0,0,0-3.14,16.13c-.61,2.06-.45,4.19-.62,6.29-.13,1.65.09,3.32-.12,5-.09.51-.47.67-.91.77S8.66,118.63,8.72,118Z"/><path class="cls-16" d="M14.57,86.91l-.66-.33a91.51,91.51,0,0,1,12.89-25l.4,1c.66.58.34,1.11,0,1.68-2.46,3.79-4.82,7.64-6.9,11.66a2.85,2.85,0,0,0-.41,1.34A67,67,0,0,0,16,85.93C15.8,86.49,15.76,87.64,14.57,86.91Z"/><path class="cls-8" d="M8.72,118l.65.33c1,.24,1.08,1.08,1.09,1.9,0,2.26.1,4.53,0,6.79a100.08,100.08,0,0,0,1.2,16.26c.13,1,.25,2,.34,3.05,0,.57.31,1.38-.71,1.49l-.94,0A126.19,126.19,0,0,1,8.8,133.53a123.75,123.75,0,0,1-.39-12.94A7.91,7.91,0,0,1,8.72,118Z"/><path class="cls-17" d="M296.65,132.94q0,4.24,0,8.48a2.93,2.93,0,0,1-.63,2.25c-1-.09-.78-.92-.79-1.48-.05-2.25-.14-4.51,0-6.76.09-1.3-.84-2.46-.4-3.77a129.77,129.77,0,0,0-1.53-15.84,16.56,16.56,0,0,1-.24-1.92c-.35-1.59-1.28-3.12-.45-4.82a1,1,0,0,1,1.12-.14,94.42,94.42,0,0,1,2.21,14.18A89.63,89.63,0,0,1,296.65,132.94Z"/><path class="cls-18" d="M293.74,108.94l-.66.34c-.68.43-1,.07-1.09-.56-.82-4.61-2.17-9.11-2.9-13.74a3.91,3.91,0,0,0-.6-1.28c-.94-2.85-1.49-5.81-2.41-8.67a1.29,1.29,0,0,1,0-1.22c.35-.29.68-.64,1.21-.52a169,169,0,0,1,5.78,22C293.31,106.5,293.51,107.73,293.74,108.94Z"/><path class="cls-19" d="M287.28,83.3l-.68.7c-.76.27-1-.19-1.18-.8-.58-1.82-1.12-3.64-1.74-5.45a33,33,0,0,1-1.78-5c-1-2.8-2-5.59-3-8.4-.18-.53-.93-1.29.21-1.73l.67-.69c2.61,6.17,4.75,12.51,6.74,18.9C286.81,81.64,287,82.47,287.28,83.3Z"/><path class="cls-14" d="M116.37,222.75l9.08-3.72c1.14-.46,2.29-1,3.56-.49q-8.81,3.67-17.62,7.33c-1.24.51-2.52.95-3.78,1.42a.52.52,0,0,1-.48-.59c-.18-.84.43-1.1,1-1.38,2.28-1.09,4.72-1.81,6.91-3.12C115.62,221.86,116.12,222.11,116.37,222.75Z"/><path class="cls-7" d="M107.61,226.65v.65c-5.89,2.61-11.81,5.16-17.83,7.45a.79.79,0,0,1-.49-.62c-.28-1,.61-1.12,1.18-1.38,2.28-1.08,4.67-1.94,7-2.88,2.92-1.37,5.94-2.51,8.91-3.78C107.06,225.78,107.35,226.13,107.61,226.65Z"/><path class="cls-20" d="M34,218.87l1.31,3.56c.23.63.34,1.16-.65,1-1.83-3.73-3.39-7.58-4.94-11.44a2.82,2.82,0,0,1,.07-2.5c1.13,2.61,2.25,5.23,3.4,7.84C33.43,217.84,33.74,218.35,34,218.87Z"/><path class="cls-5" d="M34.67,223.4l.65-1c1.86,3.4,3.2,7,4.86,10.53a1.53,1.53,0,0,1-.33,1.79C37.89,231.08,36.35,227.21,34.67,223.4Z"/><path class="cls-21" d="M161.11,237.67c4.13,1.55,8.26,3.09,12.37,4.66a13,13,0,0,1,1.56.84,66.14,66.14,0,0,1-13.61-4.51C161.22,238.36,160.74,238.15,161.11,237.67Z"/><path class="cls-22" d="M89.78,234.1v.64c-4.15,1.9-8.34,3.68-12.63,5.23-.3-.22-.24-.45,0-.69l1.3-.65a6.49,6.49,0,0,1,2.91-2.1c2.22-1,4.44-1.9,6.69-2.77C88.63,233.54,89.37,233.09,89.78,234.1Z"/><path class="cls-17" d="M77.14,239.29V240a123.32,123.32,0,0,1-11.68,4.87,4.6,4.6,0,0,1,2.16-1.61C70.77,241.85,73.9,240.43,77.14,239.29Z"/><path class="cls-22" d="M161.11,237.67l.32,1a44.57,44.57,0,0,1-9.08-4.21v-.67c.32-1.14,1-.68,1.62-.34,2.19,1.26,4.72,2,6.48,3.91Z"/><path class="cls-10" d="M45.34,54.16A85.17,85.17,0,0,1,61.55,40.8,87.42,87.42,0,0,1,96,27.26c16.74-2.66,32.67.16,48,7.13a114.77,114.77,0,0,1,24.33,15,13.7,13.7,0,0,0,14.85,2.13q33.58-14,67.19-27.85c.3-.12.61-.23.9-.38,1.39-.72,2.27-.39,2.89,1.13,1.27,3.1,2.67,6.14,4,9.2.26.59.59,1.15.88,1.73a5.55,5.55,0,0,1,1.82,2.41c2.06,4.86,4.26,9.67,6.16,14.6.25.66,1,1.41.07,2.15a1.81,1.81,0,0,1-1.22.32,63.83,63.83,0,0,0-8.57-.19,3.34,3.34,0,0,1-3.43-2.11c-1.09-2.35-2-4.8-3.24-7-.23-.4-.4-1.17-1.21-.77s-.93-.25-1.19-.69c-.41-.7-.65-1.48-1-2.21-1.06-2.28-1.43-2.45-3.7-1.53-5.65,2.29-11.26,4.68-16.89,7l-10.16,4.24c-2,.82-4.05,1.45-5.3,3.4a1,1,0,0,1-.77.18c-2.6-.74-5.26-.47-7.89-.48q-18.38,0-36.77,0a8,8,0,0,1-4.85-1.47,100.58,100.58,0,0,0-27.3-13.94,92.3,92.3,0,0,0-22.67-4.41C97.6,34,85.1,37,73.11,42.55a84.62,84.62,0,0,0-17,10.3,7.8,7.8,0,0,1-5.55,1.82,18.18,18.18,0,0,0-3.71.22C46.25,55,45.49,55.13,45.34,54.16Z"/><path class="cls-23" d="M45.34,54.16a48.2,48.2,0,0,1,6-.34,7.44,7.44,0,0,0,4.68-2,90.28,90.28,0,0,1,29-14.8c15-4.58,29.93-4.08,44.88.17a96,96,0,0,1,29.84,14.2,12.61,12.61,0,0,0,7.82,2.46c13.07-.11,26.14,0,39.21-.06a11.22,11.22,0,0,1,4.29.66c1.27.22,1.75,1,1.44,2.41a28.22,28.22,0,0,0-4.09,1.9,4.08,4.08,0,0,1-2.2.39H170.87a8.45,8.45,0,0,1-2.68-.51c-3.69-1.21-7.32-2.56-10.89-4.11-2.46-1.06-4.48-2.83-6.79-4.12a90.89,90.89,0,0,0-17.31-8c-2.15-.67-4.36-1.13-6.5-1.84a4.47,4.47,0,0,0-3.15-.12,4,4,0,0,1-2.22-.22A57.36,57.36,0,0,0,111.2,39c-1.54.09-2.7-1.1-4.21-1.22-1.8-.15-3.13,1.28-4.85,1.27a12.72,12.72,0,0,1-1.39,0c-1.51.37-2.84-.62-4.41-.42a63.58,63.58,0,0,0-14.09,3.53A91.29,91.29,0,0,0,62.7,52.51a48.7,48.7,0,0,1-10.35,4.92,24.06,24.06,0,0,1-9.91,1.89c-.55,0-1.21.27-1.33-.63C42.16,56.84,43.83,55.57,45.34,54.16Z"/><path class="cls-24" d="M266.8,54.16q-3.48-8.26-7-16.53c-.31-.74-.55-1.51-.83-2.27,2,.47,4.06,0,6.08-.23a2.43,2.43,0,0,0,2-1.39c3.7,8.33,7.36,16.68,10.39,25.28.18.95-.27,1.34-1.17,1.5a20.07,20.07,0,0,1-6.86,0,1.24,1.24,0,0,1-.48,0C267.83,59.87,266.3,55.47,266.8,54.16Z"/><path class="cls-25" d="M41.12,58.69a13.2,13.2,0,0,1,1.76-.27c7.26-.14,13.64-3,19.55-6.84,10.46-6.78,21.59-11.71,34-13.46,1.42-.2,2.95-.9,4.38.1.07.93-.69.83-1.21.92-2.44.45-4.88.84-7.29,1.4A76.48,76.48,0,0,0,65.1,53.24c-2,1.44-3.91,3-5.87,4.55-.26.19-.57.56-.82.44-1.18-.58-2,.28-2.69.81-2.29,1.67-4.72,3.11-7,4.73a18.23,18.23,0,0,1-5.91,2.9,4,4,0,0,0-1.48.62c-2.14,1.69-4.72,1.15-7.13,1.48-.22,0-.49-.18-.73-.31-.77-.47-.38-1-.06-1.49q2-2.92,4.28-5.63c.4-.48,1-.47,1.54-.71Z"/><path class="cls-26" d="M39.2,60.64c-1.8,2.52-3.91,4.8-5.5,7.47a1.25,1.25,0,0,1,0,1.34c-1.55,2.43-3,4.89-4.46,7.4a.74.74,0,0,1-.92.43,40.63,40.63,0,0,1-7.48.38c-.66,0-1.45.13-1.72-.79,1.82-4.64,4.63-8.71,7.25-12.9l.86-1.36,1.94-2.27c2.48.83,5,.2,7.49.18A7.22,7.22,0,0,1,39.2,60.64Z"/><path class="cls-21" d="M160.46,237.35c-2.84-.88-5.31-2.58-8.11-3.57l-6.81-4.22c-.23-.52-1-.81-.68-1.54s1.1-.54,1.7-.55a63.41,63.41,0,0,1,12.88.69c.86.16,1.61-.67,2.45-.14a3.36,3.36,0,0,1,2.05,1c1.24,1.29,3.13,1.32,4.75,1.89a90.66,90.66,0,0,0,20.36,4.64c.64.07,1.42.08.91,1.11a25.59,25.59,0,0,1-6.6-.16c-7.27-.62-14.56-.47-21.84-.47C160.75,236.07,159.85,236.12,160.46,237.35Z"/><path class="cls-13" d="M190,236.7c-1.54-.24-3.08-.49-4.63-.71a83.7,83.7,0,0,1-20.68-5.77c-.84-.35-1.72-.65-2.57-1a.64.64,0,0,1-.19-.59c1-1.07,2.07-.32,3-.06,4,1,7.92,2.24,11.93,3.16,3.34.77,6.74,1.26,10.12,1.83,4.44.74,8.91.6,13.38.7,6,.13,11.89-1,17.74-2.18,3.19-.66,6.26-1.71,9.36-2.66.53-.16,1.64-.89,2,.43l-1.62,1a126.19,126.19,0,0,1-15,4.44c-7.25,1.59-14.58,1.42-21.92,1.4Z"/><path class="cls-1" d="M37.24,205.25a6.32,6.32,0,0,1-1-2.26c0-1.2.69-1.18,1.46-.83a15.25,15.25,0,0,1,4.26,2.9,118.24,118.24,0,0,1,11.78,13.29,23.08,23.08,0,0,1,2.88,3.7c.41.83,1.36-.1,1.82.55a1.9,1.9,0,0,0,2.51.64c.38-.15.76-.4,1.21-.16a1.47,1.47,0,0,0,1.69.66,205.45,205.45,0,0,0,20.39-6.09,10.42,10.42,0,0,0,5.82-4.41,2.08,2.08,0,0,0,.51-1.48,1,1,0,0,1,.75-1.23,2.49,2.49,0,0,0,1.82-3.31c.43-.3.79-.51.82-1.21a5,5,0,0,1,2-3.87c1.13-.88,1.09-1.66-.24-2.32a29.29,29.29,0,0,1-10-8.8c-.65-.85-1.58-.19-2.07-.89a45.76,45.76,0,0,1-2.88-5c-.26-.54-.76-1.08-.35-1.77.85-.68,1.78-.43,2.67.7A31.29,31.29,0,0,0,91,191.44a15,15,0,0,0,8.3,2.64c6.8-.08,13.61,0,20.41,0,3.45,0,4-.65,4.1-4.1a17.28,17.28,0,0,0-2-8.52,38.16,38.16,0,0,1-1.71-4.53,11.11,11.11,0,0,0-4.23-5.27,21.69,21.69,0,0,1-3.2-2.31,6.41,6.41,0,0,0-3.28-1.62,3.6,3.6,0,0,1-1.57-.79c-6.43-4.92-11.74-10.77-15-18.27a6.45,6.45,0,0,1-.31-4.35c.74-.63,1.16-.06,1.55.45.94,1.23,2,2.39,2.83,3.68.12.18.36.41.3.55-.64,1.42.41,2.19,1.11,3.12,1.41,1.9,2.79,3.81,4.31,5.63,3.2,3.85,7.28,6.49,11.55,8.93,2.61,1.49,5.34,2.84,7.07,5.47.46.7,1.79.19,1.88,1.38.66,1.68,1.38,3.34,2.12,5,.3.68.61,1.29,0,2.09-.4.57.09,1.36.32,1.94,1.52,3.65,2.26,7.54,3.6,11.24a8,8,0,0,1,0,4.93c-.44,1.6-.11,2.24,1.45,2.65,4.63,1.22,8.53,3.8,12.39,6.48a93.33,93.33,0,0,0,14.61,8.27,6.45,6.45,0,0,0,3.92.57c.93-.16,2,.56,2.82-.43,2.23.34,4.12,1.56,6.18,2.35a83.63,83.63,0,0,0,23.43,5.34c13.56,1.08,25.94-2.64,37.73-8.94a14.25,14.25,0,0,1,3.3-1.65c1.51,1.27,4.05,1.34,6.19.28,4.72-2.33,8.88-5.52,13.19-8.48a28,28,0,0,1,6.4-3.42c2.26-.81,2.48-1.23,2.37-3.55a14.45,14.45,0,0,1,.85-5.87c1.58-4.27,2.55-8.73,4-13.05.32-1-.58-.93-.72-1.45.8-3,2.26-5.67,3.2-8.57.25-.78.28-1.71,1.08-2.24,1.57-.12,1.74.77,1.57,2.27a100.89,100.89,0,0,1-2.77,14.54,46.72,46.72,0,0,0-1.5,7.43A4.06,4.06,0,0,0,270,195a1.19,1.19,0,0,1,.41,1.46,54.18,54.18,0,0,1-5.53,7.12c-3.41,1.6-6.62,3.58-9.95,5.32a56.58,56.58,0,0,0-8.22,5.12,99.79,99.79,0,0,1-27.27,13.23,55.5,55.5,0,0,1-12.81,2.31,25.78,25.78,0,0,1-6.27-.08,6.08,6.08,0,0,0-1.94-.05c-5.24.7-10.41-.09-15.54-.93a79.23,79.23,0,0,1-15.36-4.36,92.78,92.78,0,0,1-10.35-4.5c-4.35-2.3-8.57-4.91-12.74-7.57a84.41,84.41,0,0,0-9.87-5.45,16.56,16.56,0,0,0-7.06-1.58c-7.94,0-15.88,0-23.82,0-3.43,0-5.8,1.18-6.91,4.61a16.81,16.81,0,0,1-5,7.78,20.28,20.28,0,0,1-7.26,3.72c-5.71,1.85-11.43,3.71-17.21,5.34-5.08,1.43-9.21.31-12.69-3.63-2.9-3.29-5.58-6.76-8.6-9.94a69.82,69.82,0,0,0-5.51-4.79A27,27,0,0,1,37.24,205.25Z"/><path class="cls-27" d="M37.24,205.25c3.84,1.52,6.57,4.46,9.32,7.35,3.31,3.48,6,7.46,9.42,10.9a10.12,10.12,0,0,0,9.48,2.92c3.7-.63,7.16-2.06,10.72-3.13a112.62,112.62,0,0,0,10.9-3.66,13.85,13.85,0,0,0,8.08-8.34c.32-.86.69-1.7,1-2.56,1.22-3.32,2.71-4.42,6.31-4.44,6.1,0,12.21,0,18.31,0a39.39,39.39,0,0,0,4.21,0c5.84-.63,10.81,1.58,15.49,4.67a178.83,178.83,0,0,0,16.77,10.13,97.85,97.85,0,0,0,19.79,7.56,67.36,67.36,0,0,0,16.81,2.19c8.64,0,17.34.34,25.82-2.3a98.77,98.77,0,0,0,25.36-12q4.73-3.13,9.43-6.29a23.35,23.35,0,0,1,8-3.71c.51-.11,1.05-.47,1,.48a10.4,10.4,0,0,1-2.6,2.92c-8.07,3.64-15.5,8.45-23.16,12.83a88.38,88.38,0,0,1-18.18,7.84,78.17,78.17,0,0,1-13.26,2.63,62.94,62.94,0,0,1-13.9.18,92.81,92.81,0,0,1-16.37-3.06,115.76,115.76,0,0,1-13.31-4.86c-8.21-3.47-15.59-8.5-23.54-12.47a23,23,0,0,0-10.57-2.62c-7.78,0-15.55,0-23.33,0-3.09,0-5.76.9-7.29,3.66-3,5.43-7.58,8.57-13.45,10.25-4.71,1.35-9.33,3-14,4.36-1.57.46-3.14.95-4.75,1.29-4.85,1-8.74-.53-11.94-4.19-2.33-2.67-4.78-5.23-7.13-7.88a28.15,28.15,0,0,0-3.91-3.63,46.36,46.36,0,0,1-4.27-3.38Z"/><path class="cls-28" d="M38.58,208.81c2.81.68,4.82,2.61,6.84,4.46,3.47,3.19,6.14,7.1,9.41,10.48,2.83,2.93,6.12,4.33,10.19,3.66a65.18,65.18,0,0,0,8.44-2.28c4.7-1.45,9.4-2.88,14-4.57a16.14,16.14,0,0,0,8-6.32,41.1,41.1,0,0,1,3-4.23,6.88,6.88,0,0,1,5.42-2.47c9.07,0,18.15-.05,27.22,0,3.08,0,5.87,1.24,8.6,2.62,5,2.52,9.56,5.69,14.44,8.35,12.87,7,26.45,11.61,41.23,12.37,12.15.63,23.56-2.05,34.59-6.9,7.45-3.28,14.2-7.77,21.08-12,3.08-1.91,6.24-3.67,9.93-4.13a29.38,29.38,0,0,1-3.9,3.89c-5.12,2.85-10.56,5.08-15.63,8-2.45,1.43-4.93,2.83-7.48,4.06a93.79,93.79,0,0,1-15.33,6,70.45,70.45,0,0,1-23.17,2.74,86.77,86.77,0,0,1-20.34-3.49,104.8,104.8,0,0,1-14.89-5.83c-5-2.4-9.88-5.09-14.9-7.48a85.32,85.32,0,0,0-10.5-4.06c-4.64-2.34-9.29-2-13.93,0a17.41,17.41,0,0,1-5.22.81c-3.35,0-6.7.09-10,0a9.07,9.07,0,0,0-7.54,3.39A23,23,0,0,1,88,222.57c-6.49,2.27-13.11,4.11-19.71,6a21.13,21.13,0,0,1-6.44.92,11.35,11.35,0,0,1-7.74-3.56c-2.68-2.58-5.07-5.45-7.74-8.05-1.93-1.88-4.15-3.39-6.13-5.19Z"/><path class="cls-29" d="M281.71,175.75c-1.21,3.59-3.07,6.89-4.53,10.37L275.24,189c-2.07.53-3.09,0-3.85-2a9.58,9.58,0,0,1-.4-4.78c.54-4.29,1.65-8.5,2-12.81a60.57,60.57,0,0,1,.72-6.54c.23-1.16-.79-1.78-.82-2.76.44-3,1-6.07,1.31-9.12a2.81,2.81,0,0,1,.61-2c1.18-.28,1.71.3,1.82,1.4a39.29,39.29,0,0,1,.36,4.19c0,4.43,0,8.85,0,13.28a25,25,0,0,0,.22,3.39c.26,1.87,1.12,3.13,3.14,3.3A1.46,1.46,0,0,1,281.71,175.75Z"/><path class="cls-30" d="M250.27,217.89c-1.61.82-2.82,2.27-4.53,2.93-3.3,1.41-6.4,3.25-9.81,4.45-4.61,1.63-9.07,3.68-13.75,5.08A84.13,84.13,0,0,1,203.4,234,82.43,82.43,0,0,1,183,232.58a114,114,0,0,1-18.76-5.5c-5.33-2-10.67-3.93-15.94-6.06a10.05,10.05,0,0,1-1.79-.86,34.51,34.51,0,0,1-6.81-4.86c-.36-1.08.4-1.07,1-1a14.49,14.49,0,0,1,4.32,1.3c5.9,3,11.76,6.07,17.82,8.72a95.42,95.42,0,0,0,20.95,6.54,78.86,78.86,0,0,0,17.24,1.55,76.24,76.24,0,0,0,20.71-3.85,118.78,118.78,0,0,0,19.44-8.69c3-1.6,5.91-3.31,9-4.67.79-.34,1.72-.94,2.29.37Z"/><path class="cls-31" d="M252.54,215.62c-3,.23-5.52,1.84-8.09,3.14-5.73,2.89-11.37,6-17.37,8.29-9.7,3.77-19.71,6.08-30.17,5.7a92.92,92.92,0,0,1-34.43-8.21c-5.87-2.6-11.65-5.39-17.49-8.05a9.35,9.35,0,0,0-5.28-1.2l-4.86-3.57c4.22-.22,7.77,1.74,11.26,3.66,7.49,4.11,15,8.12,23,11.1a93.48,93.48,0,0,0,24,5.36c13.29,1.23,25.74-1.82,37.76-7.18,5.34-2.38,10.33-5.41,15.45-8.21,3.44-1.88,6.72-4.18,10.76-4.72A23.47,23.47,0,0,1,252.54,215.62Z"/><path class="cls-32" d="M273.82,159.82c.77,2,.43,4,.3,6.07-.36,5.5-1.48,10.89-2.23,16.34,0,.27-.08.53-.11.8-.36,3.22.48,4.68,3.47,6a40.49,40.49,0,0,1-4.86,7.47c-2.76-1.2-2.79-3.44-2.45-6,.71-5.21,2.56-10.16,3.38-15.34.29-1.81.61-3.62.89-5.43a2.34,2.34,0,0,0-.49-2.13c-.66,0-.59-.52-.5-.93.48-2.13,1-4.24,1.6-6.35C273,159.86,273.17,159.42,273.82,159.82Z"/><path class="cls-32" d="M263.57,204.93a8.76,8.76,0,0,0-4.92,1.16c-1.41.66-2.78,1.38-4.17,2.07a20.1,20.1,0,0,1,10.37-4.54Z"/><path class="cls-33" d="M28.19,181.89,23.32,165c-1.14-.44-1.5-1.36-1.32-3.35a3,3,0,0,0,1.21-1.38c1.21-2.48,1.49-5.19,2-7.83.94-4.83,1.32-9.73,1.85-14.62a80.69,80.69,0,0,1,1.33-9.78c.34-1.44,1-1.77,1.94-1.28.67.35.52,1,.59,1.54.11,6.06,1,12,1.6,18.06,0,.32,0,.82-.18.92-1.52.66-1,2-.91,3,.24,3.28.07,6.54,0,9.81,0,3-.31,5.92-.19,8.89a51.17,51.17,0,0,1-.7,9.19A7.7,7.7,0,0,1,29.7,181c-.26.46-.5,1-1.18.89Z"/><path class="cls-31" d="M40.2,212.7c2.28.47,4,2,5.54,3.49q4.2,4,8.11,8.38a11.75,11.75,0,0,0,12.63,3.74A228.53,228.53,0,0,0,89.64,221a19.43,19.43,0,0,0,7.81-5.61,9.48,9.48,0,0,1,7.92-3.67c5.18.18,10.37.05,15.56.05-4.2,2.14-8.63,3.74-13,5.5a21,21,0,0,1-2.83.5,23.5,23.5,0,0,0-8.45,3c-4.71,2.75-9.93,4.17-15.13,5.56-3.88,1-7.74,2.13-11.6,3.24a24.17,24.17,0,0,1-9,1.3A14.88,14.88,0,0,1,51.56,226c-2.73-2.83-5.88-5.15-8.79-7.77Z"/><path class="cls-34" d="M58,223.4a6.79,6.79,0,0,1-3.23-2.59c-4.22-5-8.18-10.32-13-14.83a20.83,20.83,0,0,0-3.48-2.62,2.23,2.23,0,0,0-2-.37,54,54,0,0,1-2.58-6.5c1-6.12.49-12.23,0-18.35-.44-5.47-.81-10.94-.8-16.43,0-1,.09-1.89,1.46-1.7.48,0,.67.27.76.67.83,3.74,2,7.4,2.9,11.12-1.33,1.65-.39,3.41-.19,5.11.8,6.9,2.11,13.73,2.55,20.67a7.6,7.6,0,0,0,2.17,4.88C47,207.29,51.42,212.13,55,217.7c.46.72,1,.52,1.55.49,1.12,1.32,1.39,3,2,4.56C58.59,223.06,58.38,223.35,58,223.4Z"/><path class="cls-35" d="M34.27,160.51c-1.06,1.76-.57,3.68-.47,5.52.34,6.4.72,12.79,1.23,19.18a48.26,48.26,0,0,1-.05,7.89,4.86,4.86,0,0,1-1.28,3.39,147.52,147.52,0,0,1-5.19-14.59,30.64,30.64,0,0,0,1.93-11.42c.15-7.06.23-14.13.35-21.19a4.52,4.52,0,0,1,.89-3c.54,0,.75.25.83.74.68,4.18,1.6,8.31,2.4,12.47C35,160,35.06,160.51,34.27,160.51Z"/><path class="cls-36" d="M42.78,218.21c2.4.61,4.16,2.24,5.91,3.83s3.39,3.33,5.14,4.93a12.18,12.18,0,0,0,11.78,3c11.27-3.09,22.86-5.34,33.17-11.29,2.88-1.66,6-1.4,9.16-1.4-2.5,1.39-5.34,2-7.79,3.56a2.83,2.83,0,0,1-1.67,1.41c-3.76,1.55-7.45,3.25-11.26,4.66-.27.06-.55.29-.77.19-1.88-.86-3.47.17-5.14.73-3.55,1.19-7.29,1.66-10.85,2.83a28.08,28.08,0,0,1-8.34,1.59,15,15,0,0,1-8.46-2.65,54,54,0,0,1-9.27-7.78,5.48,5.48,0,0,1-1-1.94Z"/><path class="cls-17" d="M89.78,234.1c-3.91,1.2-7.5,3.19-11.35,4.54.14-.95-.4-1.27-1.22-1.27a28.26,28.26,0,0,0-4.33.14c-4,.67-8.11.58-12.17.8a4.93,4.93,0,0,1-2.05-.31c-.29-.77.26-1.08.79-1.26,1-.35,2.16-.46,2.75-1.62.11-.22.58-.18.89-.24,3.45-.94,6.65-2.56,10-3.66a6,6,0,0,0,4.43-.3c4.06-1.43,8.37-1.28,12.56-1.88a41.52,41.52,0,0,1,6.79-.25,1.29,1.29,0,0,1,1.23.57c.24.52-.1.92-.57,1.18C95.07,231.94,92.24,232.63,89.78,234.1Z"/><path class="cls-22" d="M63.52,235.73,58.66,238c-1.4.57-2.8,1.13-4.18,1.73a1.59,1.59,0,0,1-2.36-.89c-.6-1.27-1.25-2.51-1.88-3.76l-.65-1.95a1.7,1.7,0,0,1,2-.17,31,31,0,0,0,10.69,2C62.75,234.94,63.49,234.82,63.52,235.73Z"/><path class="cls-22" d="M97.56,230.53c-.15-1.11-1-.91-1.76-1-3.42-.19-6.76.61-10.15.78a61.55,61.55,0,0,0-10.19,1.77,4.56,4.56,0,0,1-2.86,0c-.16-.34,0-.71.26-.77,1.71-.35,2.93-1.54,4.3-2.46,3.56-.75,6.88-2.27,10.36-3.25,3.29-.89,6.27-2.56,9.44-3.76a18.2,18.2,0,0,1,3.19-1.12,3.79,3.79,0,0,0,1.91.08,100.15,100.15,0,0,1,12.9-.39,4,4,0,0,1,.48,0c.69.08,1.6-.06,1.92.59s-.73,1-1,1.65c-2.93,1.28-5.93,2.39-8.76,3.89-2.51.65-4.77,1.94-7.17,2.86C99.49,229.87,98.52,230.19,97.56,230.53Z"/><path class="cls-22" d="M162.08,228.92v.32a82.54,82.54,0,0,0-14.82-1c-.85,0-1.86-.1-1.72,1.28A91.29,91.29,0,0,1,136,223c-.44-.35-1.12-.7-.86-1.39s.92-.47,1.44-.46c3.75.1,7.52-.35,11.26.3.33-.79.87-.31,1.28-.16a40,40,0,0,1,4.11,2.23,9.88,9.88,0,0,0,1.64.67c1.69,1.95,4.24,2.34,6.35,3.52C161.68,228,162.19,228.23,162.08,228.92Z"/><path class="cls-37" d="M154.3,225c-2.31-.91-4.2-2.6-6.48-3.57l-1.3-1.29c4.25.53,8,2.41,11.92,4,10.56,4.34,21.35,7.84,32.8,9a76,76,0,0,0,31.43-3.57,209.7,209.7,0,0,0,19.79-8,8.1,8.1,0,0,1,3.27-.81,34.35,34.35,0,0,1-7.13,4.54c-2.36,1-4.66,2.1-7.07,2.9a144.6,144.6,0,0,1-16,4.5,81.41,81.41,0,0,1-15.41,1.84,95.72,95.72,0,0,1-15.91-1.26c-5.61-.87-11-2.57-16.49-4C163.16,228.21,158.77,226.5,154.3,225Z"/><path class="cls-4" d="M154.3,225c3.32,0,6.32,1.34,9.38,2.36a138.1,138.1,0,0,0,25.12,6.2,77.7,77.7,0,0,0,34.52-3.37c4.17-1.33,8.29-2.79,12.44-4.19a10.71,10.71,0,0,1,2.83-.67,53.94,53.94,0,0,1-9.08,4.54c-2.15,0-4.12.8-6.13,1.39a89.61,89.61,0,0,1-42.71,1.8c-5-.94-9.82-2.51-14.78-3.53-1.26-.26-2.55-.43-3.82-.64A55,55,0,0,1,154.3,225Z"/><path class="cls-38" d="M22.66,161.8l.65,3.25c-2,1-4.19.83-6.33,1-.59,0-1.19,0-1.78,0a117.35,117.35,0,0,1-3.55-16.54c.24-.2.41-.62.75-.53,2.62.7,5,0,7.45-.93.82-.09.95.52,1,1.09.58,3.57,1.26,7.11,2.06,10.63A3.38,3.38,0,0,1,22.66,161.8Z"/><path class="cls-39" d="M77.78,229.89l-5.19,2.28c-3,1.2-6,2.59-9.07,3.56a30.76,30.76,0,0,1-13.94-2.6,71,71,0,0,1-3.24-6.81c.54-1,1.2-.41,1.78-.11,2,1.07,3.92,2.42,5.88,3.63,5,3.1,10.27,2.68,15.59,1,2.31-.71,4.67-1.22,7-1.88C77.09,228.87,77.9,228.9,77.78,229.89Z"/><path class="cls-14" d="M77.78,229.89a14.64,14.64,0,0,0-5.23.85c-2,.5-4,1.05-5.95,1.54-5.42,1.32-10.34.11-14.93-2.92a28,28,0,0,0-5.33-3l-2-4.53c3.06,1.28,5.25,3.76,7.75,5.78a16,16,0,0,0,15,3.28q8.67-2.34,17.35-4.65c1-.26,2-.35,3-.52C84.44,227.46,81,228.49,77.78,229.89Z"/><path class="cls-40" d="M269.39,60c1.87,0,3.73,0,5.6-.11a3.93,3.93,0,0,0,2.53-.87,23.06,23.06,0,0,1,1.63,3.58c1.89,4.91,3.66,9.87,5.18,14.91a1.43,1.43,0,0,1-1.51,1.12c-2.28,0-4.55.51-6.84.29-.66.07-.79-.45-.94-.9-1.62-4.6-3.39-9.14-5.11-13.69.09-1.11-.76-1.87-1-2.85C268.66,60.76,268.69,60.32,269.39,60Z"/><path class="cls-41" d="M281.71,175.75c-.58-.1-1.16-.23-1.75-.29-2.57-.26-3-.66-3.46-3.16a32.43,32.43,0,0,1-.29-5.32c-.11-5.17.3-10.35-.29-15.52a3.51,3.51,0,0,0-.63-2c-1,0-.78-.87-.83-1.43a24.63,24.63,0,0,1,.22-4.47,13.75,13.75,0,0,0-.16-3.35,15.36,15.36,0,0,1-.06-2.58,1.25,1.25,0,0,1,1.17-1.3c.84-.16,1.16.45,1.31,1.1a51.35,51.35,0,0,1,1,6.7A70.38,70.38,0,0,0,280,156.07c.51,1.86,1.25,2.54,3.19,2.59a6.44,6.44,0,0,1,3.54,1.08,45.18,45.18,0,0,1-1.76,8.92,26.53,26.53,0,0,1-.83,2.77c-.21.55-.38,1.16-1.17,1.08Z"/><path class="cls-42" d="M283,172.51a86.41,86.41,0,0,0,2.91-12.32,7.78,7.78,0,0,1-.15-4.19c.06-.49.09-1.08.8-1.15.21,0,.49-.08.63,0,1.92,1.68,4.2,1.27,6.43,1.1a1.79,1.79,0,0,1,1.36.31,77,77,0,0,1-3.57,16.53c-2.12.21-4.24.44-6.36.62A1.92,1.92,0,0,1,283,172.51Z"/><path class="cls-43" d="M295,156.29c-2.16,1-4.44.62-6.69.56-.9,0-1.27-.71-1.41-1.53-.84-.33-.74-1.08-.8-1.77-.17-2.07.44-4.07.58-6.11,0-.65,0-1.29.05-1.94-.13-3.53.42-7.06,0-10.59a3.88,3.88,0,0,1,.16-1.75,1.2,1.2,0,0,1,1.72-.07,5.48,5.48,0,0,0,3.27.66,2.81,2.81,0,0,0,2.95-1.8c.14-.38.33-.68.81-.61.62,2.11.24,4.26.31,6.39.06,2,0,4,0,5.95A81.45,81.45,0,0,1,295,156.29Z"/><path class="cls-44" d="M19.75,148.51a1.91,1.91,0,0,1-1.57,1.24c-2.19.33-4.39.7-6.53-.26l-.35-1.61Q10.65,141.92,10,136a145,145,0,0,1-.61-17.61l.32-.66c1,.08.77.9.79,1.46.08,2.09,0,4.19.05,6.29.08,2.32.63,2.82,2.92,2.8a13.89,13.89,0,0,1,4.78.39,4.62,4.62,0,0,1,.66,2.75c0,2.41.46,4.78.34,7.18a1.92,1.92,0,0,0,.49,1.29c.16,2.35.29,4.71.62,7C20.44,147.57,20.56,148.21,19.75,148.51Z"/><path class="cls-45" d="M17.79,129a50.38,50.38,0,0,0-5.65.25c-1.93.24-2.4-.23-2.42-2.21,0-3.13,0-6.25,0-9.38,0-3.79-.17-7.6.65-11.35a20.7,20.7,0,0,0,6.74-.07c.68-.08,1.38-.3,2,.21.48,2.16-.28,4.26-.26,6.4-.32,2.54,0,5.11-.35,7.65-.06.47.32.75.45,1.14a39.54,39.54,0,0,0-.32,5.73C18.56,128,18.86,128.91,17.79,129Z"/><path class="cls-46" d="M18.44,106.68c-2,.89-4.17.67-6.27.91a1.62,1.62,0,0,1-1.82-1.23A70.52,70.52,0,0,1,13.6,90.47c.08-.07.15-.2.24-.21,2.87-.27,5.72-1,8.62-.27a.64.64,0,0,1,.41.4c-.08,2.22-1,4.23-1.61,6.31a5.21,5.21,0,0,0-.32,1.54c-.51,2.45-1.13,4.87-1.54,7.33C19.32,106.14,19.21,106.7,18.44,106.68Z"/><path class="cls-47" d="M22.31,90.46c-2.9-.15-5.81.82-8.71,0l1-3.56c1.16-2.69,2.31-5.39,3.49-8.08.3-.68.69-1.32,1-2a84,84,0,0,0,9.37-.34c1,.29.44.88.21,1.33s-.75.88-.68,1.53a92.6,92.6,0,0,0-4.33,9.72C23.43,89.74,23.17,90.4,22.31,90.46Z"/><path class="cls-48" d="M295.66,131.33c-.16,2.66-.7,3.18-3.31,3.23-.86,0-1.72,0-2.58,0a2.11,2.11,0,0,1-2.2-1.3c-1-.07-.76-.91-.81-1.47-.3-3.33-.73-6.64-1.08-10a24.5,24.5,0,0,0-.63-2.84,2.14,2.14,0,0,0,.1-1.72c-.21-1.12-.72-2.27,0-3.38.08-.07.17-.19.26-.19,2.75,0,5.51-.72,8.25.11A75.16,75.16,0,0,1,295.3,125C295.52,127.12,295.55,129.22,295.66,131.33Z"/><path class="cls-49" d="M293.72,113.82a18,18,0,0,1-8.11.32c-.65.19-1-.1-1.1-.71-.76-4.41-2-8.72-2.74-13.13-.14-1.28-.88-2.38-1.08-3.64-.13-.82-.62-1.62-.09-2.46a1.24,1.24,0,0,1,1.12-.49c2.53.67,5,0,7.46-.32a100.58,100.58,0,0,1,2.94,11.66c.33,1.41.64,2.82,1,4.23Z"/><path class="cls-46" d="M289.18,93.39a1.67,1.67,0,0,1-1.3,1.1c-2.27.16-4.56,1-6.8-.13-.76.24-1-.21-1.18-.83-1.1-3.69-2.32-7.35-3.39-11.05-.17-1.09-.88-2-1-3.11-.06-.46-.48-1.08.41-1.23a60.3,60.3,0,0,0,8.42-.63A58.62,58.62,0,0,1,286.6,84C287.65,87.08,288.43,90.23,289.18,93.39Z"/><path class="cls-47" d="M275.54,140.13c.13,3.13-.47,6.23-.25,9.36l-1.47,10.33-2.1,7.82c-1,3.43-2.45,6.66-3.73,10a2.07,2.07,0,0,1-.08,1.75,63.8,63.8,0,0,1-8.42,13.78,86.29,86.29,0,0,1-21.68,20.14c-.84.54-1.66,1.14-2.75.82a85.78,85.78,0,0,1-20.79,8.83c-10.4,2.76-20.8,2.56-31.25.35A95.15,95.15,0,0,1,164.34,217a6.11,6.11,0,0,1-4.4-1.2,126.83,126.83,0,0,1-14.31-9.7,96.35,96.35,0,0,1-18.07-19.73,29.27,29.27,0,0,1-3.4-7.73l-1.81-4.48a49.55,49.55,0,0,1-2.59-4.45,10.78,10.78,0,0,0-1.07-5.27c-.21-.48-.66-.86-.59-1.45a95.4,95.4,0,0,1,.75-11c.17-2,.92-4,.33-6.08.29-2.22.67-4.44.93-6.67.14-1.19,1.16-2.2.66-3.49,1.51-3.22,2.3-6.72,3.83-9.94a31.36,31.36,0,0,1,3.29-5.7,18.94,18.94,0,0,1,3.61-5.3c3-3.44,6.18-6.73,10.24-9a37.5,37.5,0,0,1,13.06-6c1.12-.63,2.46-.25,3.6-.81.5-.09,1,0,1.46-.39s1.1.25,1.54-.26a15.12,15.12,0,0,1,4.32-.35,27.92,27.92,0,0,1,2.94,8.83,36.63,36.63,0,0,1,.38,8.06,1.52,1.52,0,0,1-.54,1.43c-9.78,0-17.19,4.56-22.89,12.22a40,40,0,0,0-7,16.4,17.59,17.59,0,0,1-.58,2.52c-.12,2-.09,4.09-.32,6a14.52,14.52,0,0,1,1.65-6.16,2,2,0,0,1,1.12-.25.83.83,0,0,1,.88.34,3,3,0,0,1-.06,2c-1,4-2,8-1.41,12.27a10.72,10.72,0,0,0,.54,2.5c.58,1.41,1.55,2.67,1.72,4.24a23.57,23.57,0,0,1,2,3.35,13.49,13.49,0,0,1,1.64,2.9c2.69,3.09,5,6.47,8.07,9.27,2.22,2,4.74,3.68,7,5.65a95.67,95.67,0,0,0,8.54,4.39,65.18,65.18,0,0,0,29.19,5.4,47,47,0,0,0,28.27-11.5,6.66,6.66,0,0,1,1.53-1.09c6.27-6.15,11.81-12.8,14.65-21.32.39-1.17,1.35-2.16.63-3.54-.17-.33.26-.67.44-1a13.33,13.33,0,0,0,1.37-4.79c.57-3.13.67-6.31,1-9.47a4.74,4.74,0,0,0-.15-2.08,2,2,0,0,1,.23-1.79c.58-1.09.2-2.32,0-3.48a80.44,80.44,0,0,0-4.73-20.92,229.21,229.21,0,0,0-11.94-27.28c-3.12-6-6.63-11.81-9.84-17.77-1.68-3.12-3.22-6.31-4.9-9.43-.49-.28-.59-.81-.8-1.28-.1-.18-.2-.35-.31-.52s-.29-.42-.41-.65-.26-.43-.41-.63a1.43,1.43,0,0,1-.37-.65c-.09-.24-.22-.46-.31-.7s-.33-.71-.46-1.08l-.15-.37c-.19-.38-.38-.75,0-1.1l-1-2.27c-.74-1.2.05-1.62,1-2L229.81,45l14.51-6c1.95-.81,2.32-.66,3.2,1.31.57,1.28,1.19,2.54,1.78,3.81a3,3,0,0,1,1.47,1.72c1.58,3.23,2.89,6.59,4.4,9.84a12.62,12.62,0,0,0,1.57,3,.78.78,0,0,1,.08.89,1.12,1.12,0,0,0,.19,1.14,94.74,94.74,0,0,1,5.78,12.9,16.1,16.1,0,0,0,1.7,3.11c-.57,1.66.41,2.92,1,4.31a30.67,30.67,0,0,1,1.81,5,27.29,27.29,0,0,0,2,4.92,1.78,1.78,0,0,0-.2,2.06,43.43,43.43,0,0,1,2.47,8.15,40.83,40.83,0,0,0,1.32,4.1,2.5,2.5,0,0,0-.19,2.65,42.94,42.94,0,0,1,1.76,9c.12,1.32,1.08,2.47.68,3.86-.87,1.53,0,3,.16,4.5a86.21,86.21,0,0,1,.76,9.26c0,1.57-1,2.94-.67,4.55C275.47,139.38,275.33,139.78,275.54,140.13Z"/><path class="cls-23" d="M256.11,59.67c-2.44-5.11-4.79-10.26-6.81-15.56,1.3-.26,1.9.65,2.35,1.56.89,1.78,1.74,3.59,2.45,5.44a3.81,3.81,0,0,0,4.16,2.76,38,38,0,0,1,8.54.28c1,1.89,1.47,4,2.6,5.85l1.3,4.21c-.24.61-.7.7-1.3.63a39,39,0,0,0-6.63-.12c-2.48.16-4-1-5.19-3A5.39,5.39,0,0,0,256.11,59.67Z"/><path class="cls-50" d="M168,115.78a26.81,26.81,0,0,0-.76-11.46c-.52-2-1.28-3.86-1.93-5.79-1.58-.75-2-2.36-2.56-3.75a39.65,39.65,0,0,0-5.64-9.24,55.23,55.23,0,0,0-29.19-19.09,63.88,63.88,0,0,0-17.09-2.63c-13.11,0-24.73,4.09-34.25,13.37A76.58,76.58,0,0,0,70.93,83c-.73.88-.8,2.12-1.73,2.86-1,0-1.46.76-1.93,1.47a48.43,48.43,0,0,0-7.76,21,87.18,87.18,0,0,0,.08,20.36,8.61,8.61,0,0,0,.71,2.64c.07.14.23.31.19.44-1,3.34.71,6.21,1.7,9.14,1.52,4.49,3.24,8.92,5.08,13.3a10.29,10.29,0,0,0,1.82,3.2c.2.26.48.62.37.86-.71,1.46.36,2.44,1,3.47,1.57,2.75,2.61,5.74,4.12,8.52a10,10,0,0,0,2.07,2.84,4.49,4.49,0,0,0,1.13,3.47,20.93,20.93,0,0,1,2.6,4.43c-.16,1,.83,1.65.63,2.62a36.31,36.31,0,0,0,3.21,5.77,22,22,0,0,1,4.25,6c1.7,3.13,3.46,6.24,5,9.45a3.55,3.55,0,0,1,.52,2.72c.86,2.32.86,2.32-1.56,3.38-.48.21-.93.5-1.39.75-.16,1.13-1.17,1.32-2,1.65-6.12,2.55-12.21,5.16-18.34,7.69-1.89.78-3.76,1.62-5.68,2.33a6.47,6.47,0,0,1-3.09.44,10.77,10.77,0,0,0-1.48.58c-1.23.69-2.09.55-2.44-.95l-1.93-4.53a7.81,7.81,0,0,1-2.28-3.4,20.12,20.12,0,0,0-2.46-4.33,1.94,1.94,0,0,0-.19-1.8c-2.51-5.09-4.74-10.31-6.87-15.57a37,37,0,0,1-2.59-7.43,2,2,0,0,0-1.38-1.67A14.94,14.94,0,0,0,39,180.09c-1-2.15-1.22-4.52-1.91-6.75a1.91,1.91,0,0,1,.18-1.46c-1-3.78-2.19-7.52-2.95-11.36-.92-4.74-2.12-9.44-2.59-14.26-.77-5.93-1.41-11.88-1.61-17.86C28.64,125.45,29,122.3,29,119.2a23.19,23.19,0,0,1,.49-6,5.55,5.55,0,0,0-.3-3.28c.88-2.11.91-4.4,1.4-6.59a12.38,12.38,0,0,1,1-3.61c.62-1.07,0-2.13.2-3.18.78-1.31,1.4-2.69,2.05-4.07a7.06,7.06,0,0,0,.42-2.54,33,33,0,0,0,1.77-3c.5-.68-.14-1.3.09-1.93,1.06-1.25,1.84-2.7,2.78-4a1.65,1.65,0,0,0,.17-1.6c.25-.8,1-1.26,1.53-1.81a5.54,5.54,0,0,0,1.73-3.71,15.38,15.38,0,0,0,2.4-2.78,17.51,17.51,0,0,1,3.37-3.76c.82-.6.73-1.66,1.21-2.44a5.69,5.69,0,0,0,2.28-1.78c1.95-2.74,4.76-4.44,7.42-6.33,3.05-2.2,5.95-4.62,9.13-6.65,10-6.39,20.77-10.66,32.66-11.88h1.32c1.47-.88,7.8-.88,9.36,0,3.29-.31,6.46.57,9.66,1a79.37,79.37,0,0,1,25.38,9,83.06,83.06,0,0,1,8.09,4.9,20.28,20.28,0,0,0,3,1.67c.21,1.36,1.4,1.71,2.32,2.4A9.83,9.83,0,0,1,162.33,59c0,.76.52,1.06,1,1.43a57.53,57.53,0,0,1,8.1,7.79,2.47,2.47,0,0,0,.92,1.63,36.94,36.94,0,0,1,5.57,7.26,12.69,12.69,0,0,0,1.8,2.06,2.79,2.79,0,0,0,.59,2.57,42.53,42.53,0,0,1,5.59,14.39,18.85,18.85,0,0,1,.63,3.64c0,2.2.09,4.4.27,6.6.22,2.73-.27,5.47-.38,8.2a10.49,10.49,0,0,1-.36,3.65,51.63,51.63,0,0,1-1.3,6.87c-.15,1.27-.95,2.45-.48,3.8A9.54,9.54,0,0,0,184,130c0,.15,0,.38-.12.45-1.12.77-1.28,2.05-1.77,3.16-.91,1.09-.76,2.49-1,3.77-1.68,1-1.64,2.82-2.27,4.33-2.21,2.08-3,5.28-5.57,7.09-.58.29-.79.88-1.12,1.37-1.63,2.39-4,4-6.19,5.77a22.88,22.88,0,0,0-2.79,2.15.78.78,0,0,1-.88.15c-1.14-.06-1.69.94-2.54,1.4a49.14,49.14,0,0,1-18,5.46c-1.36-.29-1.4-1.54-1.59-2.49a23.61,23.61,0,0,1,.31-9,28,28,0,0,1,1.68-6.07c-.18-1.21.83-1.24,1.54-1.43a29.38,29.38,0,0,0,9-4.19,29.87,29.87,0,0,0,10.77-13.58c.64-1.58,1.28-3.16,1.93-4.74.46-2.11,1.09-4.18,1.53-6.3C167,116.69,166.92,115.78,168,115.78Z"/><path class="cls-25" d="M156.91,55.77a90.19,90.19,0,0,0-31.7-15.43c-1.36-.35-2.71-.71-4.07-1.07,3.65-.18,7,1.09,10.42,2.12a95.48,95.48,0,0,1,23.38,11c3,1.91,6.44,3,9.77,4.26a32.37,32.37,0,0,0,12.54,1.76c6.15-.12,12.31,0,18.47,0,5.47,0,11,.68,16.28-1.61l.65,1a3.85,3.85,0,0,1-1.52.89,4.86,4.86,0,0,0-3,3.6,2.2,2.2,0,0,1-2.31,2.1q-15,.13-29.92,0a2.37,2.37,0,0,1-.94-.21c-3.87-1.73-8-2.84-11.71-5-1.83-1.06-3.7-2.06-5.48-3.21A1.43,1.43,0,0,0,156.91,55.77Z"/><path class="cls-25" d="M111.48,38.23a33.41,33.41,0,0,0-9.36,0,1.9,1.9,0,0,1,1.21-.75,25.75,25.75,0,0,1,6.92,0A2.11,2.11,0,0,1,111.48,38.23Z"/><path class="cls-19" d="M59,56.76l-8.73,8.76c-2,1-3.26,2.82-4.85,4.26A63.71,63.71,0,0,1,32.58,79a7.44,7.44,0,0,1-4.18,1c-.53,0-1.09-.1-1.19-.8l1.26-2.61A63.5,63.5,0,0,1,33.7,68.1a4.08,4.08,0,0,1,.63-.13c6.57-.34,11.95-3.51,17.18-7.11A29.35,29.35,0,0,1,59,56.76Z"/><path class="cls-50" d="M96,148.77a30.49,30.49,0,0,0-3.25-4.21c-.65,0-1.28,0-1.67-.64a11.81,11.81,0,0,0-1.87-4.3,12.82,12.82,0,0,1-2.73-5.55,7.79,7.79,0,0,0-1.54-3.17,12,12,0,0,0-.37-2.55c-.32-1.52-.9-3-.58-4.63.19-1-1.12-1.58-.85-2.64a28.28,28.28,0,0,1,.23-4c.22-.9-1-1.22-.53-2.06a9.93,9.93,0,0,0,.52-3c-.65-.87,0-1.62.24-2.37a3.73,3.73,0,0,0,.29-3c.44-.88.86-1.77,1.32-2.64a2.21,2.21,0,0,0,.22-1.89c1.29-1.64,2.1-3.66,3.74-5,.6-.51,0-1.4.71-1.82,1.46-1,2.93-2.08,4.42-3.08a2.17,2.17,0,0,0,.94-1.39,30.58,30.58,0,0,1,4.81-2.3c1-.32,2.1-.58,2.57-1.76.1-.26.56-.27.87-.31a13.45,13.45,0,0,0,2.69-.55c7.41-2,14.85-2.52,22.36-.51,1.57.42,3,1.25,4.59,1.54.37,1.3,1.62,1.77,2.46,2.62.44.45,1,.76,1.28,1.39-.39,1.36,1,2.46.6,3.82-.33,1.2-.51,2.5-1.87,3.08a3.37,3.37,0,0,1-3.17-.31,3.33,3.33,0,0,0-2.29-.38c-3.56-1.38-7.25-1.06-10.93-.83a4.79,4.79,0,0,0-3,.79c-7.11,1.79-11.75,6.24-14.12,13.12-.56,1.64-.85,3.35-1.31,5a1.91,1.91,0,0,0,.65,2.24c0,10.08,5.2,21.75,16.35,26.45,1,.4,1.91.81,1.75,2.13-.73,5.2-1.22,10.43-1.55,15.67a3,3,0,0,1-.53,1.41c-.47.54-1,.23-1.46,0-4.77-1.84-9.39-3.94-13.12-7.56a1.78,1.78,0,0,0-1.37-.58C99.42,153.17,97.18,151.43,96,148.77Z"/><path class="cls-34" d="M124.17,178.59a82.48,82.48,0,0,0,9.63,14.54,89.52,89.52,0,0,0,23,19.7c2.45,1.47,4.78,3.15,7.5,4.12a8.73,8.73,0,0,1-6.85.07,93.59,93.59,0,0,1-14.4-8.06c-4.2-2.88-8.37-5.73-13.43-7-2-.5-2.45-1.67-1.56-3.51s.47-3.68-.13-5.51a117.33,117.33,0,0,1-3.49-12.31C124.35,180,124.28,179.29,124.17,178.59Z"/><path class="cls-51" d="M235.05,214.11a91.73,91.73,0,0,0,18.35-15A88.08,88.08,0,0,0,268,177.62c.85.81.61,1.78.37,2.73-1.07,4.18-2.2,8.35-3.65,12.41a10,10,0,0,0-.48,6.33,2,2,0,0,1-1.32,2.63c-6.31,2-11.08,6.59-16.59,9.94-1.75,1.06-3.58,2-5.33,3C238.85,216,236.92,215.49,235.05,214.11Z"/><path class="cls-27" d="M92,143.34l.7,1.22c.75,4.21,2.94,7.73,5.4,11.1a43.6,43.6,0,0,0,16.19,13.62,14.15,14.15,0,0,1,7.62,8.95c1.37,4.44,2.63,8.9,2.59,13.62,0,2.18-.7,3-2.86,3q-12.06,0-24.12,0c-2.61,0-4.75-1.31-6.79-2.75a52.27,52.27,0,0,1-7.93-7.37c-.52-.55-1-1.19-1.86-1.1a8.18,8.18,0,0,1-1.28-2.29c0-.35-.24-.73.24-1s.89.08,1.18.37c1.87,1.87,3.63,3.83,5.55,5.65,3.37,3.2,7.06,5.29,12,5.13,6.36-.21,12.73,0,19.1-.05a16.33,16.33,0,0,0,2.1-.07c1.6-.21,2.47-.9,2.47-2.48,0-5.38-.91-10.57-4.1-15.1a8.63,8.63,0,0,0-3.53-2.78A45,45,0,0,1,99.8,159.68,43.94,43.94,0,0,1,91.24,145C91,144.37,90.32,143.2,92,143.34Z"/><path class="cls-52" d="M61.92,223.77,91,211.66a2.12,2.12,0,0,1-.33,2.27,10.3,10.3,0,0,1-3.77,3.46C82.65,219.6,78,220.6,73.47,222a59.81,59.81,0,0,1-8,2.16A4.76,4.76,0,0,1,61.92,223.77Z"/><path class="cls-34" d="M93.95,207.54l-9.78-18.15a5.33,5.33,0,0,1,2.31,1.69c3.15,3.16,6.18,6.41,10.33,8.37,1.95.92,1.92,2,.14,3.12a4.74,4.74,0,0,0-2.09,2.93A4.21,4.21,0,0,1,93.95,207.54Z"/><path class="cls-34" d="M96,148.77l5.82,5.57c4.12,4.48,8.46,8.67,14.07,11.3a17.25,17.25,0,0,1,5,3.61l1.49,4.86c-3.22-3.69-7.42-6-11.59-8.41-5.95-3.42-10.32-8.43-13.89-14.2A6.44,6.44,0,0,1,96,148.77Z"/><path class="cls-53" d="M30.4,109.63a113.06,113.06,0,0,0-.34,18.76c-.42-.86-.77-.67-.91.12-.25,1.43-.43,2.88-.63,4.32-.85,6.24-1.15,12.55-2.26,18.77-.41,2.28-.84,4.56-1.36,6.81a4.86,4.86,0,0,1-2.24,3.4,88.88,88.88,0,0,1-2.26-10.33c-.19-1-.43-2-.65-3-.52-2.79-.69-5.61-1-8.43a6.34,6.34,0,0,1,1.52-2.64,13.51,13.51,0,0,0,2.21-4.63c1.75-5.66,2.78-11.51,4.47-17.18a30.29,30.29,0,0,1,1.89-5.32C29.17,109.75,29.45,108.84,30.4,109.63Z"/><path class="cls-54" d="M52.49,210.77a76,76,0,0,1,3.57,8.1c-.78.12-1.17-.43-1.58-.93q-5.41-6.56-10.82-13.12A9.63,9.63,0,0,0,42,203.08a5.7,5.7,0,0,1-2.38-4.75c-.12-4.18-1-8.26-1.45-12.39-.44-4-.91-7.94-1.37-11.91a3,3,0,0,1,.45-2.17c1.13,4.19,2.77,8.21,4.16,12.31-.5,1.08.2,2,.44,3,.91,3.62,1.43,7.31,2.09,11A8.89,8.89,0,0,0,46,202.61a51.71,51.71,0,0,1,5.45,7.12C51.71,210.17,51.88,210.69,52.49,210.77Z"/><path class="cls-55" d="M256.11,59.67c1.19,0,1.58,1.05,2.11,1.79a5.48,5.48,0,0,0,5.09,2.46,30.37,30.37,0,0,1,7.39.29c1.94,4.57,3.68,9.21,5.21,13.93a25.11,25.11,0,0,1,1.28,4.22c-.23.83-.92.78-1.55.8-2.15,0-4.3.09-6.44,0s-3.3-1.92-4.35-3.59a20.18,20.18,0,0,0-1.59-2.71Z"/><path class="cls-56" d="M275.54,140.13c-.56-2.77-.17-5.59-.43-8.38-.35-3.7-.58-7.4-.86-11.1-.23-.46-.16-.87.33-1.06s.68.19.91.5a5.16,5.16,0,0,1,.7,2c1,4.3,1.77,8.68,3.28,12.86,1.1,3.06,2,3.66,5.26,3.7,3,0,3,0,3,3a15.81,15.81,0,0,1-.15,4c.18,3.27-.93,6.45-.65,9.73l-1,4.86c-1-.76-2.25-.62-3.43-.65-2.2-.06-2.62-.47-3.22-2.62-1.54-5.54-2-11.25-2.76-16.9a3.13,3.13,0,0,0-1-2.38Z"/><path class="cls-12" d="M287.56,145.59c0-1.51,0-3,0-4.52a1.47,1.47,0,0,0-1.6-1.61l-2.26,0c-3,0-3.83-.65-4.87-3.63-1.55-4.43-2.38-9-3.49-13.59-.15-.6.13-1.62-1.06-1.57l-2.57-15.58c0-1,.5-1,1.05-.4a6.1,6.1,0,0,1,1.18,2.28c.94,2.58,1.84,5.17,3,7.67a4.45,4.45,0,0,0,4.69,2.94c.59,0,1.19.06,1.77,0a2.61,2.61,0,0,1,2.88,1.48c.42,4.75,1.34,9.45,1.33,14.25,0,3.27.5,6.52.31,9.8A7.89,7.89,0,0,1,287.56,145.59Z"/><path class="cls-12" d="M30.4,109.63a6.73,6.73,0,0,0-1.5,2.83c-2.16,6.06-3.19,12.42-5,18.58-1,3.45-1.93,6.89-5.15,9-.78-3.64-.48-7.37-1-11q0-3.72,0-7.44A6.76,6.76,0,0,1,20.15,119,5.68,5.68,0,0,0,22,116.55c2.07-4,3.86-8.18,5.74-12.29a61.09,61.09,0,0,1,3.86-7.45c.39-.61.85-1.32,1.47-.16C31.73,100.88,31.2,105.28,30.4,109.63Z"/><path class="cls-57" d="M33,96.64A4.87,4.87,0,0,0,31.2,99c-2.66,5.61-5.4,11.19-7.91,16.86a11.44,11.44,0,0,1-5.46,5.7c.09-2.92-.3-5.86.31-8.76a15.92,15.92,0,0,1,2.94-2.52,8.15,8.15,0,0,0,2.3-2.68c3-4.63,5.23-9.68,8.41-14.19.67-1,1.21-2,1.91-3,.51-.7.92-.95,1.6-.32Z"/><path class="cls-6" d="M35.28,90.16a5.07,5.07,0,0,0-2.05,2.22q-4.63,8-9.27,15.93a9.5,9.5,0,0,1-5.82,4.53l.31-6.17.34-1.29a20.55,20.55,0,0,1,3.4-2.46,12.24,12.24,0,0,0,3.65-3.61c3-4.39,5.75-8.91,9.11-13,.33-.41.66-.82,1-1.2.59-.64,1-.47,1.3.2Z"/><path class="cls-48" d="M27.21,79.13c4.23.47,7.2-2.27,10.42-4.23C41,72.85,43.77,70,46.82,67.48c1-.85,2-1.82,3.47-2a89.54,89.54,0,0,0-6.74,8.76c-.8.37-1.14,1.18-1.69,1.79C38.4,79.84,35,83.64,31.43,87.31c-1.78,1.83-4.15,2.65-6.21,4-.8.52-2.14.87-2.88-.5l0-.33A68.57,68.57,0,0,1,27.21,79.13Z"/><path class="cls-58" d="M37.25,85.29A4.27,4.27,0,0,0,35.35,87c-3,4-5.78,8.16-8.45,12.38-1.59,2.52-3.9,4.08-6.24,5.7a3.38,3.38,0,0,1-1.88.35c.06-2.55.86-5,1.32-7.46,1-1.09,2.36-1.42,3.58-2.05,3.49-1.83,5.41-5.17,7.86-8s4.65-5.71,7.13-8.42c.28-.3.6-.79,1.17-.6s.42.53.33.91Z"/><path class="cls-59" d="M40.18,79.77c-.92-.12-1.34.56-1.81,1.13-3.48,4.23-6.89,8.53-10.46,12.69a11.47,11.47,0,0,1-7.81,4.34,62.47,62.47,0,0,1,2.23-7.14c3.35.15,5.85-1.85,8.06-3.81,3.52-3.13,6.62-6.74,9.89-10.15a8.72,8.72,0,0,1,3.27-2.55Z"/><path class="cls-60" d="M286.24,119a9.5,9.5,0,0,0-5.22-.63c-2.33.17-3.69-.84-4.66-2.89-1.27-2.68-2.28-5.44-3.28-8.22-.3-.83-.4-1.83-1.42-2.21l-3.6-14.26c.06-.94.49-1,1.09-.41a5.31,5.31,0,0,1,.92,1.51A57.21,57.21,0,0,0,272.92,97a4.17,4.17,0,0,0,3.78,2.07c1,0,2.05.07,3.07,0a2.64,2.64,0,0,1,2.6,1.15,116.78,116.78,0,0,1,2.82,12.22c.11.58.28,1.14.43,1.72Z"/><path class="cls-44" d="M282.37,100.2a26.37,26.37,0,0,0-6.26-.31,3.87,3.87,0,0,1-3.71-2.05c-1.12-1.84-2.17-3.71-3.12-5.63-.28-.56-.46-1.23-1.21-1.41l-4.83-13.95c1.27.65,1.82,1.94,2.61,3a5.51,5.51,0,0,0,5.2,2.56c2-.17,4.08,0,6.13,0,1.58,3.91,2.56,8,3.89,12C281.31,96.35,282.24,98.19,282.37,100.2Z"/><path class="cls-32" d="M228.86,187a47.06,47.06,0,0,1-28.8,12.9,64.8,64.8,0,0,1-29-4.54,42.81,42.81,0,0,1-10.68-5.65c-.09-1.48,1.06-1.46,2-1.49,2.42-.09,4.84,0,7.26,0,.43,0,.86,0,1.29,0s1.27,0,1.55-.61-.22-1.13-.63-1.54a11.15,11.15,0,0,1-3.15-5.7c-.68-3.35-.15-4.49,2.87-6.15.19-.1.35-.24.54-.35A27.19,27.19,0,0,0,183,177c11.29.66,21.57-1.83,30-9.82a23.72,23.72,0,0,0,5.75-9.1,7.13,7.13,0,0,1,.9-2.07c1.7.06,2.18.64,2.17,2.34a32.61,32.61,0,0,1-5.89,18.71c-1.35,2-3.12,3.58-4.57,5.46-.45.59-1.13,1.17-.73,2s1.27.73,2,.73c4.59,0,9.18,0,13.77,0a10.89,10.89,0,0,1,1.62,0C229.11,185.52,229.51,186,228.86,187Z"/><path class="cls-61" d="M185.69,99.61a59.73,59.73,0,0,0-7.23-20.17c.38-1,1-.66,1.51-.19a41.07,41.07,0,0,1,4.12,4.11c1.3,1.52,2.74,2.91,4,4.42C189.77,89.65,192,90.67,194,92a4.93,4.93,0,0,0,2.83.54c7.12,0,14.25,0,21.37,0,2.67,0,3.37-1,2.56-3.62a115.57,115.57,0,0,0-5.19-12.38c-1.63-3.65-3-7.39-4.79-11a5.36,5.36,0,0,1,1.09-5.73c.53-.48,1.1-.76,1.74-.16l.32.65c-2.34,2.38-1.32,5-.14,7.27,3.3,6.45,6.49,13,9.7,19.45,2.83,5.72,6,11.31,7.78,17.51a5.62,5.62,0,0,1,.3,2.07c-.24,2.65-.75,3.13-3.42,3.14H209.56a7.12,7.12,0,0,0-3.9.76c-.7.82-1.24.2-1.77-.21a64.54,64.54,0,0,0-8.51-5.85,44.55,44.55,0,0,0-7.39-3.23A4,4,0,0,1,185.69,99.61Z"/><path class="cls-62" d="M84,112.27l-.08,2.86a82.77,82.77,0,0,0-2.35,14.54c-.19,3.56-.37,7.11-.41,10.68,0,2.12-.34,4.24-2,5.95a6.39,6.39,0,0,1-7.62.8c-5.64-3.4-8.21-8.84-10.05-14.75a54.44,54.44,0,0,1-2.35-19.73,50.66,50.66,0,0,1,6-21.77,49.92,49.92,0,0,1,3.16-5.08c.24-.34.55-.68.4-1.16,8.83-11.62,20-19.85,34.82-21.13,22.39-1.94,41.43,4.91,55.52,23.19a47.88,47.88,0,0,1,6.26,11.85l-3.83.65a4.53,4.53,0,0,1-1.61-2.24A47.4,47.4,0,0,0,146.3,79.35a56.77,56.77,0,0,0-26.09-11.78c-10-1.86-19.67-1.32-29.06,2.63A46,46,0,0,0,73.24,83.88a52.51,52.51,0,0,0-8.42,14.49,37.71,37.71,0,0,0-2.37,11.14,46.43,46.43,0,0,0,2.21,18.7c.94,2.65,1.88,5.29,4.53,6.86,2.93,1.73,5.95.79,7.05-2.43a58.09,58.09,0,0,0,2-8.34,47.53,47.53,0,0,1,3.47-11.44,6.72,6.72,0,0,1,.73-1.26c.31-.41.66-1,1.26-.76S84.2,111.73,84,112.27Z"/><path class="cls-48" d="M213.63,59.68c-2.55.91-3.36,3.31-2,6.28,1.82,4,3.78,8,5.57,12a108.33,108.33,0,0,1,4.36,10.45c1.41,4.34,1,4.95-3.49,4.95q-10.84,0-21.69,0A8.37,8.37,0,0,1,192.19,92c-4.84-2.67-7.58-7.44-11.51-11a5.79,5.79,0,0,0-2.21-1.58c-2.35-3.7-5-7.19-7.66-10.67.12-1.14.6-1.39,1.56-.66,1.2.92,2.42,1.8,3.59,2.76a51.43,51.43,0,0,0,9.81,6.52,8.28,8.28,0,0,0,3.73.91c7,0,14,0,21,0,2.54,0,3.05-.73,2.43-3.23a42.05,42.05,0,0,0-2.58-7A13.09,13.09,0,0,1,209.32,63c0-1.85,1.07-3,2.43-4.05a1.22,1.22,0,0,1,1.56.12Z"/><path class="cls-31" d="M228.86,187c-.56-1-1.52-.91-2.43-.91H212a15,15,0,0,1-1.78-.05c-1.46-.18-1.81-.81-1-2.06a53.64,53.64,0,0,1,4.6-5.64,29.72,29.72,0,0,0,7-16.93c.08-1,.11-1.94.15-2.91,0-.64.13-1.34-.74-1.58a.59.59,0,0,1-.65-.71c.75-3.28.84-6.66,1.41-10,1.29-.57,1.75.24,2.05,1.25a77.71,77.71,0,0,1,1.87,9.83c.22,1.44.3,2.89.62,4.32.39,1.77,1.07,2.45,2.85,2.51,3.82.12,7.65.11,11.47,0a3.84,3.84,0,0,0,3.33-2,3.49,3.49,0,0,1,1-1.25c.59-.38,1-.39,1,.52-2.36,9.66-7.71,17.51-14.72,24.35A4.9,4.9,0,0,1,228.86,187Z"/><path class="cls-53" d="M245.08,161.48c-.78.12-1,.81-1.26,1.36A4,4,0,0,1,240,165c-4.15,0-8.3,0-12.45,0-2,0-2.6-.57-2.88-2.54-.6-4.22-1.12-8.45-2-12.62a6.53,6.53,0,0,0-1.22-3.29c-.81,0-.76-.62-.84-1.1q-.55-3.55-.8-7.13c1-.85,1.71-.54,2.36.45a43.12,43.12,0,0,1,2.62,4.85,5,5,0,0,0,5.15,3.11c3.18-.14,6.37,0,9.56,0,2.44,0,3.26-.78,3.76-3.15.61-2.91.22-5.79-.08-8.7a70.5,70.5,0,0,0-4.73-18,95.09,95.09,0,0,0-4-9.85c-1.41-2.72-2.06-5.76-3.64-8.35-4.1-6.67-7-13.94-11-20.7-2.24-3.86-4.1-8-6-12a5,5,0,0,1-.31-3c.11-.57.2-1.6,1.31-.89l.67,1.31c-.26,1,.37,1.7.77,2.49,5.75,11.41,12.22,22.45,17.65,34,4.59,9.77,8.82,19.73,11.3,30.29a50.15,50.15,0,0,1,1.48,10.5c.24-.54-.47-1.33.35-1.85.64,4.42.22,8.83-.19,13.23A38,38,0,0,1,245.08,161.48Z"/><path class="cls-21" d="M130.32,96.07c1.65.18,3.1,1.19,4.81,1.17,1.2-.22,1.68.41,1.94,1.5a7.1,7.1,0,0,1-3.47,7.85,9.69,9.69,0,0,1-4.8,1.24c-2.16-.05-4.32-.1-6.47,0a13.77,13.77,0,0,0-8.53,3,7.58,7.58,0,0,0-2.28,3.47c-.85,2.55.48,4.61,3.18,4.76,3.34.18,6.69,0,10,.06l2.42,0c.78,0,1.19.33,1.22,1.12a69.6,69.6,0,0,0-6.53,15.58,1.22,1.22,0,0,0-.27.18c-2.43,2.62-3.16,2.66-6.56,1.41-7.26-2.67-10.33-8.39-11.49-15.5a15.68,15.68,0,0,1,3.95-13.37,19.91,19.91,0,0,1,14-6.62,55.75,55.75,0,0,0,6-.58c2.45-.44,3.14-1.55,2.67-4A1.32,1.32,0,0,1,130.32,96.07Z"/><path class="cls-3" d="M205.19,110.28c.37-1.43,1.54-1.31,2.61-1.31,6.48,0,13-.12,19.43,0,3.39.08,3.95-1.41,3.19-4.24-1.74-6.51-4.94-12.42-7.85-18.43-3.31-6.85-7-13.53-10-20.49-1.21-2.72-.73-4.29,1.42-5.51l.33.65c-1.32,1.8-1,3.62-.1,5.48,2.94,6,6.08,12,9.16,18,3.72,7.19,7.57,14.33,10.43,21.92,1.69,4.5,3.55,9,4.49,13.74a15.19,15.19,0,0,1,.16,3.23,1.8,1.8,0,0,1-2,2c-6.2,0-12.4.06-18.61,0-.66,0-1.19-.71-1.88-.27-.75.16-.9-.49-1.13-.92A53.9,53.9,0,0,0,205.66,112C205.22,111.55,204.4,111.1,205.19,110.28Z"/><path class="cls-38" d="M90.85,96.06a26,26,0,0,0-4.29,6.43c-1.91,1.79-3.25,4-4.82,6.11s-2.91,4.29-4.52,6.32a16.07,16.07,0,0,1-2.92,2.79c-3,2.27-5.73,1.07-7.59-1.6a10.68,10.68,0,0,1-1.7-5.35,32.45,32.45,0,0,1,4.82-19.34,48.2,48.2,0,0,1,11-13.11,44.32,44.32,0,0,1,17-8.69,47.9,47.9,0,0,1,16.07-1.27,57.87,57.87,0,0,1,25.26,7.86c8.52,5.1,15.19,12,19.11,21.34a3,3,0,0,1,.27,2l-3.59.94a2.66,2.66,0,0,1-1.4-1.73c-1.93-6.53-6-11.65-11.08-15.92C135.36,76.94,127,73.77,118,72.29A53.21,53.21,0,0,0,102.85,72,37.05,37.05,0,0,0,92,75.24C83.53,79.1,77.56,85.46,73.44,93.67a25.35,25.35,0,0,0-2,5.81,6.65,6.65,0,0,0-.16,2.41c.42,3,2.5,4,5.14,2.59a51.56,51.56,0,0,0,9.17-6.62,15.85,15.85,0,0,1,4.11-2.55C90.47,95,91,95,90.85,96.06Z"/><path class="cls-19" d="M213.31,59A4,4,0,0,0,210,63.8a13.85,13.85,0,0,0,1.19,4,47,47,0,0,1,3.1,9c.35,1.67,0,2.26-1.71,2.27-8.14,0-16.29,0-24.43,0-2.14,0-3.82-1.4-5.57-2.42a88.85,88.85,0,0,1-9.92-7.24c-.56-.44-1.07-.95-1.87-.65-2.93-3.12-5.87-6.23-9.06-9.1-.33-1.58.82-1.08,1.33-.77,1.79,1.09,3.74,1.95,5.43,3.19,3.28,2.4,7.14,3.53,10.81,5.07a8.18,8.18,0,0,0,3.19.44q10.93,0,21.87,0c2.91,0,3.5-.58,3.54-3.53a6.07,6.07,0,0,1,4.08-6,1,1,0,0,1,.63,0Z"/><path class="cls-12" d="M84,112.27c-.52-1-.86-.26-1.08.17-.53,1.06-1,2.14-1.46,3.25-1.85,4.71-2.39,9.74-3.62,14.6-.5,2-.78,4-2.56,5.44a5,5,0,0,1-5.32.77,7.93,7.93,0,0,1-4.21-3.63,36.24,36.24,0,0,1-3.95-13.77c-.7-7.5-.29-14.93,2.72-22,5.57-13,14.36-22.91,27.71-28.24,11.25-4.49,22.7-4,34.16-.73C141,72.4,152.11,81,159.47,94.4a19.73,19.73,0,0,1,2,4.78l-1.62.1c-.82-.21-1.12-.88-1.41-1.56A43.56,43.56,0,0,0,150,84.95c-7.35-7.77-16.43-12.52-26.74-15.06a54.94,54.94,0,0,0-17.41-1.57,43.64,43.64,0,0,0-31,15.84c-6.17,7.3-10.09,15.75-10.74,25.42a28.66,28.66,0,0,0,2.38,14.07,4.83,4.83,0,0,0,4.43,3c1.94,0,3.26-1.29,4.11-3,1.26-2.51,2.22-5.15,3.26-7.76a57.29,57.29,0,0,1,4.14-7.88A5.81,5.81,0,0,1,84,106.41c.44-.33.79-.28,1,.26Z"/><path class="cls-21" d="M85,106.67c-2.72,2.26-3.93,5.5-5.39,8.54-1.33,2.77-2.37,5.67-3.54,8.52-1,2.4-3.14,4.19-5.19,4a6.05,6.05,0,0,1-5.37-4c-3.54-9.11-2.89-18.17.83-27A47.15,47.15,0,0,1,88.59,72.3a46.32,46.32,0,0,1,27.07-4.55C126.43,69,136.34,72.57,145,79.28a46,46,0,0,1,14.16,18c.28.64.46,1.32.69,2l-1.29.29A9.39,9.39,0,0,1,157,96.75a44.27,44.27,0,0,0-20.09-20.83,57.35,57.35,0,0,0-28.35-6.85,42.65,42.65,0,0,0-21.89,6.12,44.08,44.08,0,0,0-19.49,24.4,23.34,23.34,0,0,0-.8,13.56,7.49,7.49,0,0,0,.9,2.24c1.8,2.69,4.08,3.47,6.69,1.53a18.76,18.76,0,0,0,4-4.42,84.31,84.31,0,0,1,5.94-8.09c.74-.82,1.33-1.89,2.66-1.92Z"/><path class="cls-15" d="M90.85,96.06a2.82,2.82,0,0,0-2.11.67,34.35,34.35,0,0,0-3.91,2.87,51.33,51.33,0,0,1-8.16,5.79c-3.8,2.34-6-.49-6.29-3.5A13.9,13.9,0,0,1,71.92,95,37.87,37.87,0,0,1,96.06,73.07c12.24-3.91,24.18-2.22,35.87,2.62a44.76,44.76,0,0,1,13.63,8.88,31.17,31.17,0,0,1,9.4,15.94,47.61,47.61,0,0,0-13,5.85,1.72,1.72,0,0,1-1.33-1.21A10.13,10.13,0,0,1,140,103c-.37-3.1-1.88-5.72-3.44-8.32a11.15,11.15,0,0,0-.76-3.58c.37-1.06,1.06-.61,1.6-.27a16.35,16.35,0,0,1,4,3.25,14.85,14.85,0,0,0,4.46,3.43c1.8,1,3.41,0,3.33-2.09a7.89,7.89,0,0,0-1.27-3.63A32.8,32.8,0,0,0,137,80.73a49.94,49.94,0,0,0-28.38-7.85A36.89,36.89,0,0,0,88,79,32.56,32.56,0,0,0,76.86,91.66a10.06,10.06,0,0,0-1,3.06c-.37,2.64,1.39,4.08,3.85,3a67.28,67.28,0,0,0,7.49-3.47,47.74,47.74,0,0,1,7.77-3.63c.38-.13.83-.4,1.17,0s.08.7-.19,1A47.74,47.74,0,0,0,90.85,96.06Z"/><path class="cls-22" d="M215.9,124.19c4.3.65,8.62.21,12.93.31,2.16.05,4.32,0,6.47,0,1.92,0,2.39-.52,2.29-2.46a30.49,30.49,0,0,0-1.33-6.65c-2.94-10.52-7.94-20.15-12.94-29.77-3.41-6.56-6.9-13.07-10-19.78-1.11-2.4-.84-3.78,1-4.87l.33.65c-1.31.87-1.14,2.09-.71,3.3a62.94,62.94,0,0,0,3.34,7c4.43,8.91,9.37,17.55,13.72,26.5a166,166,0,0,1,10.54,27.44c.61,2.17,1,4.38,1.44,6.59a8.5,8.5,0,0,1,0,1.85c-.14,3.12-1.06,4-4.15,4-4.27,0-8.53-.06-12.8,0a5.76,5.76,0,0,1-5.48-3.42c-.35-.63-.74-1.05-1.49-1A4.86,4.86,0,0,1,218,131.6a55.84,55.84,0,0,0-2.35-5.82C215.34,125.2,215,124.57,215.9,124.19Z"/><path class="cls-28" d="M172.17,174.76c-2.49,1-3.16,2.29-2.79,4.9.41,3,2.28,5,4.24,7.06.39.41,1.17.65,1,1.36s-1.07.88-1.75.89c-3,.06-5.92.07-8.88.07a7,7,0,0,0-3.6.72,48.79,48.79,0,0,1-13.44-12.59c-.58-.77-1.08-1.6-1.62-2.4.28-1.2,1.31-1.49,2.27-1.82a48.34,48.34,0,0,0,12.91-6.63,44,44,0,0,0,11.91-12.86,63.26,63.26,0,0,0,5.55-12.22l2.24-4.44c1.05-.54,1,.24.91.84a27.92,27.92,0,0,1-1.4,6.2,60.93,60.93,0,0,1-6.29,13.64,61.41,61.41,0,0,1-14.65,15.48A10.22,10.22,0,0,0,156.5,175c-.95,1.33-.54,2.33,1.07,2.45a37.44,37.44,0,0,0,5.34,0,3.17,3.17,0,0,0,2.51-1.56,8.38,8.38,0,0,1,4.93-3.71c.92.2,1.33,1,2,1.6A.61.61,0,0,1,172.17,174.76Z"/><path class="cls-57" d="M136.52,94.7c2,1,2.84,2.89,3.48,4.85.74,2.25,1,4.62,2,6.81a50.45,50.45,0,0,0-13.6,13.94,8.78,8.78,0,0,0-2.88-.33c-3.78,0-7.56,0-11.34,0a3.94,3.94,0,0,1-3.73-5.28c1.42-4.93,5.7-7.18,11.26-7.62,2.47-.2,5,0,7.45-.07,4-.15,6.78-2.41,7.21-5.9a4,4,0,0,0-1.22-3.83A2.68,2.68,0,0,0,136.52,94.7Z"/><path class="cls-56" d="M130.32,96.07c.2.38.41.76.58,1.15,1,2.23.31,3.93-2,4.72s-4.58.67-6.88.84c-5.74.44-10.81,2.41-14.38,7-4.63,6-4.35,12.48-1.07,19a14.91,14.91,0,0,0,9.54,8.13c1.59.45,3,.65,4.44-.48a6.08,6.08,0,0,1,1.31-.62,51.62,51.62,0,0,0-1.55,8,2.55,2.55,0,0,1-.69,1.74c-.13.14-.24.14-.33,0A30,30,0,0,1,108,137.94c-5-5.78-7.17-12.65-7.66-20.15a20.07,20.07,0,0,1,5.25-12,32.64,32.64,0,0,1,8.42-6.48c1.29-.71,2.05-1.52,1.61-3.06C120.53,94.68,125.42,95,130.32,96.07Z"/><path class="cls-13" d="M219.49,133.27A4.29,4.29,0,0,1,221.4,135a6,6,0,0,0,5.28,2.55c4.1-.1,8.2,0,12.31,0,2.15,0,2.78-.58,3.06-2.72.41-3.18-.35-6.26-1.18-9.26a162.37,162.37,0,0,0-13-32.57c-4.53-8.59-9.1-17.16-13.38-25.88a10.87,10.87,0,0,1-1.06-2.88,2,2,0,0,1,1.16-2.55l.24.36c-1.4,1.25-.88,2.71-.26,4,1.8,3.75,3.65,7.48,5.62,11.14,8.16,15.19,16.29,30.38,21.33,47,1.67,5.49,3,11,2.89,16.86a14.31,14.31,0,0,1-.79,4.61,2.64,2.64,0,0,1-2.68,1.93H228a3.08,3.08,0,0,1-2.91-1.7c-1-1.81-1.94-3.62-2.94-5.41a3.91,3.91,0,0,0-1.66-1.93.62.62,0,0,1-.74-.46,24.34,24.34,0,0,1-.94-3.73C218.73,133.73,218.87,133.33,219.49,133.27Z"/><path class="cls-63" d="M168,115.78a35.06,35.06,0,0,1-2,8.09,1.49,1.49,0,0,1-1.62.78c-5.6-.22-9.94,2.5-13.85,6.07a29.22,29.22,0,0,0-9,14.88,3.34,3.34,0,0,1-1.12,1.92l-.63.37c-.15.16-.48.18-.53.28a1.07,1.07,0,0,1-1.34.54c-.59-.23-.69-.87-.47-1.5,1.72-11.21,6.24-20.8,15.92-27.35a29.38,29.38,0,0,1,13-4.64C166.92,115.15,167.6,115,168,115.78Z"/><path class="cls-64" d="M212.65,58.06a6,6,0,0,0-3.92,6.37c.15,4,0,4-4,4-6.36,0-12.73-.25-19.07.08-4.75.25-8.87-1.27-13-3.1-3.07-1.36-5.71-3.46-8.6-5.13-.7-.4-1.36-.92-2.25-.6l-4.84-3.91a2.74,2.74,0,0,1,2.47.41c4.72,2.87,9.89,4.77,15,6.84a7.83,7.83,0,0,0,3,.54c9,0,18,0,27,0a3.29,3.29,0,0,0,3.5-2.22,5.52,5.52,0,0,1,4.77-3.63Z"/><path class="cls-30" d="M247.06,138.73v4.18a1.57,1.57,0,0,1-.61-1.37c-.68-8.65-3.25-16.82-6.35-24.84a199.62,199.62,0,0,0-9.64-22.08q-6.15-11.57-12.2-23.2c-1-2-1.91-4-2.83-6a1.84,1.84,0,0,1,.08-2.13c9.2,16.68,19.12,33,25.84,51A84.92,84.92,0,0,1,247.06,138.73Z"/><path class="cls-37" d="M140.36,147.53c.6-6.06,3.6-11,7.51-15.41a29.6,29.6,0,0,1,5.56-4.9,18.28,18.28,0,0,1,12.51-3.35c-3.84,11.2-10.42,19.75-22.36,23.1-.31.09-.62.2-.92.3-.47.46-.87,1.27-1.62.33Z"/><path class="cls-34" d="M162,157.56a52,52,0,0,0,10.71-9.06c.38-.17.77-.52,1.16-.11s.16.88,0,1.31a26.81,26.81,0,0,1-3.37,5.87A42.81,42.81,0,0,1,148,171.27c-.93.29-1.87.51-2.77.87a1.5,1.5,0,0,1-1.68-.26,15.1,15.1,0,0,1-1.79-3.29,1.68,1.68,0,0,1,1.23-1.23c3-1.12,6.1-1.73,9-3.14a55.24,55.24,0,0,0,9.68-6.06A.91.91,0,0,0,162,157.56Z"/><path class="cls-65" d="M143.55,171.88c4.55-1.63,9.22-2.92,13.45-5.4a39.29,39.29,0,0,0,15.57-15.93c.33-.63.91-1.3.2-2.05,1.89-2.31,3.5-4.81,5.18-7.27.24,3.07-1.23,5.69-2.46,8.27C170,161,161.1,168.81,149.22,173.27l-3.93,1.49A8.38,8.38,0,0,1,143.55,171.88Z"/><path class="cls-66" d="M120.87,169.26a73.72,73.72,0,0,1-11-6.16,29.28,29.28,0,0,1-7-6.62,4.71,4.71,0,0,1-1.11-2.13c1.82,1.22,3.61,2.5,5.47,3.66a36.74,36.74,0,0,0,9.43,4.46c.64.25,1.53-.3,2,.62a2.07,2.07,0,0,1,1.45,1.91A20.89,20.89,0,0,0,120.87,169.26Z"/><path class="cls-54" d="M162,157.56c.14,1.27-.89,1.78-1.65,2.4a37.14,37.14,0,0,1-12.61,6.78l-6,1.86a15.29,15.29,0,0,1-1.65-4.14c.1-.51.42-.49.81-.35a2.17,2.17,0,0,0,1.51,0,50.22,50.22,0,0,0,18.76-6.17C161.45,157.79,161.75,157.69,162,157.56Z"/><path class="cls-67" d="M142.41,164.12a6.75,6.75,0,0,1-2.32.34c-1.42-2.55-1.13-5.32-.9-8a42.51,42.51,0,0,1,1.83-8.82l1.62-.33a54.41,54.41,0,0,0-2.16,10.7,23.55,23.55,0,0,0,.28,4.64A1.71,1.71,0,0,0,142.41,164.12Z"/><path class="cls-68" d="M118.63,163.08a4.38,4.38,0,0,1-2-.62,2.58,2.58,0,0,0,.66-1.93,82.94,82.94,0,0,1,1.94-14.9l.33,0a3.84,3.84,0,0,1,.26,1.73Q119.25,155.24,118.63,163.08Z"/><path class="cls-69" d="M137.39,147.23c.5,1.19,1.55.47,2.34.68-.69,2.53-1.32,5.08-2,7.67A18.48,18.48,0,0,1,137.39,147.23Z"/><path class="cls-47" d="M219.49,133.27l1,5.19a52.37,52.37,0,0,1,1,8.11,40.8,40.8,0,0,1-1.3,10.37,36.63,36.63,0,0,1-3.43,7.11c-4.36,6.27-10.47,10-17.63,12.15a42.54,42.54,0,0,1-18.56,1.41,22.71,22.71,0,0,1-8.37-2.86l-2-1.92c-.69-.21-1.42-.38-1.52-1.29a6.31,6.31,0,0,1-.44-4.2c.32-1.51,1.37-2.12,3.18-2.07,7.56,2.16,15,2.86,22.31-1.11a26,26,0,0,0,6.49-5.27c.52-.55.06-1.37.68-1.82A4.94,4.94,0,0,0,202,154.8a2.65,2.65,0,0,0,1.65-2.53c.1-1.27.23-2.53.34-3.79a1.92,1.92,0,0,0,.68-2.17c-.47-1.9-.56-3.89-1.3-5.72.08-4.8-2.42-8.65-4.84-12.42a24.65,24.65,0,0,0-10-8.66c-1.08-.54-2.29-.55-3.34-1.12a96.91,96.91,0,0,0,.56-18.78,50.71,50.71,0,0,1,19.5,10.67,62.34,62.34,0,0,1,10.71,13.92C217.2,127.18,218.45,130.19,219.49,133.27Z"/><path class="cls-70" d="M86.16,130.69a44.18,44.18,0,0,0,3.6,8.75c0,.2-.15.39-.08.61,1.93,6.47,4.42,12.65,8.77,18a47.26,47.26,0,0,0,15.41,12.76,12.74,12.74,0,0,1,6.34,6.57,10.73,10.73,0,0,1,.49,7.32c-.5,1.85-1.09,2.24-3,2.25-3.94,0-7.89,0-11.83,0s-7.78-.14-11.66,0a13.28,13.28,0,0,1-8.72-2.85,37.5,37.5,0,0,1-9.08-9.48,3.89,3.89,0,0,0-1-1.13A109.55,109.55,0,0,1,68,157.91c.39-1,.9-.64,1.37-.09,1,1.23,2,2.55,2.93,3.87a39.62,39.62,0,0,0,7.22,8,10.41,10.41,0,0,0,6.95,2.63c3.45-.06,6.9,0,10.36,0a8.57,8.57,0,0,0,1.77-.13c1.49-.32,2-1.15,1.58-2.59a9.38,9.38,0,0,0-1.27-2.43c-2.37-3.67-5-7.15-7.14-11a56,56,0,0,1-7-22.85,9.28,9.28,0,0,1,0-2.26C85,130.18,85.44,129.93,86.16,130.69Z"/><path class="cls-71" d="M86.16,130.69c-.78.88-.56,1.91-.47,2.93.92,10.72,4.94,20.22,11.16,28.91a34.81,34.81,0,0,1,4.41,7.14c.68,1.71.15,2.83-1.65,3.27a9.7,9.7,0,0,1-2.25.2c-3.56,0-7.13-.1-10.68,0a11.32,11.32,0,0,1-8.21-3.2,46.15,46.15,0,0,1-7-8c-1-1.44-1.88-3-3.41-4.06a108.88,108.88,0,0,1-9-26.4c1-.88,1.34-.07,1.61.64.56,1.46,1,2.95,1.54,4.43a47.65,47.65,0,0,0,8.14,15,18,18,0,0,0,6.48,5,7.6,7.6,0,0,0,5.08.31c1.82-.44,2.9-2.21,2.71-4.43a51.67,51.67,0,0,0-.86-5.92,90.18,90.18,0,0,1-1.7-13,53.49,53.49,0,0,1,.38-10.46,3.85,3.85,0,0,1,.57-1.66.68.68,0,0,1,1.19-.14A43.13,43.13,0,0,0,86.16,130.69Z"/><path class="cls-56" d="M84.22,121.3a3.65,3.65,0,0,0-1,2.34c-1,7.48-.17,14.85,1.25,22.19.42,2.17.76,4.36,1,6.55.36,3.18-1.45,5.61-5.19,5.61-4.78,0-7.83-2.71-10.61-5.92-4.6-5.32-7.29-11.68-9.38-18.32a4.42,4.42,0,0,0-1.25-2.22c-1.78-11.84-1.37-23.51,2.75-34.87a41.33,41.33,0,0,1,6.83-12c.32.84-.17,1.45-.58,2.08a51,51,0,0,0-7.42,17.83,56.06,56.06,0,0,0,.51,23.28,46.18,46.18,0,0,0,3.76,11,18.54,18.54,0,0,0,7.62,7.89c2.75,1.58,6.43-.2,7.26-3.32a28.58,28.58,0,0,0,.59-6.59c.19-6.09.29-12.19,1.95-18.13a7.42,7.42,0,0,1,1.55-3.51Z"/><path class="cls-72" d="M204.9,148.85a17.09,17.09,0,0,1-1.95,6.82c-.68.4-1,.1-1.08-.58a7.5,7.5,0,0,1,0-1.93,25.37,25.37,0,0,0-6.29-20.27,10.22,10.22,0,0,0-5.87-3.66c-2.23-.41-3.56.43-3.73,2.66-.51,6.59-2.05,13-3.08,19.51,0,.16-.06.32-.08.48-.61,4.22.52,5.53,4.8,5.55,3,0,5.94,0,8.91,0a11.53,11.53,0,0,0,4.47-.53c.68-.28,1.06-.1.94.71-5,8.2-15.55,12-26.17,9.62a18,18,0,0,1-4-1.15c-.77-1.3-.24-2.49.36-3.65,1.4-2.65,3.12-5.13,4.39-7.87a68.56,68.56,0,0,0,5.12-15.48c.64-3.2.8-6.45,1.25-9.66l.27-.69c1.72-3,4.24-3.51,7.87-1.87,5.59,2.52,8.88,7.12,11.56,12.31C204.18,142.19,204.58,145.51,204.9,148.85Z"/><path class="cls-35" d="M75.41,173.5c1.86.75,2.82,2.48,4,3.88a36.59,36.59,0,0,0,8.85,7.51,8.57,8.57,0,0,0,4.48,1.21q12.15,0,24.3,0c2.07,0,2.66-.56,3-2.58A11.08,11.08,0,0,0,114.35,172a48.27,48.27,0,0,1-22.9-24.82,32.42,32.42,0,0,1-2-5.82c-.14-.7-.32-1.39.29-2A26.9,26.9,0,0,1,92,143.34,3.51,3.51,0,0,0,92.3,146,44.33,44.33,0,0,0,115,170.2c3.35,1.59,5.07,4.46,6.26,7.7a29.13,29.13,0,0,1,1.92,11.26c-.09,2.21-.87,3.09-3.05,3.1-8.15,0-16.3.14-24.44,0-3.8-.09-6.72-2.45-9.38-5-1.69-1.59-3.24-3.32-4.88-5-.47-.47-.87-1.17-1.74-1A67.41,67.41,0,0,1,75.41,173.5Z"/><path class="cls-20" d="M169.45,171.53l.73,1.31a10.16,10.16,0,0,0-4.47,4.31,2,2,0,0,1-1.84,1.13c-2.64,0-5.29,0-7.93,0-1.18,0-1.73-.45-1.3-1.85a7.71,7.71,0,0,1,3.15-3.78,66.35,66.35,0,0,0,14.3-14.42,51.49,51.49,0,0,0,8.29-19.36,3.14,3.14,0,0,0-.19-2.06l1.42-3.49c1.31-.41.83.57.82,1.11a32.14,32.14,0,0,1-1.35,7.79,61.75,61.75,0,0,1-10.63,22.23,19.1,19.1,0,0,0-2.75,3.8c-.81,1.83-.82,1.91,1,2.78A2.1,2.1,0,0,1,169.45,171.53Z"/><path class="cls-63" d="M185.13,118.39c.45-1.14,1.22-.75,2-.42a28.65,28.65,0,0,1,17.1,22.11c-1.18.87-1.36-.27-1.66-.9a28.38,28.38,0,0,0-4.45-6.95c-2.56-2.81-5.35-5.26-9.26-6a26.91,26.91,0,0,0-3.17-.22c-.64-.05-1.34,0-1.59-.8Z"/><path class="cls-73" d="M52.49,210.77c-1.11.08-1.61-.79-2.17-1.46-1.94-2.31-3.83-4.66-5.73-7a6.89,6.89,0,0,1-1.4-3.23c-.73-4.25-1.42-8.5-2.11-12.75a2.29,2.29,0,0,1,.31-2.15C44.75,193.19,48.74,201.93,52.49,210.77Z"/><path class="cls-20" d="M169.45,171.53c-.8.12-1.6.29-2.4.35-1.34.1-1.86-.59-1.3-1.78a18.78,18.78,0,0,1,2.16-3.6c6.69-8.46,11.73-17.73,13.63-28.48.27-1.55,1-3.14.06-4.72l1.3-3.88c.66,3.1-.08,6.13-.63,9.13a70.42,70.42,0,0,1-7.93,21.62,22.38,22.38,0,0,0-2.56,5.91c-2.44-.07-3.15.66-2.9,3.14A16.5,16.5,0,0,0,169.45,171.53Z"/><path class="cls-20" d="M184.09,125.16c9.14-.56,14.17,5.07,18.25,12.13a7.93,7.93,0,0,0,1.88,2.79,22,22,0,0,1,.67,8.77c-.87-1.42-.93-3.07-1.35-4.62-1.85-6.86-5.33-12.55-11.62-16.21-3.24-1.88-5.85-1.61-8.75.7A16.17,16.17,0,0,1,184.09,125.16Z"/><path class="cls-74" d="M132.55,87.91c-8.93-4.09-18-3.42-27.15-.85l-1.71.46a9.24,9.24,0,0,0-2.57.58C97,89.51,93,91.31,88.67,92a10.54,10.54,0,0,0-2.73,1,6.2,6.2,0,0,1-1.64.69c-1.15.17-2.65.67-3.32-.38-.8-1.25-2-2.5-1.34-4.41a17.93,17.93,0,0,1,6-8.09c6.31-5.25,13.74-7.52,21.81-7.95A51.23,51.23,0,0,1,127.37,76a36.62,36.62,0,0,1,13.28,7.74A14.85,14.85,0,0,1,144.3,89c.64,1.57.07,2.52-1.63,2.52a7.85,7.85,0,0,1-3.78-.73c-1.72-.93-3.64-1.47-5.24-2.64A1.46,1.46,0,0,0,132.55,87.91Z"/><path class="cls-59" d="M132.55,87.91c2.33-.47,4.12,1,6.06,1.8a10.75,10.75,0,0,0,3.41.9c1.5.11,1.85-.42,1.26-1.84-1.29-3.07-3.74-5.12-6.3-7-6.85-5-14.77-7.2-23.08-8.14a39.3,39.3,0,0,0-21.72,3.74A26.58,26.58,0,0,0,81.4,86.89a4.5,4.5,0,0,0,.27,5.58c.7,1,1.82.67,2.68.29,4.8-2.13,10-2.92,14.93-4.7,1.39-.5,2.84-1.14,4.4-.54-2.67,1.24-5.44,2.3-7.78,4.17-.74-.47-1.35,0-2,.28-4.67,1.86-8.87,4.72-13.59,6.49-1.38.52-2.77,1.33-4.11.2A4,4,0,0,1,75,94a26.3,26.3,0,0,1,5.74-9.67C90.69,73.48,103.32,71,117.19,72.82a47.5,47.5,0,0,1,23.32,9.4A30.87,30.87,0,0,1,149,92.08c1,1.81,2.06,3.77.35,5.87-1.17,1.44-2.3,1.49-3.92.57-2.69-1.51-4.56-3.93-6.9-5.8a7.48,7.48,0,0,0-2.79-1.59A14.66,14.66,0,0,0,132.55,87.91Z"/><path class="cls-14" d="M115.66,96.28c.77.2,1.48.49,1.51,1.43s-.69,1.26-1.36,1.63a33.43,33.43,0,0,0-10.06,7.7,22,22,0,0,0-4.34,8.39,6,6,0,0,1-1,2.35c-.62-2.57,0-5.06.76-7.45A20.14,20.14,0,0,1,115.66,96.28Z"/><path class="cls-75" d="M160.41,126.85c1.91,0,2.55,1,1.73,2.89a27.61,27.61,0,0,1-7.47,9.64,18.23,18.23,0,0,1-6.65,3.91c-2.18.65-3-.08-2.55-2.32a9.8,9.8,0,0,1,1.23-3.15,24.88,24.88,0,0,1,10.12-10A9.53,9.53,0,0,1,160.41,126.85Z"/><path class="cls-76" d="M202,157.6a11.1,11.1,0,0,1-4.44.65c-3.89,0-7.77,0-11.66,0-2.89,0-4-1.19-4-4a32,32,0,0,1,.92-7.21,125.61,125.61,0,0,0,2.34-15.19q.44-4.71,5-3.37c3.26,1,5.6,3.24,7.59,5.81a25.39,25.39,0,0,1,5.1,19,4.6,4.6,0,0,0,.17,2.39A4.3,4.3,0,0,1,202,157.6Z"/><path class="cls-77" d="M109.73,75.17c6.13.79,12.35,1.21,18,4.13a18.63,18.63,0,0,1,3.55,2.53c.33.28.7.58.51,1.09a1.07,1.07,0,0,1-1,.65,22.35,22.35,0,0,1-2.58,0c-10.49-.63-20.93-.41-31.27,1.73-1.43.3-2.84.64-4.28.88a2.4,2.4,0,0,1-2.94-1.62,2.43,2.43,0,0,1,.84-3.12,22.83,22.83,0,0,1,12-5.34C104.89,75.74,107.24,75,109.73,75.17Z"/><path class="cls-75" d="M194.8,145.91c-5,.44-6.57-2.2-7-6a45.41,45.41,0,0,1-.08-7.12c.12-2.12,1.41-2.87,3.48-2.27a7.49,7.49,0,0,1,3.22,2.11,16.3,16.3,0,0,1,5.1,10.21c.19,2.42-.56,3-3.06,3.08C195.91,145.92,195.31,145.91,194.8,145.91Z"/></g></g></g></svg>