<svg xmlns="http://www.w3.org/2000/svg" viewBox="0 0 163.86 111.12"><title>mysql</title><g id="Layer_2" data-name="Layer 2"><g id="prog"><g id="mysql"><path d="M30.54,73.19c-2.78,8.69-5.12,16.1-7.53,23.48-.7,2.14-1,4.75-4.29,4.57-3-.16-3.13-2.58-3.77-4.56-2.39-7.38-4.73-14.78-7.48-23.4C5.92,81.89,6.05,89.21,6,96.51c0,2,.58,4.75-2.89,4.6C0,101,0,98.67,0,96.4,0,86.72,1.1,77.12,2,67.51c.21-2.13.52-4,3.26-4.12s5.34-.32,6.39,3.18c1.73,5.74,3.67,11.42,5.56,17.11.57,1.71.74,3.59,2.45,5.47,2.49-4.54,3.44-9.37,5.07-13.91,1.07-3,2.15-6,3-9s3.2-2.87,5.57-2.89c2.63,0,3.4,1.55,3.59,3.81.82,10,2.14,19.87,2.21,29.88,0,2.2.35,4.45-3,4.53s-3.09-2-3.39-4.3C31.75,89.76,32.65,82.06,30.54,73.19Z"/><path d="M83.14,63.08a12.68,12.68,0,0,1,6.05,1.2c1.29.6,3.07,1,2.29,3.13-.65,1.74-2,1.25-3.35,1a26.15,26.15,0,0,0-4.44-.54c-2.68-.07-5,.71-5.94,3.53s.72,4.51,2.72,5.84c2.48,1.66,5.1,3.12,7.72,4.55,4.32,2.36,7,5.62,6.11,10.84s-4.52,7.87-9.43,9a16.89,16.89,0,0,1-11.16-1.41c-1.32-.61-3-1.23-2.35-3.2s2.3-1.43,3.74-.88a12.71,12.71,0,0,0,7.82.66,5.6,5.6,0,0,0,4.48-4.21c.51-2.23-.67-4-2.33-5.14-2.44-1.72-5.08-3.14-7.65-4.66-5.58-3.3-7.44-7-6.13-12.26C72.46,65.84,76.85,63,83.14,63.08Z"/><path d="M55.41,95A82,82,0,0,0,60,76.83c.35-2.21,1-3.89,3.72-3.59,3.22.35,2.48,2.66,2.1,4.51-1.93,9.32-4.14,18.58-9.51,26.65-2.66,4-6,7.2-11.45,6.66-1.36-.14-2.76-.36-2.75-2.2,0-1.61,1.3-1.58,2.43-1.91,6-1.75,7.05-3.43,5.3-9.36-1.93-6.55-4.22-13-6.16-19.53-.46-1.55-2.63-3.91.76-4.8,2.6-.69,4.41.37,5.22,3.2C51.36,82.2,53.21,87.88,55.41,95Z"/><path d="M157.73,50.13c-3.89-2.55-7.57-5.45-12.21-6.63-2.29-.58-3.56-2.33-4.5-4.36-1.61-3.47-3.2-7-4.84-10.41-5.47-11.57-13.32-20.25-26.86-22a4.27,4.27,0,0,1-1.3-.69c-.73-1.59-2.28-2.16-3.65-3-1-.55-2.13-1-1.4-2.51,9.65,4.34,20.57,6,28.13,14.66C136,20.91,139,27.41,142,34.08c1.72,3.95,4,7,8.27,8.6A23.86,23.86,0,0,1,159,49C159.14,50,158.74,50.45,157.73,50.13Z"/><path d="M133.21,64.09a4.75,4.75,0,0,1,4.88-.15c-1.27,7.72-.06,15.49-.65,23.23.58-7.73-.61-15.51.64-23.23,1.9,6.34.4,12.84.87,19.25.07,1,0,2,0,3C139,96.32,139,96.32,149,97c1,1.81.93,3.18-1.51,3.5-.33,0-.66,0-1,0-13,1-12.92,1-13-12.13C133.46,80.27,134,72.17,133.21,64.09Z"/><path d="M103,.6c1.43,2.06,4.61,2.5,5.06,5.46-2.71-1-5.84-4.67-7.95-2.48-2.57,2.66,2,4.78,3.2,7.29,2.14,4.65,3,9.89,6.35,14,.47.58.34,2,0,2.85-2,5-1.56,10.08-.49,15.18.45,1.08-.06,1.24-1,1-3.11-4.15-2.43-8.84-1.54-13.36a11,11,0,0,0-1.09-8c-2.75-5-3.84-10.89-7.73-15.47-1.27-1.5-.86-3.85.31-5.55S101.12-.36,103,.6Z"/><path d="M108.17,43.9l1-1c1.09.6,2.41,2.78,3-.43a19.13,19.13,0,0,1,.56-2.92c.47-1.38.77-3.29,2.48-3.35,1.55-.06,1.48,1.91,2.09,3,1.75,3.13,3.45,6.28,5.5,10-3.88-1-4.53-4.39-6.89-6.51-1.48,1.49-.78,5-3.77,5C109.79,47.66,108.54,46.12,108.17,43.9Z"/><path d="M157.73,50.13,159,49c3.31,2.74,1.51,3.57-1.48,4.14-1.56.3-3.94-.14-4.35,1.62S155.31,57,156.5,58c1.59,1.39,3.72,2.26,4.45,5.16-4.19-1.56-7.87-3.19-10.85-6.05-3.2-3.08-2.79-4.33,1.38-5.6C153.54,50.89,155.86,51.52,157.73,50.13Z"/><path d="M133.21,64.09c1.79,7.5.42,15.12.83,22.67.08,1.48,0,3,0,4.46,0,8.13,5.4,11.59,13.09,8.42A3.21,3.21,0,0,0,149,97c2.74,1.75,2.36,3.16-.49,4.23a4.18,4.18,0,0,1-1.48.1c-17.55-.26-13.88,2.48-14.19-13.37C132.73,80,133.09,72,133.21,64.09Z"/><path d="M161.73,97.54c1.29-.56,2-.08,2.12,1.16.2,2.19-1.49,2.39-2.94,2.28-1-.08-2.89.75-2.83-1.59C158.17,96.44,160.75,98.51,161.73,97.54Z"/><path d="M125.25,100.71c-2.58-1.08-3.14-2.28-1.3-4.78,3.12-4.22,3.4-9.29,3.37-15.48,0-.53-.09-2.2-.26-3.85-.8-7.82-5.13-12.79-11.71-13.47-9-.93-14.91,2.71-17.26,10.84a34,34,0,0,0-.3,17.31c1.69,7.27,6,10.84,13.5,10.74,4.12-.05,7.92.38,11.34,2.89,1.54,1.14,3.15,2,4.5-.52C128.38,102.07,126.8,101.35,125.25,100.71ZM119.32,92a8.11,8.11,0,0,1-7,5.65c-3.33.2-5.79-2.33-7.13-5.36a50.53,50.53,0,0,1-2-6.67,8.64,8.64,0,0,1,0-7.3,53.91,53.91,0,0,1,2-6.12A7,7,0,0,1,112.54,68a6.78,6.78,0,0,1,6.54,4.54A27.17,27.17,0,0,1,119.32,92Z"/><path d="M103.24,78.35q0,3.65,0,7.3l-.29,1.92-.67,0c0-3.45-.12-6.91.15-10.33C102.45,76.83,102.94,78,103.24,78.35Z"/><path d="M138.08,63.94v29.7c-.41-9.91-2.28-19.83,0-29.7Z"/></g></g></g></svg>