<svg xmlns="http://www.w3.org/2000/svg" viewBox="0 0 404.01 293.93"><defs><style>.cls-1{fill:#ee2b2d;}.cls-2{fill:#002868;}.cls-3{fill:#fefefe;}.cls-4{fill:#cfd6e2;}.cls-5{fill:#ef3e40;}</style></defs><title>norway</title><g id="Layer_2" data-name="Layer 2"><g id="prog"><g id="norwegian"><path class="cls-1" d="M183.83,0Q293.42,0,403,0c.78,0,1,.11,1,1q0,54.67,0,109.34c-.47,0-.94-.06-1.41-.06H185c-1.41,0-1.41,0-1.41-1.46q0-53.68,0-107.35c0-.4,0-.81,0-1.21Z"/><path class="cls-1" d="M404,183.62q0,54.67,0,109.34c0,.85-.22,1-1,1q-109.59,0-219.18,0l-.16-.2c0-.4,0-.81,0-1.21q0-53.68,0-107.35c0-1.46,0-1.46,1.41-1.46H402.58C403,183.68,403.52,183.64,404,183.62Z"/><path class="cls-2" d="M128.48,0h36.76l0,.21c0,.4,0,.81,0,1.21q0,62.91,0,125.83c0,1.34,0,1.34,1.32,1.34h236c.47,0,.93,0,1.4.08v36.56c-.47,0-.93.08-1.4.08q-118.05,0-236.1,0c-1,0-1.24.27-1.24,1.26q0,63,0,126c0,.37,0,.74,0,1.11l0,.21H128.48c0-.37.05-.74.05-1.1q0-63.1,0-126.21c0-1.27,0-1.27-1.31-1.27H1.32c-.43,0-.87,0-1.3-.08V128.69c.43,0,.87-.08,1.3-.08h125.9c1.31,0,1.31,0,1.31-1.27q0-63.1,0-126.21C128.54.76,128.5.39,128.48,0Z"/><path class="cls-1" d="M0,110.3Q0,55.64,0,1C0,.16.16,0,1,0Q55.54,0,110.1,0c0,.37.08.73.08,1.1q0,53.92,0,107.84c0,1.29,0,1.29-1.32,1.29H1.33C.89,110.25.46,110.28,0,110.3Z"/><path class="cls-1" d="M110.1,293.91q-54.56,0-109.12,0c-.82,0-1-.16-1-1q0-54.66,0-109.32c.44,0,.87.06,1.31.06H108.86c1.32,0,1.32,0,1.32,1.29q0,53.92,0,107.84C110.18,293.17,110.13,293.54,110.1,293.91Z"/><path class="cls-3" d="M404,128.69c-.47,0-.93-.08-1.4-.08h-236c-1.32,0-1.32,0-1.32-1.34q0-62.91,0-125.83c0-.4,0-.81,0-1.21l.15-.21h18.18l0,.2c0,.4,0,.81,0,1.21q0,53.68,0,107.35c0,1.46,0,1.46,1.41,1.46H402.58c.47,0,.94,0,1.41.06Z"/><path class="cls-3" d="M165.29,293.7c0-.37,0-.74,0-1.11q0-63,0-126c0-1,.2-1.26,1.24-1.26q118.05,0,236.1,0c.47,0,.93,0,1.4-.08v18.38c-.47,0-.94.06-1.41.06H185c-1.41,0-1.41,0-1.41,1.46q0,53.68,0,107.35c0,.4,0,.81,0,1.21l0,.2H165.45Z"/><path class="cls-3" d="M0,110.3c.44,0,.87-.06,1.31-.06H108.86c1.32,0,1.32,0,1.32-1.29q0-53.92,0-107.84c0-.37-.05-.73-.08-1.1h18.38c0,.37.05.74.05,1.1q0,63.1,0,126.21c0,1.27,0,1.27-1.31,1.27H1.32c-.43,0-.87,0-1.3.08Z"/><path class="cls-3" d="M110.1,293.91c0-.37.08-.73.08-1.1q0-53.92,0-107.84c0-1.29,0-1.29-1.32-1.29H1.33c-.44,0-.87,0-1.31-.06q0-9.19,0-18.38c.43,0,.87.08,1.3.08h125.9c1.31,0,1.31,0,1.31,1.27q0,63.1,0,126.21c0,.37,0,.74-.05,1.1Z"/><path class="cls-4" d="M165.45,0l-.15.21,0-.21Z"/><path class="cls-5" d="M183.66.22l0-.2h.2Z"/><path class="cls-4" d="M165.29,293.7l.15.21h-.2Z"/><path class="cls-5" d="M183.62,293.91l0-.2.16.2Z"/></g></g></g></svg>