<svg xmlns="http://www.w3.org/2000/svg" viewBox="0 0 323.04 322.77"><defs><style>.cls-1{fill:#8e8e8e;}.cls-2{fill:#7c7c7c;}.cls-3{fill:#767676;}.cls-4{fill:#878787;}.cls-5{fill:#828282;}.cls-6{fill:#fefefe;}.cls-7{fill:#fdfdfd;}.cls-8{fill:#010101;}</style></defs><title>phpstorm</title><g id="Layer_2" data-name="Layer 2"><g id="prog"><g id="phpstorm"><path d="M61.7,259.21l-.27-10.77a15.77,15.77,0,0,1-1.33-6.78q0-88.41,0-176.83c0-6.6.44-6.88,7.16-7,11.46-.27,22.92-.35,34.39-.83,17.75-.75,35.61-.89,53.36-.11,33.92,1.5,67.84.58,101.76,1,1.81,0,3.68-.25,5.37.74,2.33,2.27,1.82,5.26,1.85,8,.15,15,.06,30,.07,45q0,68.75,0,137.49c0,12.62-.09,12.7-12.88,12.7-50.33,0-100.67.49-151-.32C87.45,261.24,74.53,260.22,61.7,259.21Z"/><path class="cls-1" d="M61.7,259.21l192.8.25c7.26,0,7.27,0,7.27-7.37q0-93.66,0-187.31c0-1.83-.09-3.66-.14-5.49-1.74-.9-3.6-.45-5.4-.45-31.33,0-62.66,0-94-.09-2.29,0-5.61,1.54-6.74-1.22-1.2-2.94,2-4.54,3.86-6.31,2.85-2.46,5.55-5.1,8.27-7.71,1.42-1.36,2.83-2.83,5.11-2.33,7.9-5.36,14.25-12.49,21.2-18.91,3.53-3.26,6.77-4.39,11.59-3.44,23.85,4.71,47.76,9.1,71.68,13.46,3.35.61,5.24,2.07,6.39,5.3,11.51,32.17,25,63.54,38.6,94.86,1.5,3.47,1.05,5.7-1.55,8.34-10.64,10.79-21,21.88-31.68,32.61-2.74,2.75-3,4.85-1.19,8.18,11.31,21.34,22.34,42.83,33.71,64.13,2.12,4,1.63,5.86-2.26,8.17q-56.55,33.47-112.88,67.32a9.48,9.48,0,0,1-8.89.85q-49.47-17.46-99-34.68c-3.67-1.27-5.88-2.9-6.2-7.2-.39-5.29-1.85-10.49-2.45-15.78-.39-3.48-2.08-4.45-5.27-4.37-5.83.13-11.66.06-17.49,0C65.22,260,63.33,260.38,61.7,259.21Z"/><path class="cls-1" d="M60.56,247.43h-23c-7.3,0-7.39,0-8.54-6.92Q16.79,166.84,4.6,93.15C3.43,86.09,2.82,78.86.9,72-1.4,63.82.71,57.8,7.4,53c2.31-.4,4.11.49,5.9,1.92,14.46,11.5,29,22.85,43.27,34.63,2.06,1.7,4.76,3.34,4.54,6.75q0,72.89,0,145.74C61.09,243.85,61.61,245.73,60.56,247.43Z"/><path class="cls-2" d="M60.56,247.43q0-76.55,0-153.1c-1.93-2.1-2.33-4.68-2.34-7.39,0-8.13-.24-16.26.14-24.38C59.7,56.3,60,56,66.54,55.89c10.79-.14,21.58,0,33.28,0-7.58-3.62-14.49-6.72-21.41-9.78C65.81,40.5,53.34,34.67,40.79,29c-2.8-1.27-7.38-1.64-6.26-6.82A152.71,152.71,0,0,1,47.6,7.27c6.89-.47,13,2.63,19.29,4.52C95.69,20.42,124.42,29.33,153.22,38c5.92,1.78,8,5.87,8.66,11.39a9.18,9.18,0,0,1-.23,2c-1,2.4-5.3,3.75-4.16,6.09,1,2.12,4.88.81,7.46.81,29.79.07,59.58,0,89.36.06,2.47,0,5-.42,7.31,1q-97.16,0-194.32-.2c-5.25,0-5.86,2.15-5.85,6.53q.18,88.92.1,177.84c0,1.66-.08,3.32-.12,5Z"/><path class="cls-3" d="M161.64,51.33c-.55-.62-1.48-1.17-1.59-1.86-1.21-7.55-7.16-9.09-13.19-10.89Q99.29,24.31,51.77,9.82A7.23,7.23,0,0,1,47.6,7.27a3.42,3.42,0,0,1,.19-.46C51.7.3,56.65-1.08,64.4.73c32.56,7.61,65.31,14.43,98,21.35,3.77.8,5.85,2.31,6.68,6.11,1,4.38,2.39,8.65,3.62,13C169.4,44.95,166.44,49.14,161.64,51.33Z"/><path class="cls-4" d="M60.56,61.31q0,16.51,0,33c-7-2.7-11.86-8.28-17.52-12.77C31.1,72.1,19.27,62.54,7.4,53a170.59,170.59,0,0,1,14-16c3-.53,5.46,1,7.79,2.48C37.79,45,46.62,50.18,55.27,55.65A12.86,12.86,0,0,1,60.56,61.31Z"/><path class="cls-5" d="M60.56,61.31A445.27,445.27,0,0,1,21.4,37,155.59,155.59,0,0,1,34.54,22.17C40,27.38,47.33,29,53.87,32.11c16.35,7.74,32.92,15,49.36,22.55,1.4.64,3.22.92,3.86,2.84-1.62,1.38-3.52.75-5.24.76-11.79.07-23.59,0-35.38.06C64.06,58.32,61.26,57.8,60.56,61.31Z"/><path class="cls-6" d="M79.62,126.82c0-12.66.07-25.31-.05-38,0-2.71.61-3.82,3.56-3.77,11.65.21,23.34-.26,35,.37,11.36.62,20.76,5.57,25.19,16.66,4.36,10.91,3.52,21.65-4.32,31-5.68,6.76-13.53,9.5-22.07,10.18a121.43,121.43,0,0,1-14.48.15c-3.23-.13-4.47.88-4.35,4.21.21,5.65-.1,11.33.11,17,.11,3.12-1,4.12-4,3.91-4.62-.31-10.65,1.42-13.52-.89-3.07-2.47-.87-8.73-1-13.33C79.5,145.14,79.62,136,79.62,126.82Z"/><path class="cls-6" d="M182.45,84.14a48.19,48.19,0,0,1,28.48,8.36c2.21,1.47,2.9,2.68,1,5-2.61,3.22-4.13,8.08-7.4,9.82s-6.68-3-10.34-4.26c-5.1-1.77-10.11-3.44-15.55-2.22-3.44.77-6.34,2.39-6.77,6.34s1.94,6.26,5.31,7.51c3.58,1.33,7.26,2.37,10.92,3.5s7.4,2,11,3.35c12.92,4.95,18,12.54,17,24.91-.94,11.61-8.3,20-20.67,22.45-15.53,3.14-29.68-.48-42.46-9.78-2.21-1.61-3.31-2.93-.87-5.41,2.9-3,4.86-7.62,8.29-9.09s6.42,3.42,9.91,5c5.89,2.74,11.89,4.32,18.36,3.6,4.12-.46,8.09-1.64,8.92-6.49.86-5-2.7-7-6.62-8.6-7.88-3.17-16.44-4.15-24.19-7.75s-12.59-9-13.25-17.8c-.75-10.09,2.21-18.43,11.1-24A30.46,30.46,0,0,1,182.45,84.14Z"/><path class="cls-7" d="M117.9,234.47c-11.14,0-22.29-.14-33.43.08-3.57.07-4.53-1.14-4.43-4.54.3-9.83-1-8.15,8.2-8.19,20.29-.09,40.58,0,60.87,0,6.34,0,6,0,6.45,6.49.36,5-1.12,6.53-6.24,6.32C138.87,234.17,128.37,234.47,117.9,234.47Z"/><path class="cls-8" d="M98.12,114.29c0-12.83,0-12.83,12.89-12.47,9.65.27,14.79,3.73,15.66,10.54.9,7.09-2.67,12.39-9.63,14.06a27.29,27.29,0,0,1-5.9.7C98.12,127.3,98.12,127.28,98.12,114.29Z"/></g></g></g></svg>