<svg xmlns="http://www.w3.org/2000/svg" viewBox="0 0 96.86 95.06"><defs><style>.cls-1{fill:#4d4d4d;}</style></defs><title>python</title><g id="Layer_2" data-name="Layer 2"><g id="prog"><g id="Python"><path d="M69.17,13.91a25,25,0,0,0-8.3-9.57,26.56,26.56,0,0,0-29.11,0,21.26,21.26,0,0,0-5.88,6V23.59c6-.18,14.54-.37,21.92-.55L46.6,26.91l-36.22.88A28.73,28.73,0,0,0,.61,43.51c-3.16,14.49,7,25.54,8,26.55l12.16.55q.69-7.05,1.38-14.11a15.15,15.15,0,0,1,7.19-8.57,15,15,0,0,1,9.78-1.39L63.64,46l5-6.64C69.48,37.58,75,25.68,69.17,13.91ZM33.35,17.23a4.56,4.56,0,1,1,4.56-4.56A4.56,4.56,0,0,1,33.35,17.23Z"/><path class="cls-1" d="M26,80.82a25.61,25.61,0,0,0,8.49,9.79,27.64,27.64,0,0,0,30.07,0,23.3,23.3,0,0,0,6.29-6.11V70.92c-8,.19-15.16.38-22.71.57l1.1-4,37-.9a29.4,29.4,0,0,0,10-16.08C99.48,35.7,89,24.4,88,23.37L75.57,22.8,74.16,37.24A15.51,15.51,0,0,1,66.8,46a15.35,15.35,0,0,1-10,1.42L31.7,48l-5.09,6.79C25.73,56.6,20.08,68.79,26,80.82Zm36.65-3.4A4.67,4.67,0,1,1,58,82.09,4.67,4.67,0,0,1,62.69,77.42Z"/></g></g></g></svg>