<svg xmlns="http://www.w3.org/2000/svg" viewBox="0 0 276.97 284.85"><title>unity</title><g id="Layer_2" data-name="Layer 2"><g id="prog"><g id="unity"><path d="M0,141.52c7.17-7,14.55-14,21.77-21.17Q50.52,91.76,79.09,63a11.7,11.7,0,0,1,9.62-3.87c8,.34,16.07.07,24.1.36,3.2.11,5-1.06,6.43-3.8,4.06-7.55,8.26-15,12.67-22.39a9.06,9.06,0,0,1,4.71-3.93Q190.95,14.53,245.37,0a8.17,8.17,0,0,1,2.11.15c4,14.83,7.91,29.76,11.91,44.68,5.71,21.3,11.54,42.57,17,63.92a12.29,12.29,0,0,1-1.11,8c-3.91,7.42-8.26,14.61-12.69,21.74-1.67,2.68-1.7,4.77,0,7.48q6.91,11.17,13.27,22.67a8.2,8.2,0,0,1,.94,5.48q-14.43,54.71-29.16,109.34c-.09.33-.4.59-.89,1.3-13.88-3.67-27.94-7.36-42-11.11-22-5.88-44-11.68-66-17.85a14,14,0,0,1-7.25-5.52c-4.57-7-8.31-14.59-12.81-21.66a8.4,8.4,0,0,0-5.9-3.33c-8.75-.3-17.53.11-26.29-.06a9.09,9.09,0,0,1-5.74-2.21Q41,183.57,1.32,143.8A14.92,14.92,0,0,1,0,141.52ZM230.83,57.28c-1,1.31-1.49,1.82-1.84,2.41-15.25,26.37-30.44,52.79-45.81,79.09-1.65,2.83-1.3,4.84.2,7.42q18.72,32.16,37.26,64.43c3.15,5.44,6.37,10.84,10.07,17.12,8-28.54,15.63-55.87,23.17-83.24a10.5,10.5,0,0,0-.25-5.29C246.16,112.18,238.61,85.17,230.83,57.28ZM205.77,42.93c-1.82.32-2.66.41-3.47.62-26.48,6.76-53,13.49-79.4,20.38a12.65,12.65,0,0,0-5.42,3.37q-28.29,28.64-56.4,57.45A29.13,29.13,0,0,0,58.73,128c32.14,0,63.54.06,94.94-.16,1.75,0,4.11-2,5.12-3.71C168,108.61,177,92.93,186,77.28,192.43,66.1,198.87,54.92,205.77,42.93ZM58.63,156.58A18.61,18.61,0,0,0,60,158.8q28.9,29.54,57.89,59A13.78,13.78,0,0,0,124,221c18.3,4.85,36.64,9.55,55,14.25,8.62,2.21,17.27,4.3,27,6.72-16.45-28.42-32.2-55.72-48.17-82.9-.82-1.4-3.52-2.36-5.36-2.38-15.69-.18-31.39-.1-47.08-.1Z"/></g></g></g></svg>