<svg xmlns="http://www.w3.org/2000/svg" viewBox="0 0 364.22 365.34"><title>windows</title><g id="Layer_2" data-name="Layer 2"><g id="prog"><g id="windows"><path d="M364.21,0c0,.34,0,.67,0,1q0,85.36,0,170.72c0,1.71.06,1.45-1.43,1.46-6.94.07-13.89.07-20.83.12l-49.19.41-23.13.18-23.13.18-23.13.18-23.13.18-23.13.18-9.18.08c-.3,0-.6,0-.94,0V28.9l6.23-.94L186.44,26,201,23.91l14.49-2.13,14.41-2.09,14.5-2.11,14.4-2.11,15.85-2.32,14.4-2.09,15.76-2.31,14.4-2.1,15.67-2.28,14.4-2.11L363.63.19A1.47,1.47,0,0,0,364,0Z"/><path d="M0,51.77l7.44-1,12.88-1.74L33,47.32,45.9,45.57l12.7-1.73,14.33-1.95,12.7-1.74,12.88-1.75,12.7-1.73,12.88-1.75,12.79-1.75L148,31.64a6.54,6.54,0,0,1,.79,0c0,.41,0,.74,0,1.07q0,70.53,0,141.05c0,1.22,0,1.23-1.18,1.24l-31.84.16-35,.21-32,.18-32.67.18-14,.08H.23c0-.46,0-.87,0-1.28Q.17,129.67.12,84.79c0-.48-.08-1-.12-1.45Q0,67.56,0,51.77Z"/><path d="M166.83,337.5V192.78h1.11q37,0,74,.06,46.72.06,93.44.16l27.63.07c1.23,0,1.23,0,1.23,1.2q0,85,0,170c0,.3,0,.6,0,1.09Z"/><path d="M148.7,335.21c-1.24-.16-2.5-.3-3.76-.47l-14.05-2-12.61-1.72-14.14-2L88.54,327l-16.69-2.26-14-1.94-14.06-1.91-14-1.94L16,317c-4.72-.65-9.43-1.28-14.14-2-1.63-.23-1.63-.28-1.63-1.91q0-60.44,0-120.87c0-.45,0-.9,0-1.52l148.48,1Z"/></g></g></g></svg>