<svg xmlns="http://www.w3.org/2000/svg" viewBox="0 0 216.69 241.85"><defs><style>.cls-1{fill:#8c8c8c;}.cls-2{fill:#f1f1f1;}.cls-3{fill:#9a9a9a;}.cls-4{fill:#979797;}.cls-5{fill:#e1e1e1;}.cls-6{fill:#818181;}.cls-7{fill:#a4a4a4;}.cls-8{fill:#c9c9c9;}.cls-9{fill:#727272;}.cls-10{fill:#bbb;}.cls-11{fill:#7f7f7f;}.cls-12{fill:#868686;}.cls-13{fill:#ebebeb;}.cls-14{fill:#777;}.cls-15{fill:#6d6d6d;}.cls-16{fill:#616161;}.cls-17{fill:#797979;}.cls-18{fill:#888;}.cls-19{fill:#8f8f8f;}.cls-20{fill:#8d8d8d;}.cls-21{fill:#7e7e7e;}.cls-22{fill:#848484;}.cls-23{fill:#858585;}.cls-24{fill:#cbcbcb;}.cls-25{fill:#bebebe;}.cls-26{fill:#8a8a8a;}.cls-27{fill:#dcdcdc;}.cls-28{fill:#898989;}.cls-29{fill:#929292;}.cls-30{fill:gray;}.cls-31{fill:#787878;}.cls-32{fill:#949494;}</style></defs><title>android</title><g id="Layer_2" data-name="Layer 2"><g id="prog"><g id="android"><path class="cls-1" d="M210.2,71.69a79.53,79.53,0,0,1,3.87,13.1,93.23,93.23,0,0,1,2.41,19.9c.37,2.82.26,3-2.52,3-8.52,0-17,0-25.56,0-2.32,0-4.64-.2-7-.08a3.71,3.71,0,0,1-3-1.25Q168.75,96.55,159,86.88L125.27,53.14q-1.16-1.15-2.2-2.41c-.81-.42-1.28-1.52-2.45-1.2a9.06,9.06,0,0,1-2.26.15H99.49a14.85,14.85,0,0,0-1.51,0,1.58,1.58,0,0,0-1.56,1.52,9.15,9.15,0,0,0,0,1.13q0,6.73,0,13.47c0,.84.1,1.67.17,2.51a1.18,1.18,0,0,1-1.29,1.46c-1.51.06-3,0-4.53,0-3.52.09-6.74.93-9.14,3.73a10.77,10.77,0,0,0-2.85,7.2q0,10.64,0,21.27a15,15,0,0,0,.11,2.26,3.35,3.35,0,0,0,.84,3.33c.34.36.21.75-.17,1a8.14,8.14,0,0,1-2.87.22H3.48c-1.9,0-2.21.28-2.67,2.11-.1.38-.18.74-.62.86A24.47,24.47,0,0,1,0,107,108.07,108.07,0,0,1,2.48,85.4c.06-.28.18-.55.27-.83.94-3.08,1.67-6.22,2.67-9.29A110.35,110.35,0,0,1,9.59,64.51a105.48,105.48,0,0,1,12.2-20.59A111.86,111.86,0,0,1,35.69,28.7,109.85,109.85,0,0,1,54.39,15,105.12,105.12,0,0,1,78.6,4.71,107.37,107.37,0,0,1,100.73.84,109.16,109.16,0,0,1,131.22,3a106.15,106.15,0,0,1,44.33,21,111.34,111.34,0,0,1,13.65,12.82,108.5,108.5,0,0,1,20.69,34.32A1,1,0,0,0,210.2,71.69Z"/><path class="cls-2" d="M20.35,237.47c.36-5.18.71-10.37,1.09-15.55a8.75,8.75,0,0,1,1.34-3.75q7.52-12.93,15-25.88c.25-.43.47-.88.71-1.33a2.13,2.13,0,0,1-.08-.75c4.76-8.91,10-17.55,15-26.31Q64,145.46,74.7,127.08c2.66-4.61,5.29-9.25,8-13.82.33-.56.66-1.09,1.41-1.06.58.15.82.69,1.2,1.06,4.16,4.07,8.2,8.26,12.38,12.32.36.35.94.68.91,1.35q-6.08,10.6-12.22,21.16c-1.81,3.1-3.58,6.22-5.38,9.33-.25.43-.38.74.1,1s1.06.81,1.62,1.18c4.25,1.74,8.39,3.74,12.88,4.8a2.56,2.56,0,0,0,1.58-.06,46.76,46.76,0,0,0,12.73,1.22,66.27,66.27,0,0,0,12-1.44c1.85-.77,3.82-1.18,5.7-1.86,2.51-.91,4.92-2.06,7.34-3.17a2.57,2.57,0,0,1,.76-.47,4,4,0,0,0,.91-.52c2.2-1.45,4.46-2.81,6.55-4.44a72.45,72.45,0,0,0,6.8-6.15,1.8,1.8,0,0,0,.24-2.48c-2.19-3.77-4.4-7.53-6.59-11.29-3.69-6.34-7.41-12.66-11.06-19a4.67,4.67,0,0,1-.67-1.88,1,1,0,0,1,.65-.68,1.51,1.51,0,0,1,1.41.85c3.92,6.78,7.92,13.52,11.74,20.36,1.92,3.44,3.93,6.83,5.87,10.26.26.47.55,1.14,1.32.59a57.26,57.26,0,0,0,12.32-29.12c.21-1.79.41-3.57.47-5.37a3,3,0,0,1,.45-1.67.79.79,0,0,1,.41-.17c6.56,0,13.11-.06,19.66,0a.84.84,0,0,1,.43.19,2,2,0,0,1,.33,1.35,2.38,2.38,0,0,1,0,.72c-.29,2-.11,4-.32,6a35.14,35.14,0,0,1-1.7,8.47c-.8,2.52-1.33,5.12-2.23,7.61a83,83,0,0,1-13.53,24.37,80.94,80.94,0,0,1-21.81,18.59,73.79,73.79,0,0,1-30.3,10,77.31,77.31,0,0,1-40.12-6.14c-1.61-.71-3.15-1.58-4.75-2.33s-1.86-.59-2.69.85q-6.2,10.78-12.43,21.54Q48.8,213.29,40.65,227.5a12.71,12.71,0,0,1-4.2,4.15c-4.24,2.87-8.53,5.67-12.74,8.59a4.2,4.2,0,0,1-.87.51c-1.5.58-2.5-.05-2.57-1.65A4.8,4.8,0,0,1,20.35,237.47Z"/><path class="cls-3" d="M84.14,112.58c-.57.16-.71.69-1,1.11L39.46,189.36c-.21.36-.45.71-.67,1.06a31.67,31.67,0,0,1-5.25-4.51A108.47,108.47,0,0,1,6,143.27a123.18,123.18,0,0,1-3.83-13.81,88.46,88.46,0,0,1-2-17.57c0-.84.05-1.68.06-2.52a1,1,0,0,1,1.08-1.08h78.3c.38-.22.62,0,.92.24,1.19,1.06,2.25,2.26,3.41,3.35C84.18,112.06,84.34,112.27,84.14,112.58Z"/><path class="cls-4" d="M186.48,109.53l-.05-1.23c.37-.79,1.13-.63,1.76-.63,3.6,0,7.2,0,10.8,0,5.11,0,10.22,0,15.32,0,2.21,0,2.27.07,2.25,2.22a6.81,6.81,0,0,1-.09,2A92.26,92.26,0,0,1,214,131.73a112.63,112.63,0,0,1-9.11,25,110.89,110.89,0,0,1-11.45,17.82,117.75,117.75,0,0,1-13.16,14,2.66,2.66,0,0,1-1,.69,1.78,1.78,0,0,1-1.35-1,20,20,0,0,1-1.56-3c-1-2.51-2.68-4.64-4-7-.75-1.4-1.15-3-1.87-4.39a7.82,7.82,0,0,0-.86-1.53,23.64,23.64,0,0,1-2.5-4.2,3.51,3.51,0,0,1,.54-4.4c4.67-5,8.13-10.88,12.55-16,.41-.48.81-1,1.25-1.41q7.47-7.48,15-15a6.58,6.58,0,0,1,2.36-1.61,8.63,8.63,0,0,0,3.2-2.77,1,1,0,0,0-.31-1.59,7.48,7.48,0,0,1-3-3.29,11.52,11.52,0,0,0-2.34-2.6c-2.57-2.59-5.14-5.19-7.75-7.74C187.9,111,187.66,109.8,186.48,109.53Z"/><path class="cls-5" d="M195,221.15a43.22,43.22,0,0,1,.59,5.95c.34,4.07.61,8.14.91,12.22-.47,1.69-1.71,2.15-3.25,1.11q-3.06-2.07-6.1-4.17c-2.74-1.9-5.5-3.76-8.26-5.62a9.85,9.85,0,0,1-2.93-3.46c-4.46-7.78-8.92-15.56-13.47-23.29-4.86-8.24-9.58-16.56-14.44-24.8a19.46,19.46,0,0,0-1.7-2.76c-.06-.58.38-.78.78-1a80.38,80.38,0,0,0,9.47-6.41c1.57-1.25,3.07-2.58,4.59-3.88.31-.26.55-.69,1.07-.59a11.29,11.29,0,0,1,2.07,3.16c4.49,7.83,9.07,15.59,13.53,23.43,4,7,8.11,14,12.12,21.06C191.72,215.1,193.55,218,195,221.15Z"/><path class="cls-6" d="M216.48,111.88c0-.84,0-1.68,0-2.51a.94.94,0,0,0-1.07-1.08H215l-28.55,0h0c-.21-.2-.47-.15-.72-.15H167a1,1,0,0,0-.72.14h0a1.89,1.89,0,0,1-1.59.6q-11.49,0-23,0a3.26,3.26,0,0,1-1.11-.18,3.7,3.7,0,0,1-1-3.55,3.76,3.76,0,0,0,.09-1c-.14-4.06.49-8.12.24-12.17-.19-3.06.06-6.1,0-9.15a19.53,19.53,0,0,0-1.69-8.06,10.45,10.45,0,0,0-2.54-3.47,1.49,1.49,0,0,0-1.48-.39c-.87-.28-1.56-.92-2.41-1.27a19.15,19.15,0,0,0-7.05-1.08c-.67,0-1.46.21-1.89-.6a7.47,7.47,0,0,1-.55-3.06c0-4.26,0-8.52,0-12.78,0-.68-.24-1.6.86-1.81.46.42.95.83,1.39,1.27q27,27,54,54.08A4.26,4.26,0,0,0,182,107c10.71,0,21.41,0,32.12,0,2.3,0,2.3,0,2.39-2.33A30,30,0,0,1,216.48,111.88Z"/><path class="cls-7" d="M210.2,71.69c-.52,0-.5-.51-.63-.84A108.62,108.62,0,0,0,195,44.49a100.44,100.44,0,0,0-9.68-11.24,110.31,110.31,0,0,0-25.39-19A108.26,108.26,0,0,0,125.78,2.58a103.69,103.69,0,0,0-21.18-1.37A108.43,108.43,0,0,0,13,58.34,106.8,106.8,0,0,0,3.18,83.9c-.06.24-.15.48-.23.71,0,0-.07,0-.11,0a.35.35,0,0,1-.1-.07,85.28,85.28,0,0,1,5-16.46c12.54-30,34.07-50.78,64.63-62A104.88,104.88,0,0,1,117,.36a108.42,108.42,0,0,1,92.75,70C209.94,70.8,210.06,71.25,210.2,71.69Z"/><path class="cls-8" d="M162.27,164.72a92.85,92.85,0,0,1-15.62,11.6c.16.41-.14.63-.36.87a84.9,84.9,0,0,1-20.73,8A91.13,91.13,0,0,1,113.68,187c-1.85.19-3.61-.55-5.45-.5s-3.44.65-5.2.49a78.41,78.41,0,0,1-20.52-4.24c-2.3-.81-4.51-1.84-6.82-2.61a19.48,19.48,0,0,1-2.14-1.47,6.25,6.25,0,0,0-2.29-.75c-.75-.15-1.11.48-1.42,1-1.67,3-3.38,5.88-5.08,8.81-2.69,4.63-5.32,9.3-8.06,13.91-.31.51-.59,1-1.27,1.08q-4.4,7.54-8.81,15.08-3.13,5.38-6.23,10.77a8.6,8.6,0,0,1-2.72,2.91L23.6,241c-.72.48-1.42,1.13-2.4.64s-1.13-1.46-1.05-2.47a4.73,4.73,0,0,1,.21-1.73c0,.33,0,.67.06,1,.06,1.75,1.25,2.4,2.72,1.42,5.16-3.46,10.3-7,15.44-10.43a5.21,5.21,0,0,0,1.51-1.83l24.51-42.42c1.7-2.94,3.46-5.86,5.1-8.83.58-1,1.15-1.1,2.12-.58a75.75,75.75,0,0,0,20.62,7.56A86.68,86.68,0,0,0,105,184.93a73.79,73.79,0,0,0,20.48-1.81A76.48,76.48,0,0,0,155.61,169a77.66,77.66,0,0,0,19.71-22,76.4,76.4,0,0,0,10.42-30,5.76,5.76,0,0,1,.19-.73c.9.38.59,1.11.52,1.78a73.94,73.94,0,0,1-2.37,12A76.15,76.15,0,0,1,174.62,151a73.86,73.86,0,0,1-8.77,11.17c-.81.85-1.66,1.67-2.46,2.53C163,164.93,162.64,164.71,162.27,164.72Z"/><path class="cls-9" d="M55.42,202.77l10.34-18c1.36-2.36,2.75-4.71,4.08-7.09.45-.81.92-.92,1.71-.48,1.39.77,2.82,1.46,4.23,2.19,0,1.06-.81.77-1.35.64-2.93-.73-3.24-.7-4.53,2.07-2.12,4.54-5.08,8.59-7.37,13-1,1.86-1.87,3.75-3,5.52-.9,1.4-.69,2,.86,2.75a115,115,0,0,0,17.32,6.8c3.86,1.16,7.8,2,11.73,2.84.65.14,1.48,0,1.86.81a.88.88,0,0,1-.57,1.22,98.93,98.93,0,0,1-20.26-5.34A107.25,107.25,0,0,1,55.42,202.77Z"/><path class="cls-10" d="M146.14,176.8l.51-.48c1.22,1,1.76,2.54,2.53,3.87q13.57,23.35,27.06,46.75a9.79,9.79,0,0,0,3.08,3.26c4.62,3.13,9.21,6.3,13.83,9.44,1.49,1,2.18.93,3.4-.32a1.83,1.83,0,0,1-.75,2.2,1.81,1.81,0,0,1-2.21-.24L178.53,231a7.41,7.41,0,0,1-2.15-2.58Q169,215.6,161.52,202.77a1.82,1.82,0,0,1-1.1-.95c-2.54-4.44-5.15-8.84-7.69-13.28-2-3.54-4.23-7-6.27-10.52A7,7,0,0,1,146.14,176.8Z"/><path class="cls-11" d="M160.78,201.75a2.33,2.33,0,0,1,.74,1,8.5,8.5,0,0,0-1,.41,108.06,108.06,0,0,1-35.63,12.14c-.45.07-.92.06-1.38.09-.53-.21-.59-.66-.56-1.15s.64-.68,1.14-.77c1.72-.3,3.43-.63,5.16-.85a5.48,5.48,0,0,0,1.28-.39,103.43,103.43,0,0,0,22.28-7.18c2.33-1,4.55-2.3,6.91-3.28C160,201.7,160.4,201.49,160.78,201.75Z"/><path class="cls-12" d="M2.22,129.46c.9,2.36,1.27,4.86,2,7.27a108,108,0,0,0,20.31,38.75A98.43,98.43,0,0,0,37.75,189a2.64,2.64,0,0,1,1,1.38l-.29.54A107.61,107.61,0,0,1,3,133.52,23.18,23.18,0,0,1,2.22,129.46Z"/><path class="cls-13" d="M162.27,164.72a.49.49,0,0,1,.68-.22c1.19,0,1,1.17,1.5,1.71a44.52,44.52,0,0,1,3.47,5.66q4.62,8,9.22,16c.4.69.61,1.46,1.08,2.11.22.4,0,.85.13,1.25l15.13,26.18a9.89,9.89,0,0,1,1.58,3.76,22.69,22.69,0,0,1-2.61-4.23c-4-6.92-8-13.88-12-20.82Q171.35,180.41,162.27,164.72Z"/><path class="cls-6" d="M178.34,191.22l-.49-1c-.23-1.1.41-1.35,1.31-1.33a108.27,108.27,0,0,0,24.26-30.08A111.22,111.22,0,0,0,213.48,133a3,3,0,0,1,.5-1.27,77.42,77.42,0,0,1-3.49,12.46,108,108,0,0,1-31.1,45.69C179,190.26,178.38,190.53,178.34,191.22Z"/><path class="cls-14" d="M123.21,214.37a2,2,0,0,1,.26,1,41.4,41.4,0,0,1-6.84.84,105,105,0,0,1-25.3-1c-.21,0-.41-.1-.61-.15l.24-1.21c.7-1,1.61-.33,2.36-.18a2.22,2.22,0,0,0,1.25,0,94.67,94.67,0,0,0,13.41,1,100.16,100.16,0,0,0,13.43-.78C122.06,213.83,122.77,213.61,123.21,214.37Z"/><path class="cls-15" d="M78.12,104.52c0-8.48-.1-17,.06-25.44a9.41,9.41,0,0,1,2.56-5.56,12,12,0,0,1,9.67-4.29c1.47,0,2.94,0,4.41,0,.66,0,1.16-.15,1.09-1-.38-5-.07-10.07-.17-15.1,0-.8,0-1.6,0-2.39,0-1.56.11-1.66,1.64-1.66h23.56c.81.44.6,1.24.61,1.91,0,5,0,10.08,0,15.12,0,.5,0,1,0,1.51,0,.9.57,1,1.25,1,1.76,0,3.52,0,5.28.15a11.61,11.61,0,0,1,8.77,5.32,15.13,15.13,0,0,0,1.6,2.24,2.19,2.19,0,0,1,.41,1.55c1.15,8.09.27,16.22.53,24.32a5.44,5.44,0,0,1-.27,2.71c-5.56,6.68-12.11,12.41-18.13,18.65-2.2,2.28-4.52,4.43-6.69,6.73a8.15,8.15,0,0,1-11.93.11c-6-6.08-12.12-12.07-18.11-18.18q-1.91-2-3.9-3.84A7,7,0,0,1,78.12,104.52Z"/><path class="cls-16" d="M78.12,104.52c1,2.15,2.78,3.65,4.4,5.28C89,116.3,95.6,122.71,102,129.32a8.56,8.56,0,0,0,12.76,0c6.54-6.81,13.32-13.39,20-20.07,1.33-1.33,2.82-2.53,3.65-4.29,0,0,.08,0,.11,0s.06.05.09.08c1,.76.22,1.49-.08,2.19-.21.48-.73.79-.86,1.35-1.14,1-2.17,2.08-3.24,3.15a2.22,2.22,0,0,1-1.62.82l-.5.56a2.76,2.76,0,0,1-1,1.79l-10.76,10.76a12.19,12.19,0,0,0-1.35,1.49c-.25.18-.52.34-.76.54-1.31,1.41-2.63,2.81-4,4.11a8.52,8.52,0,0,1-9,1.84,7.62,7.62,0,0,1-2.5-1.67c-.94-.81-1.9-1.61-2.79-2.49-.41-.65-1.13-1-1.51-1.72a1.22,1.22,0,0,1-.22-.81L86.77,115.27c-.88-.89-1.75-1.79-2.62-2.69l-4.51-4.31C78.84,107.13,77.92,106,78.12,104.52Z"/><path class="cls-17" d="M121,68q0-9.46,0-18.92c0-.41,0-1,.66-.44s1.08,1.13,1.61,1.7a4.38,4.38,0,0,0-.26,1.85c0,4.31,0,8.62,0,12.92,0,1,.16,1.91.24,2.87A1.41,1.41,0,0,1,121,68Z"/><path class="cls-18" d="M136.05,159.17l-.72.28a.94.94,0,0,1-1.18-.63c-1.91-4-4.54-7.64-6.71-11.51s-5.06-7.52-7.21-11.52a22.28,22.28,0,0,1-1.56-2.28c-.22-.56-.72-.53-1.14-.16a7.73,7.73,0,0,0-1.54,1.47,12,12,0,0,1-3.1,3.24c.56-.31.94-.84,1.51-1.12a1.26,1.26,0,0,1,1.52.06,1.34,1.34,0,0,1,.33,1.61,19.86,19.86,0,0,1-2.45,3.65,2,2,0,0,0-.39,2.09c.63,1.66,1.19,3.33.38,5.11a1.47,1.47,0,0,0,.17,1.22c.15.3.44.63.38.92-.47,2.31.37,5-1.85,6.82a.49.49,0,0,0-.19.3c1.46-1.25,2.07-1.12,2.83.65.2.46.38.93.56,1.4a3.86,3.86,0,0,0,4.59,2.69,3.82,3.82,0,0,1,1.38,0c.58.13.95.4.52,1a44.47,44.47,0,0,1-10.14,1.63A50.26,50.26,0,0,1,97,165a27.37,27.37,0,0,0-3.46-1.11c-2.38-.8-4.83-1.47-6.92-3a5.11,5.11,0,0,1-1.46-1.53,2.14,2.14,0,0,1-.16-2.06c1.18-2.45,2.08-5,3.5-7.38s2.43-4.79,3.73-7.14c1.85-3.34,3.55-6.76,5.3-10.15a9.88,9.88,0,0,1,.93-1.5c1-1.27,2.18-1.41,3.3-.28a11.93,11.93,0,0,0,3.82,2.86,7.9,7.9,0,0,0,8.18-1.16,19.08,19.08,0,0,0,2.73-2.42,2.36,2.36,0,0,1,3.16-.58c1.6,2.44,3,5,4.44,7.54,3.08,5.29,6.07,10.64,9.19,15.91,1,1.65,1.91,3.33,2.84,5A.89.89,0,0,1,136.05,159.17Z"/><path class="cls-5" d="M118.66,126.65l13.62-13.59,11.29,19.31c2.54,4.34,5,8.7,7.6,13a1.42,1.42,0,0,1-.17,2,57.45,57.45,0,0,1-14.24,11.25c-1.14-.61-1.4-1.86-2-2.85-3.19-5.39-6.29-10.83-9.39-16.26-2.19-3.84-4.46-7.64-6.61-11.5C118.52,127.56,118.3,127.15,118.66,126.65Z"/><path class="cls-19" d="M140.59,108.27l25.73,0a57.69,57.69,0,0,1-12.14,35.32c-.3.4-.66.75-1,1.12a2.4,2.4,0,0,1-1.74-1.31c-4-6.76-7.7-13.68-11.6-20.49-1.42-2.47-2.63-5.06-4-7.53a2.46,2.46,0,0,1,.18-3c.92-1.15,2.21-2.06,2.3-3.75a.93.93,0,0,1,.68-.84A1.55,1.55,0,0,1,140.59,108.27Z"/><path class="cls-1" d="M179.15,188.92a6.06,6.06,0,0,0-1.31,1.33q-4.15-7.13-8.29-14.26c-1.83-3.16-3.63-6.34-5.44-9.51-.41-1.87.64-3.15,1.81-4.36a72.69,72.69,0,0,0,14.81-22.47,78.86,78.86,0,0,0,5.51-19.88c.38-2.74.35-5.47.58-8.2a1.67,1.67,0,0,0-.34-1.52v-.51c.77-.56,1.18.12,1.56.54,3.37,3.75,7.11,7.13,10.58,10.77.32.33.73.61.85,1.07a4.62,4.62,0,0,0,2.61,2.89c1.4.76,1.49,1.51.36,2.63-1.3,1.29-2.44,2.78-4.34,3.31-.44.12-.8.59-1.15.95-5,5-10.09,10-15,15.06-2.9,3-5.17,6.49-7.66,9.81a65.17,65.17,0,0,1-5.59,7c-1.67,1.69-1.62,2.51-.78,4.73s2.7,3.83,3.5,6.08c1.71,4.79,5,8.82,6.94,13.49A2.41,2.41,0,0,0,179.15,188.92Z"/><path class="cls-20" d="M122.2,164.47a1.21,1.21,0,0,0-1.58-.39c-1.5.52-2.78-.34-4.14-.6-.56-.11-.73-.78-.93-1.28-.4-1-.75-2-1.14-2.93-.12-.31-.29-.65-.67-.68s-.65.32-.82.67c-.09.19-.16.39-.25.58a.69.69,0,0,1-.91.45.82.82,0,0,1-.58-1,2.19,2.19,0,0,1,.83-1.37,8.11,8.11,0,0,0,.86-.73c.57-.66,1-5.41.51-6.19-.28-.49-.6-1-.31-1.53,1-1.82.34-3.52-.37-5.19a2,2,0,0,1,.5-2.36,15.22,15.22,0,0,0,2.35-3.25c.2-.39.36-.82,0-1.15s-.83-.09-1.13.2a14.76,14.76,0,0,1-2.22,1.64c-.23.15-.49.46-.76.14s0-.49.16-.67a21,21,0,0,1,2-2.21c1.41-1.1,2.28-2.73,3.59-4,.9-.85,1.54-.88,2,.18A43.84,43.84,0,0,0,122.9,139c3.12,4.53,5.76,9.35,8.7,14,1.35,2.12,2.44,4.38,3.73,6.52A45,45,0,0,1,122.2,164.47Z"/><path class="cls-21" d="M119.47,130a2.13,2.13,0,0,0-2.51.58c-1,.93-2,1.82-3,2.71a8.43,8.43,0,0,1-10.42-.12c-.68-.63-1.38-1.23-2.09-1.81-1.08-.88-1.94-.73-2.72.46a50.36,50.36,0,0,0-3.35,6.48c-1,2.24-2.41,4.3-3.5,6.52-2.06,4.21-4.49,8.23-6.26,12.58a2.15,2.15,0,0,0,.91,2.73,23.56,23.56,0,0,0,7.31,3.45c1,.31,2,.68,3,1,.19.07.42.18.14.43a43.62,43.62,0,0,1-10.29-3,20.3,20.3,0,0,1-4.28-2,5.91,5.91,0,0,1,.81-3.75q6-10.76,12-21.51c.9-1.6,1.7-3.25,2.66-4.81.76-1.23,1.16-1.34,2.45-.93,1.42,1,2.4,2.55,4,3.45a8.07,8.07,0,0,0,9.74-1.16c1.38-1.34,2.74-2.71,4.11-4.06A3.8,3.8,0,0,1,119.47,130Z"/><path class="cls-22" d="M186.49,110c.65.22.71.75.73,1.32a52.5,52.5,0,0,1-.71,10.77,78.58,78.58,0,0,1-7.92,23.52,69,69,0,0,1-11.78,16.4,11.52,11.52,0,0,0-2.69,4.41l-1.17-2c1.25-1.86,3-3.26,4.44-5a77.75,77.75,0,0,0,18.34-40.22,11.14,11.14,0,0,0,.2-3Z"/><path class="cls-23" d="M138.84,108.29a3.48,3.48,0,0,0-.12,1.11,1.91,1.91,0,0,1-.94,2c-2.08,1.69-2,2.25-.8,4.63,1.84,3.62,3.81,7.17,5.8,10.7,2.71,4.81,5.19,9.75,8,14.49a19.32,19.32,0,0,0,2.38,3.49c-.92,1.12-.94,1.13-1.66-.11l-17.89-30.88c-.25-.43-.56-.82-.85-1.23a58.4,58.4,0,0,1,4.28-4.23C137.66,108,138.25,107.47,138.84,108.29Z"/><path class="cls-17" d="M100.29,128.93a4,4,0,0,0-2.85,2.44c-1.45,2.7-2.94,5.37-4.3,8.11-1.9,3.79-4.14,7.39-6.14,11.13-1.11,2.07-2.27,4.11-3.38,6.17a6.26,6.26,0,0,0-.65,2.29c0,.41-.11.75-.57.86l-1.76-.76c-.38-.58-.08-1.11.19-1.58,4.79-8,9.36-16.18,14.06-24.26Q96.45,130.68,98,128c.18-.31.29-.74.81-.58A6.75,6.75,0,0,1,100.29,128.93Z"/><path class="cls-24" d="M98.79,127.43c-2.36,4.06-4.73,8.1-7.08,12.17q-5.25,9.09-10.47,18.2a3.21,3.21,0,0,0-.59,1.37c-.69-.47-.55-1-.19-1.62q6-10.27,11.94-20.56l5.23-9c.21-.36.46-.7.69-1Z"/><path class="cls-25" d="M119.47,130l-1.36-2.79.55-.5a30.19,30.19,0,0,0,3,5.64c5,8.8,10.07,17.58,15.12,26.36l-.71.52c-.35-1.64-1.41-2.92-2.21-4.32C129.08,146.53,124.27,138.25,119.47,130Z"/><path class="cls-1" d="M166.3,108.3a2.82,2.82,0,0,1,1.59-.27h17a2.74,2.74,0,0,1,1.59.28Z"/><path class="cls-14" d="M138.84,108.29h-1.77a6.64,6.64,0,0,0,1.52-3.27,3.58,3.58,0,0,0,.25-1.84c0-6.66,0-13.31,0-20a22.91,22.91,0,0,0-.78-5.42c.23-1.25-.49-2.23-1-3.23a9.19,9.19,0,0,0-2.21-2.79c-.38-.33-.93-.59-.59-1.27,1.38-.34,2.06.7,2.8,1.49a13.46,13.46,0,0,1,3.22,7.64,43.84,43.84,0,0,1,.13,7.52c-.09,2.67.23,5.35.14,8q-.18,5.4-.46,10.79c0,.84.43,1.53.46,2.33Z"/><path class="cls-26" d="M134.3,70.48c1.43,1.59,3,3,3.6,5.23.17.68.58,1.33.19,2.06a11.17,11.17,0,0,0-9-8.29,49.56,49.56,0,0,0-6.9-.24c-.89,0-1.35-.33-1.27-1.26h2.26a32,32,0,0,1,6,.31A11.18,11.18,0,0,1,134.3,70.48Z"/><path class="cls-11" d="M94.49,214.37l-3.53-.5a66.43,66.43,0,0,1-8.74-1.77,110.14,110.14,0,0,1-22.6-8.36c-1.86-.92-2-1.11-.92-2.95,2.82-5,5.46-10.1,8.51-15,.86-1.38,1.51-2.9,2.27-4.34a12.33,12.33,0,0,1,.91-1.5,2.36,2.36,0,0,1,3.37-.91c.65.28,1.27.71,2,.32a83,83,0,0,0,17,5.57,78.26,78.26,0,0,0,10.05,1.39,8.58,8.58,0,0,1,2.63-.06c2.8.3,5.6-.24,8.39.07A77.39,77.39,0,0,0,136,181.51a85.9,85.9,0,0,0,10.14-4.71,1.22,1.22,0,0,1,.76.78c.15.64-.35.78-.77.95-3.72,1.43-7.1,3.59-10.9,4.88-2.06.7-4.1,1.48-6.2,2.08-4,1.14-8.07,1.91-12.15,2.69a10.5,10.5,0,0,1-2,.1,58.7,58.7,0,0,0-10,.69,17.33,17.33,0,0,1-4.76-.29,29.62,29.62,0,0,0-4.52-.11,3.74,3.74,0,0,0-3.18,1.5,1.05,1.05,0,0,1-1.18.54c-.84-.24-.75.21-.74.79a5.47,5.47,0,0,0,.46,3,2.13,2.13,0,0,1-.14,1.83,1.22,1.22,0,0,0,.86,1.85,2.48,2.48,0,0,1,.35.15c2,1,2,1.16,1.4,3.34a3.73,3.73,0,0,0-.15,1.61,4.43,4.43,0,0,1-.36,2.7,2.68,2.68,0,0,0,0,2.08c.57,1.76,1.07,3.53,1.75,5.25C94.79,213.66,94.88,214,94.49,214.37Z"/><path class="cls-27" d="M113.86,186.37a83.3,83.3,0,0,1-11,0,6,6,0,0,1,2.49-.2c2.39,0,4.78,0,7.18,0A2.73,2.73,0,0,1,113.86,186.37Z"/><path class="cls-28" d="M94.49,214.37c-1.25-2.21-1.6-4.76-2.6-7.07a1.59,1.59,0,0,1,.3-1.43,3.44,3.44,0,0,0,.39-2.67,3,3,0,0,1,.3-2.07,1.26,1.26,0,0,0-.64-1.95,6.68,6.68,0,0,0-2.19-.92c-.84-.09-1.06-.39-.49-1.11a3.76,3.76,0,0,0,.8-1.69c.07-.42.14-.92-.33-1.12-1-.4-.84-1-.41-1.7a1.85,1.85,0,0,0,.14-1.58,8.43,8.43,0,0,1-.29-1.22c-.05-.38,0-.8.39-1s.7.14.9.48c.54.93.92.73,1.38-.1.7-1.26,2.07-1.18,3.21-1.29a31.69,31.69,0,0,1,7.15.33,7.08,7.08,0,0,0,2.5,0,31.11,31.11,0,0,1,7-.59A55.25,55.25,0,0,0,124.44,186a83.36,83.36,0,0,0,14.68-4.85c2.62-1.12,5-2.81,7.77-3.55q4.71,8.16,9.42,16.31c1.5,2.61,3,5.24,4.47,7.86l-.78.52c-1.39-.83-1.9-2.33-2.6-3.63-2.87-5.32-6.15-10.4-9.21-15.61-1.75-3-2-3-5-1.56-3.45,1.63-6.85,3.37-10.37,4.87-1,.44-1.91,1.2-3,1.67-.81.37-.83,1.09-.36,1.81a3.44,3.44,0,0,1-.33,4.61,1.91,1.91,0,0,0-.52,2.26c.24.63.41,1.28.67,1.9a2.29,2.29,0,0,1,.13,1.72c-.33.87-.62,1.56.67,2,.6.18.52,1,.32,1.59-.54,1.48-.32,3.07-.81,4.57-.36,1.11.44,2.18.7,3.27.1.4.43.73.38,1.18a60.78,60.78,0,0,1-6.48,1.25c-.36.07-.72.18-1.08.27-4.15.49-8.32.68-12.48,1-3.18.2-6.34-.23-9.51-.32C99,214.94,96.73,214.59,94.49,214.37Z"/><path class="cls-29" d="M130.77,212.86a1.09,1.09,0,0,1-.87-.66c-.42-1.6-1.49-3.06-.65-4.93.52-1.17.19-2.6.65-3.9.27-.74-.44-.83-1.06-.62-.35.11-.74.38-1,0s0-.69.21-.92a3.34,3.34,0,0,0,.35-4.08c-.22-.45-.29-1-.49-1.43a1.49,1.49,0,0,1,.68-2.18,2.59,2.59,0,0,0,.46-3.81,1.77,1.77,0,0,1,.78-3c1.54-.55,2.85-1.56,4.36-2.22,3.38-1.47,6.69-3.12,10-4.71,1.88-.89,2.34-.78,3.56.89,2.58,3.54,4.42,7.51,6.78,11.18,1.79,2.78,3.33,5.73,5,8.6a2.77,2.77,0,0,1,.49,1.28,121.52,121.52,0,0,1-14.11,6.31A96.86,96.86,0,0,1,130.77,212.86Z"/><path class="cls-30" d="M118.68,83.58c3.2,2.72,4.51,6.32,4.78,10.39a2.21,2.21,0,0,1-.24,1.22,15.71,15.71,0,0,1-4.53,8.31c-5.15,4.68-12.71,5.76-18.88,1.43a7,7,0,0,1-2.71-2.63,1.79,1.79,0,0,0-.34-1.52c-2.67-4.46-2.48-8.89-.15-13.47a13.06,13.06,0,0,1,8.12-6.93,14.08,14.08,0,0,1,12,1.81A23.35,23.35,0,0,1,118.68,83.58Z"/><path class="cls-31" d="M118.68,83.58a8.39,8.39,0,0,1-1-.55A14.47,14.47,0,0,0,107,80.39a12,12,0,0,0-8,4.49c-2.81,3.5-4.18,7.51-3.17,12.07A24,24,0,0,0,97.4,101c.16.37.68.76.11,1.21-.78.37-1-.39-1.26-.76a18.86,18.86,0,0,1-2.77-5.8c-.52-1.56,0-3.05.35-4.54a15.08,15.08,0,0,1,14.33-11.8A13.66,13.66,0,0,1,118.68,83.58Z"/><path class="cls-32" d="M93.47,95.68c.26-.18.25.07.3.19s.09.32.15.47a14.87,14.87,0,0,0,3.59,5.88c3.66,4.51,10.94,6,16.69,3.51a14.68,14.68,0,0,0,8.73-10.37.44.44,0,0,1,.1-.22s.13,0,.2,0a14.31,14.31,0,0,1-8.34,11.53A15,15,0,0,1,93.47,95.68Z"/><path class="cls-11" d="M92.48,192.66c-.31,0-.41-.16-.4-.39a.51.51,0,0,1,.42-.53c.26,0,.36.15.35.38A.61.61,0,0,1,92.48,192.66Z"/></g></g></g></svg>