<svg xmlns="http://www.w3.org/2000/svg" viewBox="0 0 321.15 359.83"><defs><style>.a{fill:#777;}.b{fill:#afafaf;}.c{fill:#fefefe;}</style></defs><title>angular</title><path class="a" d="M158.78,0c13.76,3.89,27,9.33,40.42,14.13C238.64,28.22,278,42.55,317.41,56.7c2.95,1.06,4.08,1.81,3.64,5.71q-3.3,29.45-7.08,58.84c-2,15.35-3.3,30.78-5.13,46.15-2.19,18.3-4.71,36.56-6.89,54.86-1.84,15.38-3.32,30.79-5.14,46.17-.35,2.94-1.08,5.83-1,8.83.12,3.59-2.83,4.6-5.21,6q-49.73,29.15-99.48,58.26c-9,5.29-18.06,10.63-27.14,15.86-1.68,1-3.15,2.5-5.32,2.45q0-69.58.09-139.16c13.48-.1,27,0,40.44-.39,4.65-.14,7,1.18,8.7,5.71,5.64,14.74,11.83,29.26,17.83,43.86.72,1.75.91,3.89,3.75,3.86,10.6-.1,21.19,0,32.38,0-1.18-2.81-2.1-5.08-3.09-7.33Q222,182.88,185.16,99.42C176.44,79.68,167.58,60,158.78,40.29Q158.78,20.15,158.78,0Z"/><path class="b" d="M158.77,220.67q0,69.58-.09,139.16c-8.53-3.75-16.22-9-24.23-13.69q-53-30.91-106-62c-3.11-1.81-4.61-3.81-5-7.66-5-47.17-10.33-94.3-15.5-141.45C5.25,110.91,2.83,86.73.05,62.59c-.44-3.78,1.86-4,4.13-4.86Q66.51,34.28,128.84,10.84c9.94-3.72,19.69-8,29.94-10.84q0,20.15,0,40.29c-.73,1.47-1.55,2.91-2.19,4.42Q138.3,87.6,120,130.5q-29.48,69.3-59,138.58c-1.49,3.49-1.58,4.91,2.95,4.68,9.64-.5,19.3-.66,28.95-.71,3.06,0,4.2-1.3,5.2-4,5.5-15,11.22-29.88,16.87-44.8.76-2,1.26-4,4.28-3.9C132.46,220.58,145.61,220.58,158.77,220.67Z"/><path class="c" d="M158.77,220.67c-13.15-.09-26.31-.1-39.46-.33-3-.05-3.51,1.89-4.28,3.9-5.65,14.92-11.37,29.82-16.87,44.8-1,2.71-2.14,4-5.2,4-9.65,0-19.31.21-28.95.71-4.53.24-4.44-1.19-2.95-4.68q29.58-69.25,59-138.58Q138.29,87.6,156.6,44.71c.64-1.51,1.46-2.95,2.19-4.42,8.8,19.71,17.65,39.39,26.37,59.13Q222,182.86,258.78,266.34c1,2.25,1.91,4.52,3.09,7.33-11.19,0-21.78-.06-32.38,0-2.84,0-3-2.11-3.75-3.86-6-14.6-12.19-29.12-17.83-43.86-1.73-4.53-4.05-5.85-8.7-5.71C185.74,220.68,172.25,220.58,158.77,220.67Zm0-103.88c-1.51.8-1.51,2.44-2,3.75q-9.17,23.11-18.26,46.25l-8.62,21.88h62.36c-.69-1.72-1.07-2.78-1.54-3.81C182.47,167,174.3,149,166,131.18,163.74,126.32,162.29,121,158.77,116.79Z"/><path class="a" d="M158.77,116.79c3.52,4.24,5,9.52,7.23,14.39,8.3,17.86,16.47,35.79,24.68,53.69.47,1,.85,2.09,1.54,3.81H158.79Q158.78,152.74,158.77,116.79Z"/><path class="b" d="M158.77,116.79q0,35.94,0,71.88H129.86l8.62-21.88q9.12-23.13,18.26-46.25C157.26,119.24,157.27,117.59,158.77,116.79Z"/></svg>