<svg xmlns="http://www.w3.org/2000/svg" viewBox="0 0 132.28 84"><title>bash</title><g id="Layer_2" data-name="Layer 2"><g id="prog"><g id="bash"><path d="M5.28,40,6.74,29H2.28V25h5l1.07-8h-5V14H8.82L10.28,3h3.26L12.14,14H18L19.45,3h3.32l-1.4,11h4.92v3H20.85l-1,8h4.44v4H19.33L17.87,40H14.5L16,29H10.12L8.65,40ZM16.47,25l1.07-8H11.69l-1.07,8Z"/><path d="M31.13,36.93a3.3,3.3,0,0,1,3.32-3.48,3.23,3.23,0,0,1,3.32,3.48,3.32,3.32,0,1,1-6.63,0ZM32.53,29,31.75,2h5.4l-.79,27Z"/><path d="M40.85,42,56.53,1h3.82L44.62,42Z"/><path d="M64.06,40c.11-2,.22-4.81.22-7.23V0h5V17h0a10.21,10.21,0,0,1,9.27-5C85.3,12,90.08,17.6,90,25.86c0,9.72-6.13,14.4-12.2,14.4-3.93,0-7.08-1.27-9.1-5.27h-.17l-.22,5Zm5.22-11.11a9.28,9.28,0,0,0,.17,1.8,7.6,7.6,0,0,0,7.39,5.79c5.17,0,8.25-4.21,8.25-10.45,0-5.45-2.82-10.12-8.1-10.12A7.83,7.83,0,0,0,69.51,22a10.07,10.07,0,0,0-.23,2Z"/><path d="M101.76,4.95a3.06,3.06,0,0,1-6.13,0,3,3,0,0,1,3.09-3.09A2.94,2.94,0,0,1,101.76,4.95ZM96.28,40V13h5V40Z"/><path d="M109.28,20c0-2.81.07-5-.1-7h4.38l.28,4H114c1.35-2,4.36-5.07,8.85-5.07,3.76,0,9.47,2.29,9.47,11.62V40h-5V24.11c0-4.38-1.46-8-6.13-8a7,7,0,0,0-6.58,5.06,7.19,7.19,0,0,0-.29,2.3V40h-5Z"/><path d="M0,84,15.68,43H19.5L3.77,84Z"/><path d="M23.21,81c.11-1,.07-4.11.07-6.53V42h5V59h.16a10.31,10.31,0,0,1,9.27-5.16c6.74,0,11.52,5.54,11.47,13.8,0,9.72-6.13,14.52-12.2,14.52C33,82.16,29.89,81,27.87,77H27.7l-.22,4Zm5.07-10.4a9.28,9.28,0,0,0,.25,1.8A7.64,7.64,0,0,0,36,78.18c5.17,0,8.27-4.21,8.27-10.45,0-5.45-2.81-10.12-8.09-10.12a7.91,7.91,0,0,0-7.55,6.07,9.67,9.67,0,0,0-.3,2Z"/><path d="M70.46,81l-.39-3H69.9a10.53,10.53,0,0,1-8.32,4.08c-5.51,0-8.49-3.86-8.49-7.79,0-6.58,6.18-10.15,16.18-10.1v-.56c0-2.25-.45-6.29-6-6.29a13.25,13.25,0,0,0-7,2L55.19,56.1A16.54,16.54,0,0,1,64,53.68c8.32,0,10.25,5.68,10.25,11.13V75A24.5,24.5,0,0,0,75,81ZM69.28,67.62c-5-.11-11.29.84-11.29,6.13a4.46,4.46,0,0,0,4.78,4.72,6.54,6.54,0,0,0,6.4-4.55,5,5,0,0,0,.11-1.57Z"/><path d="M81.81,76.44a13,13,0,0,0,6.52,2c3.6,0,5.28-1.8,5.28-4s-1.41-3.65-5.06-5c-4.89-1.74-7.19-4.44-7.19-7.7,0-4.38,3.54-8,9.39-8a13.58,13.58,0,0,1,6.69,1.69L96.2,59a10.59,10.59,0,0,0-5.56-1.57c-2.92,0-4.55,1.69-4.55,3.71,0,2.25,1.63,3.26,5.17,4.61,4.72,1.8,7.14,4.16,7.14,8.21,0,4.78-3.71,8.15-10.17,8.15a15.52,15.52,0,0,1-7.64-1.85Z"/><path d="M104.28,42h5V59h.52a6.82,6.82,0,0,1,3.54-3.7,11,11,0,0,1,5.25-1.51c3.65,0,9.69,2.14,9.69,11.53V81h-5V65.87c0-4.38-1.79-8.09-6.46-8.09a7.48,7.48,0,0,0-6.92,4.95,5.83,5.83,0,0,0-.62,2.36V81h-5Z"/></g></g></g></svg>