<svg xmlns="http://www.w3.org/2000/svg" viewBox="0 0 488.1 292.9"><defs><style>.cls-1{fill:#ce152c;}.cls-2{fill:#fcfbfc;}.cls-3{fill:#fcfbfb;}.cls-4{fill:#04277e;}.cls-5{fill:#cf182f;}.cls-6{fill:#03267e;}.cls-7{fill:#cf182e;}.cls-8{fill:#d22a3e;}</style></defs><title>english</title><g id="Layer_2" data-name="Layer 2"><g id="prog"><g id="english"><path class="cls-1" d="M273.27,292.63H214.83c0-36-.21-72,.1-108,.06-6.73-1-9.11-8.62-9.07-68.77.36-137.54.22-206.31.22V117.18c68.5,0,137-.16,205.49.23,8.19,0,9.55-2.4,9.46-9.9C214.57,71.78,214.81,36,214.83.3h58.44c0,36,.21,72-.1,108-.06,6.73,1,9.11,8.62,9.07,68.77-.36,137.54-.22,206.31-.22v58.57c-68.5,0-137,.16-205.49-.23-8.19,0-9.55,2.4-9.46,9.9C273.54,221.15,273.29,256.89,273.27,292.63Z"/><path class="cls-2" d="M273.27,292.63c0-35.74.26-71.48-.13-107.21-.08-7.49,1.27-9.94,9.46-9.9,68.5.39,137,.23,205.49.23v19.52H385.16c33,21.54,66.19,41.45,99.36,61.33,1.06.63,2.2,1.7,3.58.5v14.64c-1.61-2.55-4-4.1-6.58-5.62Q425,232.32,368.61,198.46c-2.06-1.23-4.31-2.93-6.51-3-11.23-.3-22.48-.14-33.72-.14,15,10.74,30.44,20,45.84,29.28q56.3,34,112.58,68H429.72a28.36,28.36,0,0,0-3.11-2.5q-65.07-39.09-130.19-78.09a18.73,18.73,0,0,0-3.55-1.1v81.72Z"/><path class="cls-2" d="M214.83.3c0,35.74-.26,71.48.13,107.21.08,7.49-1.27,9.94-9.46,9.9C137,117,68.5,117.18,0,117.18V97.65H102.94C69.9,76.12,36.75,56.21,3.58,36.33c-1.06-.63-2.2-1.7-3.58-.5v-13C36.19,44.53,73,65.29,108.28,88.38c16.86,11,33.81,8.94,51.59,8.36-15.23-9.93-30.7-19.18-46.13-28.5Q57.51,34.29,1.3.28H58.39a28.35,28.35,0,0,0,3.11,2.5q65.07,39.09,130.19,78.09a18.73,18.73,0,0,0,3.55,1.1V.26Z"/><path class="cls-3" d="M0,175.75c68.77,0,137.54.14,206.31-.22,7.59,0,8.68,2.34,8.62,9.07-.31,36-.12,72-.1,108l-19.59,0c0-27.13,0-54.27,0-82.76C168.4,226,143.1,241.1,117.9,256.33c-19.89,12-39.68,24.21-59.51,36.32l-19.14,0c2-1.36,3.9-2.83,6-4.07Q114.8,246.78,184.37,205c3.77-2.28,11.25-4.11,10.05-7.8-1.48-4.59-8.5-1.2-13.07-1.84-12.93-1.81-23.85,2.52-34.89,9.39-34.21,21.31-69,41.64-103.57,62.44-13.87,8.36-27.59,17-41.39,25.48A5.08,5.08,0,0,0,0,292.9V257.1c3.48,1.3,5.38-1.71,7.71-3.09q45-26.76,89.8-53.78c1.94-1.17,3.81-2.46,7.65-5H0Z"/><path class="cls-3" d="M488.1,117.18c-68.77,0-137.54-.14-206.31.22-7.59,0-8.68-2.34-8.62-9.07.31-36,.12-72,.1-108l19.59,0c0,27.13,0,54.27,0,82.76C319.71,66.92,345,51.83,370.21,36.6c19.89-12,39.68-24.21,59.51-36.32l19.14,0c-2.46,1.63-4.86,3.35-7.38,4.86Q370.85,47.58,300.2,90a49.85,49.85,0,0,0-6.12,4c-1.36,1.11-1.79,3.62.48,3.44,12.18-.92,24.92,3.83,36.5-3.11Q403.82,50.67,476.51,7C480,4.88,483.23,2.52,486.59.3A5.08,5.08,0,0,0,488.1,0V35.83c-3.48-1.3-5.38,1.71-7.71,3.09q-45,26.76-89.8,53.78c-1.94,1.17-3.81,2.46-7.65,5H488.1Z"/><path class="cls-4" d="M0,35.83c1.38-1.21,2.53-.13,3.58.5C36.75,56.21,69.9,76.12,102.94,97.65H0Z"/><path class="cls-4" d="M488.1,97.65H383c3.84-2.5,5.71-3.79,7.65-5q44.87-26.94,89.8-53.78c2.33-1.38,4.22-4.39,7.71-3.09Z"/><path class="cls-4" d="M0,195.28H105.15c-3.84,2.5-5.71,3.79-7.65,5Q52.63,227.17,7.71,254C5.38,255.39,3.48,258.4,0,257.1Z"/><path class="cls-4" d="M488.1,257.1c-1.38,1.21-2.53.13-3.58-.5-33.17-19.88-66.32-39.79-99.36-61.33H488.1Z"/><path class="cls-5" d="M1.3.28q56.22,34,112.44,68c15.43,9.32,30.91,18.57,46.13,28.5-17.78.58-34.72,2.67-51.59-8.36C73,65.29,36.19,44.53,0,22.81V0A1.75,1.75,0,0,1,1.3.28Z"/><path class="cls-5" d="M486.8,292.65q-56.29-34-112.58-68c-15.4-9.3-30.85-18.54-45.84-29.28,11.24,0,22.49-.16,33.72.14,2.2.06,4.46,1.75,6.51,3q56.47,33.81,112.92,67.67c2.54,1.52,5,3.06,6.58,5.62V292.9h-.68Z"/><path class="cls-6" d="M195.24.26V82a18.73,18.73,0,0,1-3.55-1.1Q126.57,41.87,61.5,2.78A28.35,28.35,0,0,1,58.39.28Z"/><path class="cls-6" d="M429.72.28c-19.83,12.11-39.62,24.3-59.51,36.32C345,51.83,319.71,66.92,292.86,83c0-28.49,0-55.63,0-82.76Z"/><path class="cls-7" d="M486.59.3C483.23,2.52,480,4.88,476.51,7q-72.7,43.7-145.45,87.31c-11.58,6.94-24.32,2.18-36.5,3.11-2.27.17-1.83-2.33-.48-3.44a49.85,49.85,0,0,1,6.12-4q70.64-42.4,141.28-84.8C444,3.65,446.4,1.93,448.86.3h3.53a66.61,66.61,0,0,0,29.13,0Z"/><path class="cls-8" d="M481.52.3a66.61,66.61,0,0,1-29.13,0Z"/><path class="cls-6" d="M58.39,292.65c19.83-12.11,39.62-24.3,59.51-36.32,25.21-15.23,50.5-30.32,77.35-46.42,0,28.49,0,55.63,0,82.76Z"/><path class="cls-6" d="M292.86,292.67V211a18.73,18.73,0,0,1,3.55,1.1q65.12,39,130.19,78.09a28.36,28.36,0,0,1,3.11,2.5Z"/><path class="cls-7" d="M1.52,292.63c13.79-8.5,27.51-17.12,41.39-25.48,34.53-20.81,69.35-41.13,103.57-62.44,11-6.87,22-11.2,34.89-9.39,4.57.64,11.59-2.75,13.07,1.84,1.19,3.69-6.28,5.52-10.05,7.8q-69.5,41.94-139.16,83.6c-2.06,1.24-4,2.71-6,4.07H35.71a66.61,66.61,0,0,0-29.13,0Z"/><path class="cls-8" d="M6.58,292.63a66.61,66.61,0,0,1,29.13,0Z"/></g></g></g></svg>