<svg xmlns="http://www.w3.org/2000/svg" viewBox="0 0 88.27 100.2"><defs><style>.cls-1{fill:#333;}.cls-2{fill:#ebebeb;}.cls-3{fill:#fefefe;}</style></defs><title>javascript</title><g id="Layer_2" data-name="Layer 2"><g id="prog"><g id="JavaScript"><path class="cls-1" d="M44.18,0c14,0,28.07.27,42.11.21,1.65,0,2.11.52,2,2.2-1.91,20.88-3.76,41.83-5.63,62.71-.69,7.75-1.41,15.52-2,23.28a2.23,2.23,0,0,1-1.88,2.34q-16.47,4.53-32.9,9.21a5.79,5.79,0,0,1-3.3,0Q26.07,95.29,9.62,90.72A2,2,0,0,1,7.9,88.64Q4.77,53,1.55,17.39C1.09,12.28.65,7.17,0,2.08-.17.43.61.24,1.73.24,11.93.25,22.14,0,32.34,0Z"/><path d="M44.21,50.89q0-19.62,0-39.24c0-3.24.14-3.39,3.29-3.39H77.61c2.64,0,2.76.16,2.52,2.83q-2.6,29.39-5.2,58.77c-.4,4.49-.87,9-1.24,13.47a2.51,2.51,0,0,1-2.1,2.47c-8.38,2.28-16.74,4.61-25.12,6.89-2,.53-2.25.24-2.26-2Q44.2,70.77,44.21,50.89Z"/><path class="cls-2" d="M40.72,49.19q0,13.36,0,26.72c0,2.67,0,2.69-2.51,2-7-1.92-13.89-3.9-20.86-5.75-1.69-.45-2.49-1.17-2.35-3a54,54,0,0,0,0-6.08c-.06-1.55.53-1.82,1.92-1.41C21,62.86,25.18,64,29.31,65.12c2.75.76,2.76.75,2.77-2q0-20.21,0-40.41c0-2.86,0-2.86,2.79-2.87,1.3,0,2.6.06,3.89,0,1.49-.08,2,.61,2,2,0,3.21,0,6.42,0,9.64Q40.72,40.32,40.72,49.19Z"/><path class="cls-3" d="M47.83,38.79c0-5.52,0-11,0-16.57,0-2.23.2-2.42,2.42-2.42q11.75,0,23.5,0c2,0,2.1.15,1.95,2.18s-.38,4-.48,6.07c-.08,1.54-.74,2.18-2.32,2.16-4.73-.06-9.47,0-14.2,0-2.14,0-2.33.19-2.34,2.32,0,3.78,0,7.55,0,11.33,0,1.49.53,2,2,1.79C62.85,45,67.33,44.51,71.81,44c1.87-.22,2.06,0,1.91,1.88-.61,8-1.27,16.07-1.83,24.1a2.83,2.83,0,0,1-2.48,3c-6.51,1.6-13,3.35-19.48,5-1.89.49-2.07.36-2.09-1.56,0-2.08.05-4.17,0-6.25a2.17,2.17,0,0,1,1.94-2.47c4.37-1.1,8.71-2.33,13.08-3.42,1.42-.35,2.13-1,2.13-2.53s.18-3.15.22-4.73c0-1.86-.18-2.07-2.07-1.74-4.28.74-8.55,1.52-12.82,2.27-2.28.4-2.45.26-2.46-2C47.82,50,47.83,44.37,47.83,38.79Z"/></g></g></g></svg>