<svg xmlns="http://www.w3.org/2000/svg" viewBox="0 0 74.08 99.75"><title>java</title><g id="Layer_2" data-name="Layer 2"><g id="prog"><g id="Java"><path d="M36.26,52.6c-4.12-3.41-8.08-7-10.74-11.68-2.32-4.12-2.3-7.76.9-11.18s6.81-6.16,10.21-9.25a96.55,96.55,0,0,0,7.56-7.16A14.81,14.81,0,0,0,47.81.63a4,4,0,0,1,0-.63c1.47,1.35,2.31,4.68,1.93,7.5-.68,5-3.33,8.88-6.71,12.32-2.21,2.26-4.77,4.18-7,6.39A43.61,43.61,0,0,0,30.76,32,10,10,0,0,0,30,42.77C31.17,45,32.64,47,34,49.16,34.72,50.33,35.5,51.46,36.26,52.6Z"/><path d="M57.7,20.26c-3.05,2.14-6.18,4.18-9.13,6.45A24.83,24.83,0,0,0,44.39,31a6.35,6.35,0,0,0-.55,7.48c.89,1.6,2,3.1,3,4.62,2.46,3.59,2.34,6.65-.55,9.89-1.11,1.24-2.41,2.31-3.69,3.52-.14-.31-.23-.43-.2-.48,2.14-4.07,1.87-6-.93-9.66a23.65,23.65,0,0,1-3.26-5.5c-1.69-4.26-.44-8,2.61-11.27C45.47,24.68,51.49,22.29,57.7,20.26Z"/><path d="M69.86,87.06c-.43.57-.75,1.43-1.32,1.67-3.1,1.27-6.19,2.81-9.43,3.46-5.5,1.09-11.1,1.67-16.68,2.26a81.91,81.91,0,0,1-10.55.5A184.77,184.77,0,0,1,4.41,92.55a14.39,14.39,0,0,1-3.21-1C-.2,91-.42,90.06.77,89.15a17.32,17.32,0,0,1,4.6-2.64,46.62,46.62,0,0,1,8.11-1.91c-2,.71-4,1.32-5.93,2.19-.71.32-1.16,1.23-1.73,1.88.64.52,1.22,1.34,1.94,1.5a74.41,74.41,0,0,0,10.68,1.94c6.63.45,13.29.71,19.93.57,8.22-.18,16.45-.6,24.52-2.4a20.55,20.55,0,0,0,4.32-1.48,11.5,11.5,0,0,0,2.26-1.88Z"/><path d="M51.77,82.16c-2,.59-3.92,1.31-5.93,1.75-6.71,1.46-13.45,1.82-20.17.12a20.13,20.13,0,0,1-4.94-2c-2.07-1.18-2-2.39.14-3.49.35-.19.74-.31,1.19-.49.88,2.33,3,2.08,4.79,2.32a56.81,56.81,0,0,0,18.89-.59,4.14,4.14,0,0,1,3.19.51c.9.54,1.87,1,2.81,1.44Z"/><path d="M19.58,67a2.21,2.21,0,0,0,2.14,2.76c2.11.33,4.24.64,6.37.79A75.93,75.93,0,0,0,49,69.11c2.13-.44,3.09,1.19,4.63,2.08-2.68.55-5.35,1.19-8,1.65a66,66,0,0,1-16,.9A76.15,76.15,0,0,1,19.44,72c-1.27-.27-3-.7-3-2.39S18.39,67.82,19.58,67Z"/><path d="M7.72,59.87c4.51-3,9.23-4.21,14.45-5-2.21.89-4.13,1.57-6,2.45A2.43,2.43,0,0,0,15,59c0,.37.92,1.1,1.5,1.19a44.38,44.38,0,0,0,7.75.9c7-.13,14-.45,21-.86,3.51-.2,7-.76,10.57-1.16-1.49,1.64-3.6,1.87-5.5,2.1-5.88.73-11.78,1.44-17.69,1.67-5.35.21-10.73-.09-16.09-.41A41,41,0,0,1,9.65,61,9.35,9.35,0,0,1,7.72,59.87Z"/><path d="M73.22,92.29a7.51,7.51,0,0,1-4.43,3.27,125.4,125.4,0,0,1-13.39,3.1,124,124,0,0,1-23.27.95c-4.87-.18-9.73-.76-14.59-1.15l0-.4c3.62.2,7.24.59,10.85.54,7.31-.09,14.64-.13,21.92-.72,7-.56,13.89-1.7,20.42-4.44C71.61,93.08,72.41,92.67,73.22,92.29Z"/><path d="M62.9,54.46c5.44-2.31,11.62,1.45,11.16,6.73a8.26,8.26,0,0,1-1.74,4.13A20.26,20.26,0,0,1,61.89,71.9c2.08-1.84,4.32-3.66,6.34-5.69a8.73,8.73,0,0,0,2-3.39c1.44-4.44-1.45-8.31-6.12-8.38Z"/></g></g></g></svg>