<svg xmlns="http://www.w3.org/2000/svg" viewBox="0 0 316.25 372.41"><defs><style>.cls-1{fill:#fff;}</style></defs><title>linux_1</title><g id="Layer_2" data-name="Layer 2"><g id="prog"><g id="linux"><path d="M279.46,263.82c3.66.25,5.4,2.84,6.2,5.93,1.29,5,2.33,10.05,3.16,15.13a14.5,14.5,0,0,0,5.5,9c3.89,3.28,8.37,5.5,12.82,7.86a23.35,23.35,0,0,1,6.65,5.05c3.68,4.24,3.07,11.22-.86,15.28a27.68,27.68,0,0,1-9.25,5.88c-12.12,5.26-23.48,11.77-33.44,20.61-6.62,5.88-13.49,11.48-20.26,17.2-12.32,10.42-31.09,7.3-40.25-.69-2.38-2.07-4.08-4.92-6.16-7.36-.51-.6-1.22-1.36-1.9-1.41-13.91-1.2-27.8-2.58-41.74-3.35a93.63,93.63,0,0,0-29.75,2.87c-3.29.89-6.46,2.21-9.66,3.39a3.39,3.39,0,0,0-1.21,1c-7.94,9-17.94,11.87-29.33,9-9.47-2.41-18.77-5.53-28.08-8.54a281.64,281.64,0,0,0-40.56-10.15,72.78,72.78,0,0,1-15.16-4.57c-5.92-2.39-8.09-6.57-4.32-14.44,1.82-3.8,4.41-7.26,6-11.14a20.28,20.28,0,0,0,1.29-8.79c-.48-6.21-1.69-12.36-2.37-18.57-.73-6.64.09-12.89,5.52-17.68a10.56,10.56,0,0,1,7.5-2.87c3.89.08,7.79.05,11.68,0s6.69-1.17,8-5.26c1-3.22,2.7-6.24,4-9.36a1.45,1.45,0,0,0,0-1.1c-2-3.69-1-7.52-.34-11.23,1.39-7.3,5-13.73,8.71-20A146,146,0,0,0,68.8,182.84c2-9.09,7-16.75,12.84-23.91,6.47-8,13.06-15.85,19.2-24.07,6.48-8.69,8.31-18.65,7.11-29.39-2-17.82-3.69-35.67-3.41-53.63.14-9,1.19-18,5-26.31C116.3,11,127.37,2.24,143.64.89,149.58.4,155.59-.25,161.51.1c11.25.67,22,3.43,31.33,10.19C202.68,17.42,208.91,27,212,38.7a175.93,175.93,0,0,1,4.83,29.15c.72,7.61,1,15.29,2.16,22.83,1.33,8.58,1.59,17.52,5.55,25.46A187.29,187.29,0,0,0,236,136c5.23,7.87,10.82,15.52,16.67,22.94A145.75,145.75,0,0,1,273,193c4.1,9.79,7.45,19.69,8.84,30.21,1.79,13.51,1.61,26.92-2.45,40.08A1.86,1.86,0,0,0,279.46,263.82ZM85.82,181.36a37.26,37.26,0,0,0-3.25,4.75c-4.19,8.77-8.41,17.53-12.32,26.43a59.46,59.46,0,0,0-5,19.61c-.61,8.27,1.09,15.93,7.5,21.64a184.24,184.24,0,0,0,17.87,14.34c7.31,5,14.67,9.91,20.87,16.34,3.87,4,7.9,7.88,10.48,12.93,1.11,2.17,1.47,4.49.2,6.56-2.49,4.07-5.79,7.37-10.44,9a25.83,25.83,0,0,1-2.94.63c2.28,4.92,4.1,9.86,9,12.51a39.19,39.19,0,0,0,8.81,3.82c13.38,3.44,26.78,2.76,40-.88,17-4.69,30-15.08,40.38-29.09a4.51,4.51,0,0,0,.86-2.75c-.26-3.59-1-7.17-1-10.75a123.74,123.74,0,0,1,.93-14.64,18.27,18.27,0,0,1,4.36-9.59c2.38-2.83,5.36-4,9-3.12a51.45,51.45,0,0,1,5.33,2,21.76,21.76,0,0,0,.27-2.17c.3-11.2,1-22.41.76-33.6-.36-16.45-4.07-32-14.28-45.5a56,56,0,0,1-7.47-13.29c-1.6-4.11-1.79-8.76-2.65-13.16a13,13,0,0,0-1-3.19c-3.76-7.71-7.63-15.37-11.35-23.1-1.73-3.58-3.2-7.29-4.86-11.1-1.2.92-2.09,1.64-3,2.29-5.82,4.08-11.45,8.46-17.51,12.14-8,4.86-16.78,7.41-26.34,6.31-4.76-.55-8.91-2-12.27-5.71-2.07-2.27-4.68-4-7.2-6.17-.4,2.11-.45,3.92-1.09,5.49-2.15,5.19-4.27,10.41-6.86,15.39-3.83,7.35-7.49,14.8-9.05,22.94a54,54,0,0,1-5,13.68c-5.48,11.2-11.74,22-15.68,34-3.66,11.06-6,22.29-4.58,34,.06.49,0,1,.08,1.75-.51-.35-.78-.52-1-.71-5.71-4.5-7.42-10.59-7-17.55.57-9.16,3.19-17.8,6.61-26.23,3-7.48,6.4-14.79,11.31-21.26,2-2.63,2-2.62-.51-4.35Zm32.4,166.81c-.5-3.1-.77-6.26-1.54-9.29-2.58-10.26-8-19.15-14-27.65-5-7-10.41-13.67-15.24-20.77-3.65-5.37-6.63-11.18-10-16.76-3.67-6.11-8-11.64-14.45-15.05-2.08-1.1-4.63-2.5-6.73-2.19-6.6,1-11.23,3.32-12.74,11.32-.19,1-.43,2-.61,2.95A5.09,5.09,0,0,1,38.66,275a49.88,49.88,0,0,1-6.12,1c-5,.45-10,.66-15,1.21a5.65,5.65,0,0,0-3.38,1.87,16.52,16.52,0,0,0-3.86,12.74,57.89,57.89,0,0,0,1.31,7.93c2.48,9.81,2,19.12-3.82,27.81a33.47,33.47,0,0,0-3.14,6.73c-1.46,3.82-.77,5.75,2.64,8a12.51,12.51,0,0,0,3.18,1.7c3.9,1.19,7.79,2.62,11.79,3.24a219.75,219.75,0,0,1,37.7,9l27.58,9.46c6.24,2.14,12.51,2.23,18.37-.9C112.52,361.38,119,357.41,118.22,348.16Zm114.16,20.71c6.2.45,13-4.1,19.46-9A145.15,145.15,0,0,0,263.27,350a120.72,120.72,0,0,1,35-23,70.83,70.83,0,0,0,8.91-4.1,9.23,9.23,0,0,0,2-14,41,41,0,0,0-7.44-5.71c-1.66-1.1-3.69-1.62-5.39-2.66-7.16-4.36-10.57-11.13-12.11-19.09-.71-3.68-1.49-7.36-2.42-11-.78-3.05-2.37-3.64-5-1.82a35,35,0,0,0-4,3.68c-2,1.91-4.07,3.71-5.89,5.76-7.73,8.73-15,11.19-25.21,8.81a16.55,16.55,0,0,1-12-10.39c-.91-2.23-1.57-4.56-2.32-6.85-.42-1.27-.46-2.84-1.27-3.76-4.33-4.94-10-3.62-12.14,1.18a15.41,15.41,0,0,0-1.5,5c-.4,5.88-.61,11.78-.78,17.68-.42,14,.84,28.09-1.9,42.1-1.36,7-1.25,14.26-2.7,21.3a5.31,5.31,0,0,0,.68,3.54C212.85,364.71,220.3,368.64,232.38,368.88ZM115.71,112.77a63.11,63.11,0,0,0,4.1,5.79c2.18,2.45,4.59,4.71,6.95,7,5.91,5.72,13,8.49,21.12,6.92a38.2,38.2,0,0,0,11.89-4.15c8.8-5.12,17.32-10.74,25.82-16.36a10.94,10.94,0,0,0,4.89-6.93c.25-1.26.27-3.21-.48-3.89a30.68,30.68,0,0,0-7.63-5.39c-5.73-2.58-11.67-4.73-17.58-6.9q-6.5-2.39-13.16-4.37a17.34,17.34,0,0,0-10.91-.15A62.46,62.46,0,0,0,121.85,94.5c-2.88,2.34-5.56,4.88-7,8.45a4.21,4.21,0,0,0,.39,4.1c1.47,2.49,3.61,4.09,5.83,5.7,8.77,6.39,18.28,8.28,28.74,4.81a75.3,75.3,0,0,0,17.3-8.46c3.29-2.13,6.49-4.42,9.64-6.57l1.45,3.17a2.45,2.45,0,0,1-.43.44C169.55,111.83,161,117,151.35,120c-7.86,2.48-15.77,2.67-23.41-.73C123.87,117.45,120,115.1,115.71,112.77Zm130.51,133c.19-.69.29-1.07.4-1.45A96.16,96.16,0,0,0,250.73,208c-1-11.1-5.08-20.78-13.34-28.46a17.1,17.1,0,0,0-8.79-4.6c-.6-.1-1.35.69-2,1.08a5.71,5.71,0,0,0,1.1,1.56c2.63,1.83,5.54,3.32,8,5.4,7.17,6.14,9.68,14.67,11,23.53,2.07,13.54-.41,26.58-5.12,39.28a3.13,3.13,0,0,1-1.47,1.45c-5.42,2.77-9.12,7.19-11.93,12.43-.31.59,0,1.54.1,2.32a8.77,8.77,0,0,0,1.84-1.19c2-2.21,3.93-4.58,6-6.73a15,15,0,0,1,10.06-4.52,45.05,45.05,0,0,1,20.22,3.6c4.71,2,7,6,9.39,10a8,8,0,0,0,1.74,1.57c.21-.71.79-1.57.57-2.11-.94-2.4-1.72-5-3.25-7-4.23-5.51-10.44-7.53-17-8.56C254.09,246.48,250.28,246.23,246.22,245.8ZM184.58,94.27c1.52-8.21,3.36-16.38,2-24.86-.87-5.52-2.48-10.69-8.31-12.76a21.16,21.16,0,0,0-8.83-1.27c-8.59.85-12.49,4.78-13.18,12.92-.41,4.86.79,9.57,2.53,14.15a4.84,4.84,0,0,0,4.26,3.28c-.93-4.14-.85-10.83.16-13.81,2.26-6.72,9.64-8.87,15-4.37,4.36,3.63,5,8.65,4.95,13.83a9.33,9.33,0,0,1-2.84,7.11,36.26,36.26,0,0,1-4.17,2.78ZM123.07,91c-5-2.59-6.2-6.76-6.18-11.53,0-1.21.06-2.42,0-3.62,0-3.39,1.76-6,4.11-8,3.84-3.28,9-1.57,10.75,3.18,1.32,3.5,1.52,7.43,2.23,11.16.08.45.25.88.37,1.31l.69.06a17.74,17.74,0,0,0,1.32-4.16,71.72,71.72,0,0,0,0-8.65A15.37,15.37,0,0,0,130.83,60a9.61,9.61,0,0,0-14.7,2.57,32,32,0,0,0-3.46,17.54,19.46,19.46,0,0,0,5.61,12.19,2.3,2.3,0,0,0,1.95.33A15.56,15.56,0,0,0,123.07,91Zm7.08-12.49c.32-3.78-.85-7.39-3-8.73a3.73,3.73,0,0,0-2.88-.6c-1.13.5-1.8,1.73-.94,3.36h3.11l1.71,6Zm50,0-.62-4.72c-.52-3.89-4.11-5.59-7.27-3.35.52.68.91,1.77,1.57,2,2.52.74,3.29,2.78,4,4.86C178.32,78.54,179.08,78.91,180.17,78.5Z"/><path class="cls-1" d="M85.82,181.36l.79.55c2.52,1.74,2.51,1.72.51,4.35-4.92,6.48-8.28,13.78-11.31,21.26-3.43,8.43-6,17.07-6.61,26.23-.43,7,1.28,13,7,17.55.25.2.52.36,1,.71,0-.76,0-1.26-.08-1.75-1.41-11.74.92-23,4.58-34,3.94-11.92,10.2-22.75,15.68-34a54,54,0,0,0,5-13.68c1.56-8.13,5.23-15.58,9.05-22.94,2.59-5,4.71-10.2,6.86-15.39.65-1.57.7-3.38,1.09-5.49,2.53,2.13,5.14,3.9,7.2,6.17,3.36,3.69,7.51,5.16,12.27,5.71,9.57,1.1,18.32-1.45,26.34-6.31,6.06-3.67,11.7-8.06,17.51-12.14.93-.65,1.81-1.37,3-2.29,1.66,3.82,3.13,7.52,4.86,11.1,3.72,7.73,7.59,15.39,11.35,23.1a13,13,0,0,1,1,3.19c.86,4.4,1.06,9,2.65,13.16a56,56,0,0,0,7.47,13.29c10.21,13.52,13.92,29.05,14.28,45.5.25,11.19-.46,22.4-.76,33.6a21.76,21.76,0,0,1-.27,2.17,51.45,51.45,0,0,0-5.33-2c-3.6-.89-6.58.29-9,3.12a18.27,18.27,0,0,0-4.36,9.59,123.74,123.74,0,0,0-.93,14.64c0,3.58.78,7.16,1,10.75a4.51,4.51,0,0,1-.86,2.75c-10.34,14-23.37,24.4-40.38,29.09-13.22,3.64-26.62,4.32-40,.88a39.19,39.19,0,0,1-8.81-3.82c-4.86-2.66-6.67-7.6-9-12.51a25.83,25.83,0,0,0,2.94-.63c4.66-1.61,8-4.91,10.44-9,1.27-2.07.91-4.39-.2-6.56-2.58-5.05-6.61-8.92-10.48-12.93-6.2-6.43-13.56-11.3-20.87-16.34a184.24,184.24,0,0,1-17.87-14.34c-6.41-5.71-8.11-13.37-7.5-21.64a59.46,59.46,0,0,1,5-19.61c3.91-8.89,8.13-17.66,12.32-26.43A37.26,37.26,0,0,1,85.82,181.36Z"/><path class="cls-1" d="M118.22,348.16c.74,9.25-5.7,13.21-12.32,16.75-5.85,3.13-12.12,3-18.37.9L60,356.35a219.75,219.75,0,0,0-37.7-9c-4-.62-7.89-2.06-11.79-3.24a12.51,12.51,0,0,1-3.18-1.7c-3.41-2.28-4.09-4.22-2.64-8a33.47,33.47,0,0,1,3.14-6.73c5.81-8.69,6.3-18,3.82-27.81a57.89,57.89,0,0,1-1.31-7.93,16.52,16.52,0,0,1,3.86-12.74,5.65,5.65,0,0,1,3.38-1.87c5-.55,10-.76,15-1.21a49.88,49.88,0,0,0,6.12-1,5.09,5.09,0,0,0,4.23-4.32c.18-1,.43-2,.61-2.95,1.51-8,6.14-10.33,12.74-11.32,2.1-.31,4.65,1.08,6.73,2.19,6.43,3.41,10.78,8.94,14.45,15.05,3.35,5.58,6.33,11.4,10,16.76,4.83,7.09,10.25,13.78,15.24,20.77,6.06,8.5,11.45,17.39,14,27.65C117.45,341.91,117.72,345.06,118.22,348.16Z"/><path class="cls-1" d="M232.38,368.88c-12.07-.23-19.52-4.16-24.6-12.26a5.31,5.31,0,0,1-.68-3.54c1.45-7,1.34-14.33,2.7-21.3,2.73-14,1.47-28.07,1.9-42.1.18-5.9.38-11.8.78-17.68a15.41,15.41,0,0,1,1.5-5c2.12-4.8,7.81-6.12,12.14-1.18.8.92.85,2.49,1.27,3.76.76,2.29,1.41,4.62,2.32,6.85a16.55,16.55,0,0,0,12,10.39c10.18,2.38,17.48-.09,25.21-8.81,1.82-2.05,3.91-3.86,5.89-5.76a35,35,0,0,1,4-3.68c2.6-1.82,4.19-1.23,5,1.82.93,3.63,1.71,7.31,2.42,11,1.54,8,5,14.73,12.11,19.09,1.71,1,3.74,1.56,5.39,2.66a41,41,0,0,1,7.44,5.71,9.23,9.23,0,0,1-2,14,70.83,70.83,0,0,1-8.91,4.1,120.72,120.72,0,0,0-35,23,145.15,145.15,0,0,1-11.43,9.86C245.34,364.77,238.58,369.33,232.38,368.88Z"/><path class="cls-1" d="M115.71,112.77c4.33,2.32,8.16,4.68,12.23,6.49,7.64,3.4,15.55,3.21,23.41.73,9.64-3,18.2-8.17,26.46-13.86a2.45,2.45,0,0,0,.43-.44l-1.45-3.17c-3.15,2.15-6.35,4.44-9.64,6.57a75.3,75.3,0,0,1-17.3,8.46c-10.46,3.46-20,1.58-28.74-4.81-2.21-1.61-4.36-3.21-5.83-5.7a4.21,4.21,0,0,1-.39-4.1c1.4-3.57,4.08-6.11,7-8.45a62.46,62.46,0,0,1,18.86-10.16,17.34,17.34,0,0,1,10.91.15q6.64,2,13.16,4.37c5.91,2.17,11.85,4.31,17.58,6.9a30.68,30.68,0,0,1,7.63,5.39c.75.67.73,2.63.48,3.89a10.94,10.94,0,0,1-4.89,6.93c-8.5,5.62-17,11.24-25.82,16.36a38.2,38.2,0,0,1-11.89,4.15c-8.16,1.57-15.2-1.2-21.12-6.92-2.36-2.29-4.77-4.54-6.95-7A63.11,63.11,0,0,1,115.71,112.77Zm19.58-21.89c.08.2.18,1,.53,1.17a2.47,2.47,0,0,0,2.06-.1,25.45,25.45,0,0,0,3.25-3.77,1.73,1.73,0,0,0-.06-1.61c-.18-.25-1-.13-1.52,0s-1,.5-1.5.52C135.8,87.16,135.38,88.67,135.29,90.88Zm15.41,1.36c1.6,0,2.45-1.12,1.48-2.3a24.6,24.6,0,0,0-4.51-3.76c-.17-.12-1.14.35-1.23.69C146,88.41,149.15,92.24,150.71,92.23Z"/><path class="cls-1" d="M246.22,245.8c4.06.43,7.87.68,11.64,1.27,6.56,1,12.77,3.05,17,8.56,1.53,2,2.32,4.59,3.25,7,.21.55-.36,1.4-.57,2.11a8,8,0,0,1-1.74-1.57c-2.4-4-4.68-8.06-9.39-10a45.05,45.05,0,0,0-20.22-3.6A15,15,0,0,0,236.12,254c-2.11,2.15-4,4.52-6,6.73a8.77,8.77,0,0,1-1.84,1.19c0-.78-.41-1.73-.1-2.32,2.81-5.24,6.51-9.66,11.93-12.43a3.13,3.13,0,0,0,1.47-1.45c4.71-12.7,7.18-25.74,5.12-39.28-1.35-8.86-3.87-17.39-11-23.53-2.42-2.07-5.32-3.56-8-5.4a5.71,5.71,0,0,1-1.1-1.56c.68-.38,1.43-1.18,2-1.08a17.1,17.1,0,0,1,8.79,4.6c8.27,7.68,12.37,17.36,13.34,28.46a96.16,96.16,0,0,1-4.11,36.38C246.51,244.72,246.41,245.1,246.22,245.8Z"/><path class="cls-1" d="M184.58,94.27l-8.36-3a36.26,36.26,0,0,0,4.17-2.78,9.33,9.33,0,0,0,2.84-7.11c.08-5.18-.59-10.2-4.95-13.83-5.4-4.5-12.78-2.36-15,4.37-1,3-1.09,9.66-.16,13.81a4.84,4.84,0,0,1-4.26-3.28c-1.74-4.59-2.94-9.29-2.53-14.15.68-8.14,4.59-12.07,13.18-12.92a21.16,21.16,0,0,1,8.83,1.27c5.83,2.06,7.44,7.23,8.31,12.76C187.94,77.89,186.1,86.07,184.58,94.27Z"/><path class="cls-1" d="M123.07,91a15.56,15.56,0,0,1-2.84,1.59,2.3,2.3,0,0,1-1.95-.33,19.46,19.46,0,0,1-5.61-12.19,32,32,0,0,1,3.46-17.54A9.61,9.61,0,0,1,130.83,60a15.37,15.37,0,0,1,5.55,10.82,71.72,71.72,0,0,1,0,8.65,17.74,17.74,0,0,1-1.32,4.16l-.69-.06c-.13-.44-.29-.87-.37-1.31-.71-3.73-.91-7.66-2.23-11.16-1.79-4.75-6.91-6.46-10.75-3.18-2.36,2-4.16,4.58-4.11,8,0,1.21,0,2.42,0,3.62C116.87,84.27,118,88.44,123.07,91Z"/><path class="cls-1" d="M130.15,78.54h-2l-1.71-6h-3.11c-.86-1.63-.19-2.86.94-3.36a3.73,3.73,0,0,1,2.88.6C129.31,71.15,130.48,74.76,130.15,78.54Z"/><path class="cls-1" d="M180.17,78.5c-1.09.4-1.85,0-2.3-1.24-.74-2.09-1.51-4.12-4-4.86-.66-.19-1.05-1.28-1.57-2,3.16-2.24,6.75-.54,7.27,3.35Z"/><path d="M135.29,90.88c.09-2.2.51-3.71,2.77-3.83.51,0,1-.43,1.5-.52s1.34-.21,1.52,0a1.73,1.73,0,0,1,.06,1.61,25.45,25.45,0,0,1-3.25,3.77,2.47,2.47,0,0,1-2.06.1C135.47,91.93,135.37,91.08,135.29,90.88Z"/><path d="M150.71,92.23c-1.55,0-4.68-3.83-4.26-5.37.09-.34,1.06-.81,1.23-.69a24.6,24.6,0,0,1,4.51,3.76C153.16,91.12,152.31,92.23,150.71,92.23Z"/></g></g></g></svg>