<svg xmlns="http://www.w3.org/2000/svg" viewBox="0 0 250.38 308.27"><title>macos</title><g id="Layer_2" data-name="Layer 2"><g id="prog"><g id="macos"><path d="M77,75.22c7.07-.08,13.82,1.57,20.46,3.8,5.89,2,11.59,4.47,17.41,6.64A73.77,73.77,0,0,0,122.49,88c4.49,1.13,8.8.39,13.08-1,5.48-1.8,10.78-4.08,16.18-6.13a103.22,103.22,0,0,1,21.36-6.06,59.16,59.16,0,0,1,12.23-.51,83,83,0,0,1,21.9,4.05A69.32,69.32,0,0,1,242.15,104c.55.77.51,1.08-.3,1.63-13.58,9.18-23.61,21.18-29,36.8a53.25,53.25,0,0,0-2.74,11.83c-2.7,25.67,5.47,46.89,26,63a63.38,63.38,0,0,0,13.58,8.16,1,1,0,0,1,.72,1.05,8.13,8.13,0,0,1-.47,2.79,173.65,173.65,0,0,1-23.35,45.19c-4.48,6.27-8.94,12.55-14.24,18.17A55,55,0,0,1,198,303.89a36.29,36.29,0,0,1-21.21,3.75,56.68,56.68,0,0,1-16.79-5c-5.31-2.33-10.62-4.67-16.34-5.86a53.38,53.38,0,0,0-8.75-1.11c-2.34-.1-4.68-.16-7,0a63.92,63.92,0,0,0-22.43,5.7,95.06,95.06,0,0,1-14,5.33c-7.28,1.88-14.55,2.45-21.78-.32a44.72,44.72,0,0,1-12.9-7.92c-6.2-5.27-11.33-11.5-16.23-17.95a195.36,195.36,0,0,1-25.12-42.64A201.15,201.15,0,0,1,1.63,189.33,150.77,150.77,0,0,1,.1,161.64C.69,145.87,4,130.74,11.44,116.7c8.14-15.3,19.85-27,35.53-34.5A71.3,71.3,0,0,1,77,75.22Z"/><path d="M124.7,65.54a60.08,60.08,0,0,1,6.58-26.87c9.34-18.9,24.43-30.92,44.49-36.92A46.61,46.61,0,0,1,185.2.05c1.47-.13,1.43-.13,1.65,1.31a39.79,39.79,0,0,1,0,9.56A68.83,68.83,0,0,1,177.3,40,63.85,63.85,0,0,1,145,67.78a46.51,46.51,0,0,1-18.86,3.4c-.72,0-1-.2-1.15-1C124.72,68.53,124.91,66.85,124.7,65.54Z"/></g></g></g></svg>