<svg xmlns="http://www.w3.org/2000/svg" viewBox="0 0 334.26 300.01"><defs><style>.cls-1{fill:#535353;}.cls-2{fill:#616161;}.cls-3{fill:#575757;}.cls-4{fill:#343434;}.cls-5{fill:#505050;}.cls-6{fill:#383838;}.cls-7{fill:#5d5d5d;}.cls-8{fill:#414141;}.cls-9{fill:#525252;}.cls-10{fill:#363636;}.cls-11{fill:#2c2c2c;}.cls-12{fill:#282828;}.cls-13{fill:#313131;}.cls-14{fill:#565656;}.cls-15{fill:#5c5c5c;}.cls-16{fill:#4a4a4a;}.cls-17{fill:#3c3c3c;}.cls-18{fill:#4b4b4b;}.cls-19{fill:#212121;}.cls-20{fill:#434343;}.cls-21{fill:#222;}.cls-22{fill:#484848;}.cls-23{fill:#262626;}.cls-24{fill:#2a2a2a;}.cls-25{fill:#3e3e3e;}.cls-26{fill:#1a1a1a;}.cls-27{fill:#777;}.cls-28{fill:#4f4f4f;}.cls-29{fill:#7c7c7c;}.cls-30{fill:#232323;}.cls-31{fill:#161616;}.cls-32{fill:#202020;}.cls-33{fill:#676767;}.cls-34{fill:#404040;}.cls-35{fill:#1d1d1d;}.cls-36{fill:#626262;}.cls-37{fill:#6e6e6e;}.cls-38{fill:#757575;}.cls-39{fill:#696969;}.cls-40{fill:#646464;}.cls-41{fill:#252525;}</style></defs><title>maya</title><g id="Layer_2" data-name="Layer 2"><g id="prog"><g id="maya"><path class="cls-1" d="M182.83,8.19,213,24.82c.46,1-.08,1.7-.75,2.35-2.42,1.78-4.68.07-6.25-1.06-3.24-2.34-7.13-3.52-9.74-5.83,9.31,5.09,17.25,13.05,26.56,18.95,9.72,6.15,17.59,15,28.54,19.29,1.5.59,2.49,1.93,3.6,3.06a25.75,25.75,0,0,0,9.95,6.72c4.68,1.58,6.83,5,7.45,9.64.21,1.57.64,3.12.74,4.69.36,6.11,4.08,9.28,9.5,10.87a19.74,19.74,0,0,1,8.14,4.66c3.1,2.89,5.24,2.18,6.64-1.86,2.36-6.81,4.54-7.6,10.14-3.16,3.09,2.44,6.65,4,9.88,6.12,2.5,1.66,4.72.61,6.64-1.16s3.58-2.08,5,.54c1.17,2-.24,3.21-1.3,4.48-6.5,7.81-12.86,15.74-19.39,23.52a41.54,41.54,0,0,1-3.54,3.06c-1.88,1.8-4.08,3.48-3.86,6.71.13,1.86-1.71,2.84-3,4-1.14.74-2.38,1.31-3.48,2.1-2.86,1.67-6.33,1.55-9.27,3.4-1.28.8-3.48-1.28-4.85-2.72-1.9-2-3.82-3.9-6.53-4.81-1.71-.57-2.1-2.2-2.73-3.66-2.62-6-2.55-12.66-4.27-18.91-1-3.7-2.6-6.37-6.16-8.25-6.79-3.58-11.58-9.63-17-14.83,8.52,8,14.47,18,21.87,26.94,2.5,3,2,6.46,1,9.85-.68,2.33-2.41,2.57-4.47,1.87-2.84-2-1.53-5.24-2.38-7.82-.09-.89.48-1.65-.41-2.68-12.38-14.37-23.59-29.68-35.31-44.58-16.29-20.72-32.41-41.58-48.58-62.39-2.56-3.3-5.32-6.58-5.85-11,.41-1.09,1.26-1.05,2.18-.84L174,3.24A12.31,12.31,0,0,0,182.83,8.19Z"/><path class="cls-2" d="M233.76,212.41c-3.22,3.14-5,7.63-9.28,9.78-5.06,3.88-8.58,3.33-12.85-1.46a158.3,158.3,0,0,0-18-16.67,16.39,16.39,0,0,1-3.34-3.33c-.57-.83-1-2-1.89-2.32-5.94-2.34-8.8-8.05-13.31-11.94-.44-.38-.08.21-.32-.27-4.73-9.59-15.54-12.87-21.71-21a3.76,3.76,0,0,0-1.26-1.17c-6.12-2.91-10.19-8.79-16.56-11.33a5.7,5.7,0,0,1-3.87-4.25c-.64-3-3.12-4.26-5.74-4.36s-3.41,2.51-3.8,4.57c-.58,3-3.08,5.13-3.44,8.26-.17,1.46-1.48,1.54-2.66.56-.63-1-1.89-1.61-2.16-2.89.18-4,2-7.54,3.17-11.27a26.61,26.61,0,0,0,1.59-8.31c2.81-4.74,4.47-10.15,8.22-14.34a43.07,43.07,0,0,1,21.2.14,21.68,21.68,0,0,0,5.11.44c16.8,0,33.6,0,50.38,0,1.19.06,2.49.19,2.23,1.83a2.71,2.71,0,0,1-2.64,2.41c-3.17.16-6.34.18-9.51.05-5.69-.23-9,3.93-12.9,6.91-1.83,1.41-.29,7.56,2.33,9.74,3.59,3,5.92,7.07,9.16,10.23,3.8,3.71,7.25,7.72,11,11.45,1.54,1.53,3.19,2.88,4.06,4.94,1.12,2.64,4,3.18,5.93,4.8,3.16,2.59,5.41,6.42,10.1,6.89a2.74,2.74,0,0,1,1.71,2.24c.2,2.09,1.92,2.64,3.38,3.48a72.51,72.51,0,0,1,7.63,24.48C235.57,211.91,234.61,212.09,233.76,212.41Z"/><path class="cls-3" d="M108.4,222.07l-10.6-12.68a5.17,5.17,0,0,1-1-1.06,10.69,10.69,0,0,1,.2-5.59c2.21-6.89,4.2-13.86,6.91-20.58,2.88-2.23,4.8-5.22,6.66-8.3,1.59-2.63,4.18-3.1,6.53-.51,4.4,4.84,10,7.09,16,8.84a4.31,4.31,0,0,1,2.71,2c1.45,2.65,3.31,4.65,6.47,5.16a2.24,2.24,0,0,1,1.73,2.22c.24,3.12,2.28,4.75,4.7,6.25,3.67,2.27,5.5,6.11,7.62,9.62,1,1.74,1.85,3.66,3.57,4.76,6.1,3.92,10.86,10,18.42,11.58a3.52,3.52,0,0,1,2.54,2.18c1.37,3.6,4.71,4.56,7.57,6.47,5.83,3.9,12.78,5,18.73,8.38a1.8,1.8,0,0,1,.59,1c-4.17,6.85-9.79,12.55-15,18.53-2.1,2.39-5,3.59-8.33,1.36-4.12-2.79-9.09-3.53-13.71-4.92-8.33-2.51-15.29-7.78-23.38-10.66a9.06,9.06,0,0,1-3.36-2.61,16.67,16.67,0,0,0-10.51-5.37,13.51,13.51,0,0,1-8.2-3.35c-1.1-1-2.6-2-4.23-.59-4.2-1.47-5.79-5.62-8.62-8.48C111.1,224.44,110.15,222.85,108.4,222.07Z"/><path class="cls-4" d="M29.59,76.81l5-2.81c1.48-1.16,2.74-.94,4.25.22,5.27,4.07,10.4,8.2,12.76,14.78a5.53,5.53,0,0,0,2.52,2.89c3,1.68,4.83,4.44,6.85,7.05,3,3.88,6.67,6.11,11.91,5.32,4.41-.67,4.57.14,4.38,4.55a12,12,0,0,1-3.11,8c-1,2.53-4.74,3.34-4.21,6.81-1.77,9-1,18-.49,27-.65,4.93-.43,9.88-.57,14.82-.05,1.91.27,4-1.8,5.22a15.48,15.48,0,0,1-2.73,1.39c-4.3,0-6-3.28-6.8-6.54a14.4,14.4,0,0,0-3.3-6.29C47.68,152,41.73,144.1,35.41,136.53c-5.85-7-12-13.75-17.37-21.17a3.49,3.49,0,0,0-2.9-1.59c-1.15,0-2.28-.87-2.28-1.67,0-4.73-4-6.61-6.43-9.62-1.53-1.9-3.19-3.7-4.66-5.66-.23-1.82-2-3.92.83-5.27l3.54-1.9A180.87,180.87,0,0,0,29.59,76.81Z"/><path class="cls-5" d="M66.87,296.61l-.17,1.69c-2.28,2.71-5.33.65-7.95,1.3-1.51-.41-3.33-.29-4-2.26-.72-2.25.95-3.4,2.2-4.73a20.68,20.68,0,0,1,3.2-2.19,5.5,5.5,0,0,0,2.21-6.1c-.56-2.51-2.5-3.24-4.79-3.65-8.18-1.49-16.06.54-23.95,2.1a96.58,96.58,0,0,0-16.13,4.84,26.79,26.79,0,0,0-11,8.14c-1.5,1.79-3.15,3.48-5,.4-.2-21.7-.05-43.41-.07-65.1a8.55,8.55,0,0,1,1.09-4.11c2.08-4.46,2.81-4.77,7.5-3.34a11.92,11.92,0,0,0,2.07.58,24.47,24.47,0,0,1,13,5.8c4,3.24,9.35,4.76,14.34,6.63,6.7,2.5,13.52,3.56,20.5,4.39,3.54.42,5.46,2.83,5.52,6.47.09,5.32,0,10.64,0,13.68.3-6.63.37-15.52-2.55-24.14.21-7.29-.83-14.63,1.54-21.78a9.09,9.09,0,0,0-.22-4.67c-1.41-6.56-2-13-.55-19.84.94-4.49,0-9.4.06-14.12,0-2.14,0-4.31,2-5.83a1.62,1.62,0,0,1,2.2.68c.31,27.5,0,55,.17,82.51.06,9-.75,18.12,1.46,27.12.92,3.75-.23,7.74-1.39,11.5A9.63,9.63,0,0,1,66.87,296.61Z"/><path class="cls-6" d="M71.93,115.66c-.33-2.5,1.89-3.75,2.77-5.66,1.08-2.36.71-3.83-2.21-3.17-6.24,1.4-10.13-2.21-13.46-6.46-2-2.53-3.83-5-6.63-6.63a7.13,7.13,0,0,1-3.56-4.18C47.41,84.41,44,80.88,39.69,78c-1.78-1.2-3.39-2.65-5.08-4,4.78-5.21,11.08-7.84,17.48-10.28,3.77.06,6.39-2.52,9.23-4.35,1.47-.95,4.32-.48,4.22-3.4C73,51,80.61,46.37,89.3,43.88c4.05,1.93,6.83,5.18,9.62,8.59a20.72,20.72,0,0,0,10.39,7.23c3.77,1.07,5.06,4.19,4,8.64-4.2,6.93-9.72,12.85-14.81,19.08-7.28,8.92-14.56,17.84-22,26.63C75.24,115.54,74.17,117.18,71.93,115.66Z"/><path class="cls-3" d="M327.39,99.38c-5.43,5.34-10.59,3.34-16-.22-2-1.29-3.51-2.94-5.31-4.34-3.38-2.61-5.09-2.13-6.25,1.8-2.38,8.1-5.2,8.78-11.43,2.68a10.59,10.59,0,0,0-5.12-3c-8.43-1.91-11.54-4.83-12.34-13.12-.67-6.94-3.16-11.45-10-14.44-6.73-2.93-12.4-8.2-18.46-12.47-11.38-8-23-15.85-33.71-24.73-4.69-3.88-10-6.81-14.59-10.69-1.05-.88-2.87-2.06-2-3.41,1-1.56,2.58,0,3.78.6,5.21,2.41,9.73,6.23,15.43,7.66,6.53,2.93,12.75,6.45,19,9.92,11,6.13,21.82,12.46,33,18.21.68.35,1.66.71,2,1.61,5.91,3.16,12,5.94,17.7,9.54.84.53,1.9.17,2.83.43l2.36,1.1c1.59,3.2,5,3.72,7.72,5.31,11.28,6.69,23,12.58,34.2,19.43,1.41.86,2.63,1.6,2.72,3.41C331.55,96.8,331.79,100.78,327.39,99.38Z"/><path class="cls-7" d="M117,156.35c1.75-4.56,2.43-9.49,4.84-13.82.56-1,.94-2.15,2.12-2.61,2.29-.89,11.24,5.06,10.84,7.46s1.09,3.06,2.59,3.84c10.92,5.61,19.23,14.56,28.7,22,2.53,2,7.25,2.74,7.83,5.89,1.07,5.85,8.34,6.45,9,12.24.11.91,2.3.83,3.42,1.95,9.15,9.13,19.36,17.16,28,26.8,2.68,3,6.44,2.75,10.08,2.07a6,6,0,0,1-2.52,3.44c-3,2.67-4.85,6.4-8.06,8.91-6-1.58-10.67-5.5-15.75-8.68-4-2.49-7.06-6.13-10.47-9.32-3.88-3.62-8.28-6.47-11.89-10.75-2.91-3.46-6.23-6.61-8.31-10.69-1.58-3.1-4.2-4.61-7.2-5.8-1.07-.42-2.9-.35-3.13-1.19-1.72-6.32-10.19-6.41-11.68-13-.48-2.14-2.94-2.56-5-2.89-1.43-.23-3-.27-3.88-1.56-2.21-3.16-5.43-4.93-8.51-7.06-3.38-2.33-5.93-5.91-10.66-5.76C116.94,157.87,116.94,156.93,117,156.35Z"/><path class="cls-8" d="M110.89,68.05c.49-4-1.12-6-5.13-7.31a19.9,19.9,0,0,1-10-7.93c-2.3-3.38-4.44-5.93-9.2-5l2.72-4,0-.07c4-2.73,8.77-4.18,12.73-7,4-1.54,7.58-3.93,11.12-5.51-2.29,0-3.74,3.79-6.94,2.22,8.82-5.7,17.8-11.1,27.55-15.07,2.41-1,4.9-1.79,7-3.36,6.89-5.23,14.83-8.72,22-13.5,3.23-2.16,6.12-2.18,9,.48l-1,2c-4.86.88-7.75,3.86-10.69,7.85-6.39,8.67-13.25,17-20.41,25.11-2.22,2.5-3.43,5.56-5.24,8.31-4.59.24-6.39,4.28-8.16,7.21-3.16,5.21-7.5,9.3-11.17,14C114,67.78,112.73,68.86,110.89,68.05Z"/><path class="cls-9" d="M120.44,233.41c.61-3.46,2.91-3.57,5-1.88,3.62,2.93,7.74,4.21,12.14,5.12a8.39,8.39,0,0,1,3.84,1.87c6.78,6.25,15.47,9.15,23.39,13.36a44.73,44.73,0,0,0,11.3,4,35.32,35.32,0,0,1,9.5,3.67c3.62,2,6.71.45,9.14-2.46,4.14-5,8.17-10,12.25-15,.6-.76,1.2-.76,1.79,0-6.78,9-14.15,17.5-21.52,26-3.67,2.57-6,6.35-8.82,9.72-1.82,2.2-3.52,2.73-6.3,1.86C167,278,161.82,276.31,156.28,277c-2.37-1-3.77-3-5.29-4.93a5.28,5.28,0,0,0-2.87-2.28l-22.47-26.87a17.06,17.06,0,0,0-3.46-5.68C121.38,236.22,119.62,235.28,120.44,233.41Z"/><path class="cls-10" d="M233.76,212.41l.77-1.36c.9-4.53,4-7.7,6.79-11.09,4.53-5.6,9.08-11.19,13.82-16.61a19.7,19.7,0,0,0,5.13-13.79c-.13-14-.06-28,0-41.93,0-1.4-.48-2.89.48-4.19a3.85,3.85,0,0,1,1.53-1.54c1.39,2.69.86,5.61,1,8.44,2,.82,2.07,2.59,2.07,4.34,0,12.43.43,24.86-.28,37.28-.1,1.67,1.09,2.67,1.15,4.12a268.86,268.86,0,0,0-1.67,29.63c0,4.14-.92,8.56.29,12.36,1.69,5.31.71,10.12-.07,15.23-.47,3-.61,6.28.69,9.29a3.15,3.15,0,0,1,.81,3.9c-1.87,4.7-1.72,9.64-1.7,14.56.18,3.23-.39,6.55,1.53,9.55.64,1-.16,2.06-.73,3.07-.84,1.48-.61,3.17-.38,4.8,1.52,2.27,2,4.67.6,7.13-.94,1.62-.13,2.89.53,4.25a11.9,11.9,0,0,1-1.59,4.82c-3,1.24-2.8-.76-3.26-2.8-1.48-6.54-1.31-13.16-1-19.71,1.38-26.11,1.34-52.24,1.19-78.36.11,18.53-.05,37.06.09,55.58,0,2.28-.62,4-3.45,4.2a39.52,39.52,0,0,0-6.72,1.53c-3.28-1.42-3.11-5-4.51-7.51-1.3-2.35-1.2-5.28-2.56-7.68a3.41,3.41,0,0,0-1.14-.34q-3.69-11.5-7.38-23C235.35,215.09,235.09,213.48,233.76,212.41Z"/><path class="cls-11" d="M97.8,208.2v1.19l-2.45,4.08c-3.33,6.63-4.87,13.9-7.49,20.78-1.81,4.78-2.77,9.91-5.78,14.19-2,2.81-4.35,3.28-7.09,1.5-4.65-3-6.72-7.5-6.82-12.88-.34-18.81.1-37.63-.18-56.45,0-1.89-.85-3.83,0-5.72,1.42-2,2.83-1.57,4.19.05,7.74,9.31,15.63,18.49,23.32,27.85C96.84,204.42,96.41,206.67,97.8,208.2Z"/><path class="cls-12" d="M69.38,175.39c.17,20.58-.43,41.16.39,61.74a13,13,0,0,0,3.71,8.52c3.87,4.13,7.29,3.6,9.55-1.62a236.93,236.93,0,0,0,8.47-24c.78-2.52,1.6-4.94,3.87-6.55-1.43,8.38-5,16.11-7.52,24.16-3.6,11.63-7.71,23.09-11.61,34.63-2.55,1-2,3.66-2.82,5.54-.54,1.17-.78,2.88-2.46,2.74-1.44-.12-1.33-1.62-1.82-2.75-2.2-5.08-.44-10.41-1.29-15.55-.25-1.52-.46-3.12-.63-4.7.07-27.94-.17-55.87.13-83.81C69.28,172.73,70,173.25,69.38,175.39Z"/><path class="cls-13" d="M250.31,254.15a9.13,9.13,0,0,1,6.36-3.34c3.63-.34,4-2.23,4-5.16q-.09-27.66,0-55.33c0-1.69-.36-3.45.85-5.5,1.23,2.09.81,4.1.82,6q.06,47.55,0,95.09c0,2.73-.19,5.49.88,8.11,2.67,2.59,2.62,2.86-1,5.27a91.69,91.69,0,0,1-4.77-16.06,68.08,68.08,0,0,0-3.2-9.31c-.5-1.35-1.2-2.64-.61-4.14-.09-4-2.65-7.22-3.35-11C250.09,257.17,249.05,255.69,250.31,254.15Z"/><path class="cls-14" d="M262.31,299.24a14,14,0,0,0,1-5.27q0-2.17,0-4.35c1.56-3.67,3.86-3.88,7.41-2.35,11.21,4.82,23.17,6.8,35.13,8.77a33.74,33.74,0,0,0,10.85.26c2,.94,4,.48,6.09.43,1.43.32,2.3-1.08,3.59-1.18,2.28,1,4.83,1.31,6.84,2.91a1.11,1.11,0,0,1,.09,1.35q-33.82,0-67.64,0A18.73,18.73,0,0,1,262.31,299.24Z"/><path class="cls-15" d="M2.6,91.55c-.73,1.65-.14,3,.88,4.33a18.71,18.71,0,0,0,.18,3.19c1.47,4.61,1.21,9.36,1.18,14.09-.08,13.53.27,27.07-.06,40.6-.52,21.06.47,42.1.09,63.15-.06,3.11,0,6.15-1.54,9.05a12.15,12.15,0,0,0-1,5.45c-.63,21.27-.45,42.55-.47,63.82,0,1.2,1.9,3.93-1.68,3.81q0-101,0-201.93C.16,95-.93,92.19,2.6,91.55Z"/><path class="cls-16" d="M333.32,299.81q0-.39-.08-.78c-2.13-1.64-2-4-2-6.33,0-16.13-.11-32.26.05-48.39.07-6.69-1.5-13.29-.81-20,3.5-33.87.83-67.84,1.54-101.76.14-6.56-2.28-13-1.66-19.67.19-2,.13-4.06,1.34-5.84a2.08,2.08,0,0,0,.15-2.84C326,88.69,318.37,86,311.64,82c-7-4.24-14.28-8-21.44-12-1.39-.77-3.06-1.37-1.95-3.52,13.87,7.69,27.71,15.45,41.64,23,3,1.63,4.38,3.57,4.38,7.11q-.14,99.31-.1,198.61C334.16,296.79,334.29,298.41,333.32,299.81Z"/><path class="cls-17" d="M.16,299c1.06-2.16.87-4.49.89-6.78.57-62.46,1.06-124.93.87-187.4,0-2.44-.11-4.9.74-7.26,1.18.47,1.23,1.54,1.35,2.55,1.29,5.37.85,10.86.87,16.31,0,13.13-.06,26.25.06,39.38,0,3.29-1,6.53-.34,9.81.64,18,.15,36.09.27,54.14,0,3.54-1.53,6.71-2.12,10.1v66.64c1.67,1.49,3.59.46,5.38.46,14.23,0,28.46.08,42.69,0,2.78,0,4.89,1.41,7.3,2.18,2.88,0,5.79.22,8.57-.85-1,1.87-2.87,1.71-4.57,1.71q-28.7,0-57.4,0C3.15,300,1.54,300,.16,299Z"/><path class="cls-18" d="M155.93,275.83c5.36-3.1,10.54-.36,15.33,1.23,4.3,1.43,6.66.56,9.09-2.75,1.85-2.51,3.57-5.32,6.91-6.24-5.62,6.84-11.34,13.61-16.81,20.56-2.49,3.17-4.46,3.73-6.68-.06a25.46,25.46,0,0,0-1.79-2.39c-1-2.57-3-4.45-4.7-6.48C156.3,278.53,154.84,277.67,155.93,275.83Z"/><path class="cls-19" d="M67.66,258.51c1.93,2.78,1.24,6,1.63,9.09.27,2.11.13,4.27.32,6.39.11,1.24.09,3,1.42,3.31,1.7.34,1.48-1.69,2.05-2.71.71-1.27.75-3.35,3.14-2.32-2.1,6.44-4.21,12.87-6.29,19.32-.62,1.94-1.2,3.88-3.07,5l-.07-3.51c1-9.84.13-19.7.44-29.55C67.29,261.87,66.74,260.12,67.66,258.51Z"/><path class="cls-16" d="M265,56c-11.94-6.45-24.11-12.5-35.51-19.91.19-1.11,1.1-.84,1.82-1L263.43,52.7a5.34,5.34,0,0,1,2.44,2.36C266.22,56,265.91,56.31,265,56Z"/><path class="cls-18" d="M265,56l.9-.91c7.37,2.09,13.51,6.55,20,10.31a5.36,5.36,0,0,1-4.56-.17C275.86,62.14,270.42,59.05,265,56Z"/><path class="cls-20" d="M120.44,233.41c2,3,5,5.48,5.2,9.49L108.4,222.07c3-.15,3.88,2.46,5.45,4.16C116.07,228.6,118.25,231,120.44,233.41Z"/><path class="cls-19" d="M250.31,254.15l3.52,10.57a6.59,6.59,0,0,1-.09,5L252,267.06c-.5-4.56-2.76-8.64-3.56-13.11L246,248.84c.58-2.9-1.31-5.27-1.75-8-.13-.79-.76-1.51,0-2.3,1.83.59,2,2.29,2.44,3.74C247.9,246.26,249.09,250.21,250.31,254.15Z"/><path class="cls-21" d="M29.59,76.81A59.12,59.12,0,0,1,6.14,89.65c4.28-4.43,10.49-5.55,15.39-9A22,22,0,0,1,29.59,76.81Z"/><path class="cls-22" d="M231.27,35.12l-1.81,1a109.67,109.67,0,0,1-18.14-10.42l1.69-.83c4.77,2.57,9.55,5.12,14.3,7.74C228.68,33.32,230,34.26,231.27,35.12Z"/><path class="cls-17" d="M155.93,275.83c1.15,2.45,3.18,4.24,4.74,6.38.82,1.13,2.51,2.12,1.33,4-5.23-5-9.52-10.72-13.88-16.42C152.35,269.68,152.9,274.36,155.93,275.83Z"/><path class="cls-23" d="M65.54,56c1.32.34,1.92,1.09.51,1.91a144.14,144.14,0,0,1-17,8.72l3-2.88Z"/><path class="cls-3" d="M208.79,242.06H207c-1-3.56,2.2-7.59,6.92-8.65,2.61-2.65,4.77-5.77,8-7.75C218.45,231.81,213.5,236.84,208.79,242.06Z"/><path class="cls-11" d="M106.17,33.5c4.48-.79,7.82-4.11,12.21-5.16-5.23,3.08-9.91,7.13-16,8.6a.67.67,0,0,1-1.16-.09Z"/><path class="cls-8" d="M182.83,8.19l1.24,3.07c-4-3.05-8.94-2.85-10-8Z"/><path class="cls-24" d="M101.18,36.85l1.16.09c-3.74,3.46-7.88,6.19-13.08,6.87l.11-.91c3.2-1.58,6.31-3.34,9.41-5.11Z"/><path class="cls-25" d="M248.48,253.95c1.8,4.21,3.92,8.32,3.56,13.11C250.42,262.81,248.55,258.62,248.48,253.95Z"/><path class="cls-8" d="M244.21,238.59c.59,3.42,3,6.52,1.79,10.26l-2.79-9.26Z"/><path class="cls-18" d="M98.78,37.79a21,21,0,0,1-9.41,5.11A21.86,21.86,0,0,1,98.78,37.79Z"/><path class="cls-26" d="M262.26,121.91l.05,1.5a4.07,4.07,0,0,1-3.24,1.77c-5.87.34-11.7,1.38-17.58,1.28-6.91-.12-13.73,1-20.61,1.16-3.38.07-6.51,1.12-8.69,4a2.42,2.42,0,0,1-2.28.92c-4.07-1.17-4.5-4.67-5.15-8,.35-.9.61-1.8-.23-2.6a24.8,24.8,0,0,1-2.11-3.38c-9.72-31-19.74-62-29.65-92.94-1.32-4.11-2.44-8.29-4-12.33-.42-1.12-.38-3-2.05-2.85-1.24.08-1.37,1.68-1.73,2.74-2.54,7.5-5,15-7.55,22.52-1.92,5.57-3.36,11.32-6,16.65-1.87,3.25-1.5,7.85-5.8,9.64a.87.87,0,0,0-.38.75c.15,4.52-3.79,7.28-4.84,11.3-.33,1.27-.8,2.65-2.58,2.75a3.21,3.21,0,0,1-3.39-2.18c-1.84-5.47-5.15-9.87-9-14.08-1.85-2-1.39-4.62.25-7.21,2.21-3.5,5.14-6.56,6.7-10.47,8-11,17.12-21.17,25.64-31.79,1.79-2.24,3.61-4.45,5.32-6.75C166.22.47,167.25.41,170.61,4l89,114.45Z"/><path class="cls-27" d="M293.68,140l2.39-1.88c2.64-1.59,4.37-4.06,6.07-6.51s3.33-2.68,6-1.47c6.16,2.78,9.92,8.11,14.14,12.88,2.27,2.56,4.23,5.31,7.09,7.34,1.87,1.32,3.68,3,3.56,5.71q0,25,0,50c-.08,3.08-1.94,3.7-4.32,2.65-7.44-3.26-14.37-7.26-19.38-14-3.61-4.84-9-8.18-11.85-13.65-2.23-4.23-5.57-7.66-8.32-11.52-5.21-7.33-8.08-7.37-14-.44a60.24,60.24,0,0,1-4.31,4.84c-1.94,1.84-3.55,1.94-4.9-.6-1.06-1.56-.05-2.84.83-3.83,8.38-9.43,15.25-20.2,25-28.4A3.8,3.8,0,0,1,293.68,140Z"/><path class="cls-28" d="M293.68,140l-26.21,32.73c-.66,1.95.15,5.5-4,3.65q-.1-23-.19-46c2.5-4,1.87-7.52-1-11.11-6.69-8.48-13.23-17.07-19.81-25.62a27.15,27.15,0,0,1-1.94-2.86c-.48-.82-1.35-1.84-.1-2.61.86-.53,1.7.19,2.21.87,2.64,3.49,6.52,5.65,9.45,8.83a32.25,32.25,0,0,0,11.78,8.55,7,7,0,0,1,4.42,5.45c.68,3.09,2,6.19,2,9.27-.15,9.34,5.06,15.27,11.76,20.6,2.31,1.84,4.31,1.94,6.66.41C290.25,141.14,291.49,139.46,293.68,140Z"/><path class="cls-29" d="M332.48,154.61c-8.54-3-12.4-11.07-18.19-17-2.4-2.46-5.21-3.93-7.94-5.68-1.71-1.09-2.88,0-4.07,1.2-1.89,1.88-3.21,4.49-6.21,5q14.16-17.29,28.3-34.58c1.08-1.32,2-2.77,3-4.17a18.87,18.87,0,0,0,4.44-5.15l1.43,1.6c-.71,4.7-.27,9.43-.29,14.14-.07,13.48,0,27,0,40.45C332.91,151.81,333.35,153.29,332.48,154.61Z"/><path class="cls-30" d="M209.5,131.27c.52-3.51,2.64-5,6.1-5.39,12.11-1.51,24.33-1.23,36.46-2.41,3.4-.33,6.83-1.12,10.26-.06,0,16.56,0,33.12.11,49.68a12.72,12.72,0,0,1-3,8.71c-7.49,8.94-14.83,18-22.27,27a21.55,21.55,0,0,1-2.57,2.28L227,188.17c-1.26.11-1.33-.74-1.76-1.71a254.57,254.57,0,0,1-9-25.11c-2.72-8.5-5.48-17-7.89-25.6C207.89,134.2,206.53,132.07,209.5,131.27Z"/><path class="cls-31" d="M132.44,42.8c.08,3.74-2.51,6.32-4.16,9.26-2,3.49-2,6.29,1.11,9.24,2.92,2.76,5.43,6,6.44,10.06.23,1,.5,2.12,1.7,2.26s1.5-1.11,2.05-1.91c3.88-5.68,5.26-12.4,7.81-18.64.5-1.22,0-3.45,2.5-3.13,1.3,1.29,1.13,2.76.71,4.37a311.32,311.32,0,0,1-11.44,35.57c-1.74,4.47-3.45,8.94-5.06,13.46-.43,1.2-1.12,2.36-.39,3.67.27.34.71.79.51,1.13-2.54,4.37-3.3,9.64-6.83,13.5-.3.31-.61.6-.92.9l-5.17,13.86c-2.35,1.3-2.65-.33-2.88-2-.87-6.32-1.12-6.32-7.3-7.11a151.24,151.24,0,0,0-22-.75c-6.07.11-12-1-18.08-1.09-2.24,0-4.42-.54-3.44-3.73l4.32-6.05c13.33-15.59,26.56-31.26,39-47.61Z"/><path class="cls-7" d="M213.92,233.38,207,242c-5.1.51-9.53-2.1-13.72-4.05-3.39-1.58-6.78-3.6-10.21-5.35-2.06-1-4.22-1.91-4.59-4.68a2.19,2.19,0,0,0-1.27-1.55c-5.94-1.27-9.53-6.26-14.52-9-5.82-3.2-8.86-8.85-12.4-13.93-2-2.92-4.11-5-7.47-5.93-1.12-.29-2.76-.55-2.13-2,1.24-2.87,0-3.88-2.51-4.48a2.56,2.56,0,0,1-1.66-1.28c-1.57-4.61-6.05-5.29-9.62-6.92-3.85-1.75-7.51-3.51-10.31-6.8-2-2.3-3.91-2-5.7.36a22,22,0,0,0-3.15,7c-.28.89-.62,2.85-2,.6-.74-.58-1.83-.81-1.6-2.21a14.35,14.35,0,0,1,.52-3.39c2.91-6.71,2.91-14.22,5.81-20.91,1.16-2.33,2.06-5.06,5.64-3.85l.88,2.65c3.2-1.68,5.84-1.45,8.41,1.52,2.22,2.57,4.63,5.23,8.5,5.46.5,0,1.3.48,1.4.87,1.44,5.79,6.87,5.34,10.89,7,1.88.8,4,1.3,3.06,4.2-.61,1.95.57,3.09,2.31,3.45,3.07.63,5.35,2,6.23,5.23a2.94,2.94,0,0,0,2.07,2c6.46,2,10.05,6.9,12.75,12.66a9.75,9.75,0,0,0,4.2,4.21c2.23,1.32,5.29,1.84,4.73,5.71-.2,1.41,1.58,1.85,2.8,2.3,1.62.6,3.51.91,4.49,2.43C194.95,223,205.76,226.5,213.92,233.38Z"/><path class="cls-32" d="M116.1,153.7l-2.49,5.47c-2.6.89-2.23,3.41-2.74,5.31-1.71,6.27-9.16,8.72-13.61,4-3.91-4.17-7.64-8.39-12.32-11.79-2-1.46-3.75-2.93-6.27-3.37-3.53-.61-6.46-2.5-9.11-4.52-.07,1.69-.36,3.21-2.77,1.52,0-8,0-16,.05-24a29.14,29.14,0,0,1,.77-4.61c6,3,12.64,2,19,2.44,9.58.6,19.21.13,28.81,1,6,.54,6.66,1.07,5.71,7a8.22,8.22,0,0,0,.2,4.24Z"/><path class="cls-33" d="M209.5,131.27c4.21,15.86,9.77,31.31,14.59,47,1,3.29,1.24,6.81,2.9,9.91-.23,1.53-1,2.6-1.75.47-1.33-3.61-3-6.35-7.35-6.68-.88-.07-1.7-1.42-2.48-2.24s-1.5-2.37-2.57-2.86c-7.78-3.62-10.48-12.41-17-16.9S187,147.53,180,143.44c-2.38-1.4-3.23-5.83-4.21-9.05-.6-2,1.28-3.28,2.9-4.35,2.33-1.53,5.27-2.23,6.38-5.42.53-1.54,2.49-1,3.89-1.13,5.14-.32,10.35.67,15.43-.83,1.06-.93,1.21.46,1.81.71Z"/><path class="cls-34" d="M206.23,123.36l-1.81-.71-78-.1q0-.41.11-.82c1.86-2,4.28-2.21,6.81-2.16,13.89.26,27.81-.77,41.67.87,7.68.9,15.06-1.8,22.68-1.74,3,0,5.68.5,7.67,3Z"/><path class="cls-35" d="M66.78,150.29l1.5-7c2.1,0,1.89,1.73,2.45,2.72a8.45,8.45,0,0,0,5.84,4.14c9.53,1.68,15.21,8.35,20.74,15.3,2,2.55,4.59,3.18,7.69,2.72s4.66-2.23,5.56-5.2c.43-1.42-.2-4.37,3-3.74-3,8.18-6,16.37-7.87,24.89L97.8,208.2C91.28,201.92,86,194.59,80,187.81c-3.59-4.1-7.09-8.28-10.64-12.42l-1.7-1.78c-.76-.31-.28-1.26-.86-1.67l-.92-.85a.47.47,0,0,1-.29-.46q0-.29.12-.29C67.71,163.74,66.35,157,66.78,150.29Z"/><path class="cls-15" d="M65.74,170.34l.16.75q0,33.73,0,67.46c-1.37,1.11-2.36.93-2.79-.88a16.56,16.56,0,0,1-.22-3.88c0-10.38.08-20.77,0-31.15-.09-7.2-1.1-7.68-8.06-8.83-5.23-.86-10.78-1.07-15.23-5.13-2.47-2.25-6.2-3.29-9.38-4.12-9.91-2.59-15.91-11.06-24.58-15.4-1.25-.63-1.61-2.44-2.87-3.29l0-65.78c1.48-1.68,2.38-.58,3.43.61,5.6,6.32,11.1,12.73,16.4,19.29q17.95,22.19,36.41,44c1.62,1.92,2,5.08,5.15,5.59Z"/><path class="cls-36" d="M64.09,169.54c-1.94.77-2.51-.93-3.35-1.95Q34.8,136.42,8.9,105.23c-1.73-2.08-3.33-4.39-6.2-5.13q0-1.25,0-2.51l.82-1.71c9.38,11.28,18.81,22.53,28.13,33.86C42.48,143,53.27,156.27,64.09,169.54Z"/><path class="cls-14" d="M2.73,165.87c1.66-1.24,2.88-2.55,4.44.6,1,1.93,3.65,3,5.6,4.44,7.72,5.6,15.17,11.71,24.93,13.56a4.12,4.12,0,0,1,2,.78c5.86,5.4,13.07,6.25,20.52,6,3.28-.12,4.23,1.37,4.45,4.31.82,11.06.17,22.13.41,33.19.07,3.29-.37,6.63.85,9.82q0,15.07,0,30.14H65c0-5.8,0-11.6,0-17.39,0-5.54-1.83-6.52-7.1-7.47-6.06-1.09-12.48-.35-18.19-4.33-2.94-2-7.14-2.76-10.64-4.41s-6.64-3-9.63-5.88c-3.17-3-8.67-3.25-13.34-3.5-1.92-.1-2.34,2.66-3.38,4.16Q2.74,197.88,2.73,165.87Z"/><path class="cls-22" d="M58.12,299.14q-24.56,0-49.11,0c-2.4,0-5,.33-6.25-2.61,9.28-12.82,23.89-14.23,37.6-17.69,6.72-1.7,13.37-1,20.08-.38,3,.26,4.39,1.73,4.54,4.65.25,4.7.69,9.26-5.56,10.86C57,294.59,56.35,296.86,58.12,299.14Z"/><path class="cls-11" d="M66.82,171.94l.86,1.67q0,42.45,0,84.89,0,14.13,0,28.26a16.88,16.88,0,0,1-.84,6.33Q66.81,232.52,66.82,171.94Z"/><path class="cls-37" d="M332.48,154.61q0-25.75,0-51.5a21.62,21.62,0,0,1,.74-7.28q0,80.2,0,160.4,0,21.4,0,42.8a17.64,17.64,0,0,1-6.79-.71c-3.44-1.3-6.3-3.72-9.7-5.12a4.25,4.25,0,0,1-2.36-2.22c-2.5-6.07-5.35-12-6.09-18.66a5.79,5.79,0,0,1,.5-2.51c2.67-8.14.7-12.82-7.17-16.78-5.26-2.64-10.36-5.59-15.73-8-4.18-1.91-8.26-4.07-12.26-6.37-4.33-2.5-6.05-1.49-6.46,3.34,0,.57.06-.14,0,.43-.23,1.61.44,4-1.87,4.2s-1-2.58-2-3.67q0-18.62,0-37.24c1.49-.62,1.28.59,1.3,1.31.06,2.68,0,5.36,0,7.64.19-6.41-.64-13.19-.47-20,0-1.28-.23-3,1.34-3.54s2.84.62,3.82,1.9a104.4,104.4,0,0,0,31.39,27c7.83,4.47,16.47,6.78,24.26,11.12,3,1.7,5,.23,5.31-3.69.35-4.89.13-9.79.11-14.69,0-2.13.32-4,2.16-5.33Q332.48,181,332.48,154.61Z"/><path class="cls-38" d="M332.48,207.41c0,7.78.07,15.56,0,23.33-.06,4.39-2,6.12-5.63,3.9-7.07-4.33-15.52-5.29-22.35-10a39.72,39.72,0,0,0-6.36-3.66c-12.33-5.44-21-15.29-29.86-24.83-.65-.7-.88-2.2-2.07-1.87-1.37.38-1.12,1.89-1.12,3,0,8.2,0,16.4-.32,24.61-1.33-5.34.35-10.95-1.5-16.23,0-9.76-.52-19.52.25-29.28l4-3.65c4.55-1.34,6.1-5.89,9.2-8.78,4.79-4.47,6.57-4.79,11.19.38,5.05,5.66,9.12,12.13,13.83,18C310.06,192.84,318.36,203.82,332.48,207.41Z"/><path class="cls-39" d="M263.26,242.9c.42.33.93,1,1.36.24a5.22,5.22,0,0,0,.35-2.09c.7-9.15,1-9.53,8.88-5,9.6,5.51,19.9,9.59,29.5,15.07a28,28,0,0,1,8.75,8.18c2,2.7.94,5.65.05,8.29-1,2.83-1.48,5.51-.59,8.39,2.32,7.43,3.83,15.31,11.74,19.41,1.22.63,2.11,1.91,3.16,2.89H323c-4.1-1.45-8.31-2.52-12.49-3.71-3.44-1-6.85-2.07-9.41-4.55-5.54-5.37-11.7-10.08-17.06-15.62-2.25-2.32-2.89-5.87-4.53-8.75a15.63,15.63,0,0,0-7.83-7.09c-3.13-1.27-4.12-.7-4.43,2.77-.25,2.72,0,5.47-.17,8.19-.09,1.25-.06,3-1.76,3s-1.52-1.69-1.63-2.94c-.24-2.83.53-5.71-.43-8.51Q263.26,252,263.26,242.9Z"/><path class="cls-40" d="M263.26,261.09c1.1,2.43.61,5.1,1.77,7.63,0-3.78,0-7.56,0-11.34,0-1.57,0-3.35,1.7-4.15s2.86.64,4.24,1.39c6.79,3.66,10.49,9.73,14.28,16.17,2.15,3.67,5.06,7.66,9.49,9.61a3.94,3.94,0,0,1,1.72,1.26c5.08,8,13,11.54,21.65,13.91a10.7,10.7,0,0,1,4.85,2.74h-6.06c-6.56-1.68-13.29-2.6-19.93-3.84a43.68,43.68,0,0,1-16.87-7c-2.26-1.54-4.42-3.24-6.83-4.55s-4.56-2.56-6.89.26c-1.28,1.55-2.26.49-2.66-1-.32-1.23.35-2.6-.48-3.77Q263.27,269.75,263.26,261.09Z"/><path class="cls-7" d="M263.28,278.41l1,2c2.06-4.59,2.63-4.76,6.57-1.83,11.42,8.49,23.67,15.09,38,17,2.83.38,5.68.95,8.09,2.71-16.17-1.05-32.3-2.33-47.4-9-2.21-1-4.18-.52-6.21.3Q263.29,284,263.28,278.41Z"/><path class="cls-41" d="M236.86,215.7c2.31,2.29,3,5.27,2.89,8.54Z"/><path class="cls-34" d="M131.67,107c1.24-6.53,3.92-12.61,5.93-18.9,4.06-12.72,8.19-25.43,12.29-38.14,5.32-13.26,9.13-27,13.92-40.48.74-2.08.68-5.62,3.06-5.67s2.42,3.48,3.08,5.54q16.72,51.87,33.29,103.79c.53,1.64.82,3.36,1.23,5,.62,1.69.9,3.14-1.71,3.14-10.6,0-21.2,0-31.76-1.12a4.72,4.72,0,0,1-4.18-3.3c-1.73-4.68-5.08-8.31-8.18-12.09-1.83-2.23-4.16-3.57-7.2-2.94-2.77.58-4.59,0-5.62-3.07-.88-2.57-3.25-2.85-5.57-1.08-1.82,1.39-2.53,3.44-3.2,5.51-.58,1.77-.9,3.66-2.05,5.19-.67.9-1.42,2.16-2.72,1.53C131.15,109.38,131,108.16,131.67,107Z"/><path class="cls-17" d="M131.67,107c2.1.8,2-1.08,2.41-2.11.68-1.74,1-3.6,1.71-5.34,1.72-4.41,7.54-7.75,12-6.91,2,.38,1.91,2,1.52,3.41-.95,3.51.57,3.86,3.31,2.71,2.23-.94,3.81-.17,5.27,1.6,4.09,5,8.59,9.66,11.43,15.58,1.45,3,4.54,3.56,7.35,3.75,7.46.5,14.91,1.41,22.41,1.16,2.23-.07,4.37-.24,5.41-2.68l.94,3.49-78.82.07A89.44,89.44,0,0,1,131.67,107Z"/></g></g></g></svg>