<svg xmlns="http://www.w3.org/2000/svg" viewBox="0 0 574.04 223.16"><title>npm</title><g id="Layer_2" data-name="Layer 2"><g id="prog"><g id="npm"><path d="M572.41,0Q287,.06,1.62,0C.18,0,0,.41,0,1.71Q.05,96.53,0,191.36c1,1.26,2.41.89,3.69.89l149.59,0c4.66,0,5.24.58,5.24,5.19,0,7.67,0,15.29,0,23a3.17,3.17,0,0,0,.91,2.74H287a3.2,3.2,0,0,0,.91-2.74c0-7.31,0-14.59,0-21.89,0-.78,0-1.56,0-2.34.11-3,.94-3.79,4-3.9.91,0,1.81,0,2.72,0H570c.66,0,1.33,0,2,0a2.57,2.57,0,0,0,2.07-.91q0-94.83,0-189.66C574,.42,573.85,0,572.41,0ZM156.21,159.47H130.67c-2.91,0-3.09-.18-3.09-3.08q0-44.11,0-88.22c0-.48,0-1,0-1.45,0-2.68-.23-2.9-2.9-2.91H98.78c-2.9,0-3.08.18-3.08,3.08q0,44.11,0,88.22c0,.48,0,1,0,1.45,0,2.67-.23,2.9-2.9,2.9h-58c-2.67,0-2.9-.23-2.9-2.9q0-60.87,0-121.73c0-2.67.23-2.9,2.9-2.9H156.19c3.15,0,3.27.12,3.27,3.26q0,60.5,0,121C159.46,159.35,159.34,159.47,156.21,159.47Zm158.66,0h-56.4c-3.25,0-3.34.09-3.34,3.37q0,12.77,0,25.54c0,2.77-.2,3-3,3H194.32c-2.76,0-3-.2-3-3q0-38.31,0-76.63,0-37.86,0-75.72,0-1.18,0-2.35A1.55,1.55,0,0,1,193.1,32l2,0H315.17c.54,0,1.06,0,1.6,0,1.45,0,2,.67,2,2.1,0,.6-.11,1.21-.11,1.81V155.59C318.67,159.47,318.78,159.48,314.87,159.48Zm223.25,0H513.59c-3.41,0-3.2-.06-3.2-3.42,0-29.17.27-58.33.27-87.5V67.47c0-3.65-.22-3.66-3.82-3.66H481.74c-3.16,0-3.34.12-3.34,3.24q0,43.84,0,87.68c0,.48,0,1,0,1.45,0,3.16-.13,3.29-3.25,3.29H449.74c-3.16,0-3.28-.12-3.28-3.25q0-43.84,0-87.68c0-.54,0-1.09,0-1.63,0-2.92-.18-3.1-3.07-3.1H417.66c-2.91,0-3.09.18-3.09,3.08q0,43.93,0,87.86c0,.6,0,1.21,0,1.81,0,2.68-.23,2.91-2.89,2.91h-58c-2.68,0-2.91-.23-2.91-2.89q0-60.87,0-121.73c0-2.72.21-2.8,3.07-2.8,30.86,0,61.71.11,92.57.11h91.3c.78,0,1.57-.09,2.35-.1,1.34,0,1.81.53,1.79,1.9,0,.6-.21,1.15-.21,1.75V155.63C541.67,159.47,541.89,159.47,538.12,159.48Z"/><path d="M284.12,63.82H258c-2.67,0-2.9.23-2.9,2.9q0,29,0,58c0,2.68.23,2.91,2.89,2.91h26.08c2.67,0,2.9-.23,2.9-2.9q0-14.4,0-28.8,0-14.58,0-29.16C287,64,286.78,63.82,284.12,63.82Z"/></g></g></g></svg>