<svg xmlns="http://www.w3.org/2000/svg" viewBox="0 0 520.77 507.71"><title>photoshop</title><g id="Layer_2" data-name="Layer 2"><g id="prog"><g id="photoshop"><path d="M520.77,507.71H0V0H520.77ZM21.49,485.9H499V21.44h-5.47l-466.18,0c-5.86,0-5.87,0-5.87,6q0,226.52,0,453C21.49,482.19,21.49,483.9,21.49,485.9Z"/><path d="M164.29,268.68c0,2.42,0,4.29,0,6.17q0,36.54,0,73.08c0,6.41,0,6.44-6.23,6.45H132.21c-6.12,0-6.14,0-6.14-6q0-28.88,0-57.77,0-83.58,0-167.17c0-6.52.43-7,6.84-7.15,19.68-.34,39.35-.8,59-.84,14.29,0,28.18,2.59,41.12,8.89,22.84,11.12,33.9,30.34,36.47,54.89,1.5,14.34.57,28.57-4.65,42.2-8.72,22.77-26,35.91-48.73,42.74-14.15,4.25-28.68,4.89-43.31,4.47C170.17,268.61,167.57,268.68,164.29,268.68Zm.44-34.93a9.21,9.21,0,0,0,2.56.68c10.88-.5,21.93-.06,32.59-1.86,15.43-2.6,26.09-11.72,29.93-27.51a56.61,56.61,0,0,0,.33-26c-2.7-12.06-9.74-20.69-21.26-25.36-14.28-5.79-29.12-4.19-44.16-3.43Z"/><path d="M291.53,311c2.37,1.2,3.89,1.91,5.35,2.72,15.47,8.6,31.87,12.87,49.58,10.09,10.75-1.69,16.85-8.8,15-18.24a20.38,20.38,0,0,0-6.68-11.22c-6.44-5.13-13.82-9.12-20.9-13.42-6.72-4.08-13.84-7.56-20.29-12-18.7-12.93-25.61-31.12-20.88-53,4.63-21.42,19.6-33.29,40.2-38,17.65-4,35.33-2.5,52.76,2.32,4.67,1.29,6.66,3.78,6.46,8.77-.33,8.16-.06,16.34-.11,24.51,0,4.59-1.14,5.2-5.19,3.11-13.87-7.15-28.5-10-44-7.67a20.66,20.66,0,0,0-5.38,1.74c-10.8,4.94-13.15,17.44-3.91,24.85,7.21,5.78,15.7,9.94,23.57,14.9,8.48,5.36,17.34,10.25,25.27,16.33,26.5,20.33,23.43,72.1-15.16,85.88-23.84,8.51-47.53,6.71-70.92-2.31-3.63-1.4-5-3.53-4.88-7.56.33-8.74.1-17.5.09-26.26C291.53,315,291.53,313.5,291.53,311Z"/></g></g></g></svg>