<svg xmlns="http://www.w3.org/2000/svg" viewBox="0 0 198.52 99.75"><title>php</title><g id="Layer_2" data-name="Layer 2"><g id="prog"><g id="php"><path d="M0,99.69C2.37,87.65,4.58,76.33,6.83,65c2.69-13.48,5.49-26.94,8.05-40.45.55-2.87,1.69-3.9,4.61-3.81,10.32.3,20.71-.33,30.94.74C62.22,22.74,68,29.65,68.5,41.35a38.87,38.87,0,0,1-7.61,25.21C55,74.7,46.86,78.73,36.86,79c-4.27.11-8.55.18-12.81,0-2.9-.12-4.52.45-4.93,3.82-.56,4.63-1.91,9.15-2.69,13.76-.4,2.34-1.38,3.27-3.8,3.17C8.66,99.57,4.68,99.69,0,99.69ZM22.41,66.91c6.75-.83,12.66-1.07,18.3-2.44,2.73-.67,6.19-2.94,7.16-5.36a71.21,71.21,0,0,0,4.11-17c.5-3.78-1.89-6.6-6-7-4.76-.47-9.55-.78-14.33-.87-1,0-2.79,1-3,1.89C26.55,45.91,24.65,55.71,22.41,66.91Z"/><path d="M129.89,99.69c2.36-12,4.58-23.31,6.83-34.63,2.68-13.48,5.46-27,8-40.46.54-2.82,1.62-3.94,4.59-3.84,10.59.34,21.26-.28,31.76.85,11.51,1.23,18.41,10.15,17.31,21.72a55.76,55.76,0,0,1-4.72,18.18c-5.28,11.23-14.6,17.25-27.27,17.47-4.41.08-8.82.14-13.22,0-2.5-.08-3.7.66-4.09,3.33-.71,4.75-2,9.42-2.76,14.16-.42,2.61-1.68,3.36-4.16,3.26C138.23,99.57,134.28,99.69,129.89,99.69Zm22.37-32.87c6.42-.71,12-1.26,17.5-2,4.18-.52,7.45-2.85,8.67-6.74a87.88,87.88,0,0,0,3.43-15.94c.45-3.84-1.86-6.62-6-7-4.76-.48-9.56-.82-14.34-.87a4,4,0,0,0-3.1,2.22C156.34,46.13,154.48,55.81,152.27,66.82Z"/><path d="M69.17,79c1.3-6.57,2.47-12.59,3.68-18.61C76.64,41.55,80.51,22.7,84.17,3.8,84.73.9,85.8-.17,88.74,0c3.68.23,7.39.06,11.76.06L96.55,20.82c2.48,0,4.6-.07,6.72,0a112.38,112.38,0,0,1,12.34.66c12.44,1.86,16.66,7.7,14.4,20.09-2.07,11.35-4.57,22.63-6.76,34-.5,2.61-1.58,3.71-4.37,3.54C115,78.84,111,79,106.6,79c2.21-11,4.21-21.41,6.36-31.75,2.36-11.33,1.13-13-10.26-13-8.93,0-8.92,0-10.67,8.81-2.15,10.78-4.41,21.54-6.45,32.35-.5,2.65-1.54,3.76-4.32,3.61C77.45,78.87,73.62,79,69.17,79Z"/></g></g></g></svg>