<svg xmlns="http://www.w3.org/2000/svg" viewBox="0 0 107.26 95.13"><title>swift</title><g id="Layer_2" data-name="Layer 2"><g id="prog"><g id="swift"><path d="M1.16,62.66c12,6.69,24.32,11.88,38.46,11.25C46.57,73.6,53,71.69,59.79,68.5,48.19,59.83,39.06,49.33,29.66,39.1L13,18.41l.8-.89C25,25.72,35.27,35.36,47.4,42.33l1,.39-.47-.9C40.67,32.25,33,23,27.12,12.2l10.17,8.72c10.88,9.35,22.35,18,33.89,26.47,4.11,3,4.47,2.54,5.54-2.46C80.22,28.61,75.5,14.22,66.68,0,70,.8,71.93,2.94,74,4.57,88.07,15.73,97.6,29.75,100.49,47.8a59,59,0,0,1-1.8,16.49c-.58,2.16.47,3.45,1.6,5.11,5.16,7.49,8.73,15.45,6.07,25-1.94-.35-2.34-1.93-3.29-2.9-5.8-5.9-12.21-7.42-19.5-3.58C58.62,101,36.19,95.12,15,79.3A52.94,52.94,0,0,1,.64,63.19,4.16,4.16,0,0,0,1.16,62.66Z"/><path d="M13,16.87c-.22.15-.45.43-.62.4s-.5-.32-.75-.49c.24-.15.49-.42.71-.4S12.79,16.69,13,16.87Z"/><path d="M.64,63.19,0,62.66H1.16A4.35,4.35,0,0,1,.64,63.19Z"/></g></g></g></svg>