<svg xmlns="http://www.w3.org/2000/svg" viewBox="0 0 292.19 295.22"><title>vs</title><g id="Layer_2" data-name="Layer 2"><g id="prog"><g id="vs"><path d="M98.17,166.48l-13.09,10Q51.83,201.76,18.59,227.1a2.15,2.15,0,0,1-2.68.27Q8.59,223.58,1.17,220A1.83,1.83,0,0,1,0,218Q0,147.7,0,77.36a2,2,0,0,1,1.3-2.07c4.94-2.42,9.86-4.88,14.73-7.42a2.17,2.17,0,0,1,2.72.26q39,29.74,78,59.43c.53.4,1.08.79,1.71,1.25l9.22-9Q168.75,60.38,229.78.88a2.35,2.35,0,0,1,3-.6q28.93,11.67,57.9,23.24a2,2,0,0,1,1.53,2.2q0,121.94,0,243.89a2,2,0,0,1-1.54,2.16Q261.59,283.32,232.58,295a2.07,2.07,0,0,1-2.62-.58q-30.52-29.69-61.07-59.33L99.73,167.92C99.28,167.49,98.82,167.08,98.17,166.48Zm47.75-19.08L221,203.95V91.29ZM26.21,181.48l37.56-34.05L26.21,113.9Z"/></g></g></g></svg>